<?xml version="1.0" encoding="utf-8"?>
<!-- Generator: Adobe Illustrator 28.3.0, SVG Export Plug-In . SVG Version: 6.00 Build 0)  -->
<svg version="1.1" id="Слой_1" xmlns="http://www.w3.org/2000/svg" xmlns:xlink="http://www.w3.org/1999/xlink" x="0px" y="0px"
	 viewBox="0 0 300 300" style="enable-background:new 0 0 300 300;" xml:space="preserve">
<style type="text/css">
	.st0{fill:#FFFFFF;}
</style>
<g>
	<path class="st0" d="M186.9,239.5l0.9-25.7c-0.9,0.7-1.8,1.4-2.6,2L173,226.3c0,0-0.1,0.1-0.1,0.1c-5.8,4.2-12.3,6.7-18.8,7.1
		c-0.8,0.1-1.6,0.1-2.4,0.1v7.2c0,1-0.8,1.8-1.8,1.8s-1.8-0.8-1.8-1.8v-7.4c-5.5-0.5-11.2-2.5-16.3-5.8l-14.9-11
		c-1.1-0.7-2.2-1.5-3.2-2.2l0.9,24c0.6,16.2-8.9,31.1-23.5,37.6c13.8,2.8,61.4,10.6,119,1.1C195.7,270.4,186.3,255.6,186.9,239.5
		L186.9,239.5z"/>
	<path class="st0" d="M151.8,91.3c13.3,9.5,30.4,14.8,50.3,15.3c6.5,0.2,10.4,2.7,12.7,5.4c1-25.9-5.9-48-19.5-62.3
		c-10.9-11.5-25.9-17.7-43.5-18.1L151.8,91.3z"/>
	<path class="st0" d="M86,111.6c8.2-3.6,35.3-17.6,39.8-47.4L125,35.9c-11.3,4.1-21.2,10.9-28.5,20.1c-12,15.1-16.1,35.1-11.7,56.3
		C85.2,112,85.6,111.8,86,111.6z"/>
	<path class="st0" d="M183.2,135.1c-1.6-0.1-3.1,0-4.4,0.2c-1,0.7-1.6,1.8-1.7,3.1c-0.1,1.1,0.3,2.1,1.1,2.9
		c0.7,0.8,1.7,1.3,2.8,1.3c1.1,0,2.1-0.3,2.9-1.1c0.8-0.7,1.3-1.7,1.3-2.8C185.3,137.2,184.5,135.8,183.2,135.1L183.2,135.1z"/>
	<path class="st0" d="M129.3,62.8c0,1.2,0.3,2.2,0.8,3.3c4.5,8.9,10.6,16.4,18.1,22.5v-57c-6.8,0.2-13.4,1.2-19.7,3.1l0,0.4
		L129.3,62.8z"/>
	<path class="st0" d="M122.4,135.4c-1.4-0.2-2.9-0.3-4.6-0.3c-1.3,0.8-2,2.2-2,3.7c0.1,2.2,2,4,4.2,3.9c1.1,0,2.1-0.5,2.8-1.3
		c0.7-0.8,1.1-1.8,1.1-2.9C123.9,137.2,123.3,136.1,122.4,135.4z"/>
	<path class="st0" d="M217.8,130.1c-0.7-0.4-1.7,0.1-2.4,0.5c-0.6,0.4-1.4,0.4-2-0.1c-0.6-0.4-0.9-1.2-0.7-1.9
		c0.6-2.1,1.2-5.7,1.6-10.3c-0.5-1.7-3-7.9-12.4-8.1c-19.6-0.5-36.6-5.5-50.2-14.6v73.5c2.8-0.3,5.2-1.4,6.9-3.1
		c0.7-0.7,1.8-0.7,2.5,0c0.7,0.7,0.7,1.8,0,2.5c-2.4,2.4-5.7,3.9-9.5,4.2v13.7c6.1-2.7,11.6,1.7,15.3,4.8c1.8,1.5,3.5,2.8,4.7,3.2
		c0,0,0,0,0,0c0.1,0,0.3,0.1,0.4,0.2c0,0,0.1,0,0.1,0.1c0.2,0.1,0.3,0.2,0.4,0.4c0,0,0,0.1,0,0.1c0.1,0.1,0.2,0.3,0.2,0.4
		c0,0,0,0,0,0c0,0.1,0,0.1,0,0.2c0,0.1,0,0.3,0,0.4c0,0,0,0,0,0c0,0.1,0,0.1,0,0.2c0,0.1,0,0.2-0.1,0.4c0,0.1-0.1,0.1-0.1,0.2
		c-0.1,0.1-0.1,0.2-0.2,0.3c-0.1,0.1-0.1,0.1-0.2,0.2c-0.1,0-0.1,0.1-0.1,0.1c-1.1,0.7-2.2,1.8-3.4,2.9c-3.7,3.4-8.7,8-17.2,8.6v21
		c0.7,0,1.4,0,2.1-0.1c5.8-0.4,11.6-2.6,16.8-6.4L183,213c0,0,0.1-0.1,0.1-0.1c6.3-4.6,17.5-14.3,21.2-27.3c0.8-2.7,1.4-5.6,1.8-8.4
		c0.1-0.9,0.9-1.6,1.8-1.5c0.6,0,5.7-0.2,6.5-5.5c1.6-10.5,2.9-16.1,3.9-20.3c1.1-4.4,1.6-6.8,1.6-11.6
		C219.9,133.1,218.8,130.7,217.8,130.1L217.8,130.1z M198.9,140.3c-0.5,0.8-1.6,1.1-2.5,0.5c-0.7-0.5-1.4-0.9-2.1-1.4
		c-1.9-1.3-3.7-2.5-5.9-3.4c0.3,0.9,0.5,1.9,0.4,2.8c-0.1,2-1,3.9-2.5,5.3c-1.4,1.3-3.2,2-5.1,2c-0.1,0-0.2,0-0.4,0
		c-2-0.1-3.9-1-5.3-2.5c-1.4-1.5-2.1-3.4-2-5.5c0-0.4,0.1-0.8,0.2-1.2c-2,1.1-4.2,2.8-6.9,5.2c-0.3,0.3-0.8,0.4-1.2,0.4
		c-0.5,0-1-0.2-1.3-0.6c-0.7-0.7-0.6-1.9,0.2-2.5c7.4-6.5,11.5-8.2,19-8c5.9,0.2,9.4,2.6,12.8,5c0.7,0.5,1.3,0.9,2,1.4
		C199.1,138.4,199.4,139.5,198.9,140.3L198.9,140.3z M204.3,129.5c-0.3,0.5-0.9,0.8-1.5,0.8c-0.3,0-0.7-0.1-1-0.3
		c-4.9-3.2-7.6-4.9-11.7-6.7c-4.7-2.1-13.9-0.2-22.8,4.9c-0.9,0.5-1.9,0.2-2.4-0.7c-0.5-0.9-0.2-1.9,0.7-2.4c10-5.6,20.2-7.6,26-5
		c4.3,1.9,7.3,3.8,12.2,7C204.6,127.5,204.8,128.6,204.3,129.5L204.3,129.5z"/>
	<path class="st0" d="M93.9,177.3c0.1,0.7,0.2,1.4,0.3,2.1c2.2,12.9,11.5,25.7,24.7,34.3l14.9,11c4.5,2.9,9.5,4.7,14.3,5.2V209
		c-8.3-0.6-13.1-5.2-16.8-8.5c-1.2-1.1-2.3-2.2-3.4-2.9c-0.1,0-0.1-0.1-0.1-0.1c-0.1-0.1-0.1-0.1-0.2-0.2c-0.1-0.1-0.1-0.2-0.2-0.3
		c0-0.1-0.1-0.1-0.1-0.2c0-0.1-0.1-0.2-0.1-0.4c0-0.1,0-0.1,0-0.2c0,0,0,0,0-0.1c0-0.1,0-0.2,0-0.4c0-0.1,0-0.1,0-0.2c0,0,0,0,0,0
		c0-0.1,0.1-0.2,0.1-0.2c0-0.1,0.1-0.2,0.1-0.3c0,0,0.1-0.1,0.1-0.1c0.2-0.2,0.5-0.4,0.8-0.5c1.2-0.3,2.9-1.7,4.7-3.2
		c3.7-3,9-7.3,14.9-5v-13.6c-3.7-0.4-7.1-1.8-9-3.8c-0.7-0.7-0.7-1.8,0-2.5c0.7-0.7,1.8-0.7,2.5,0c1.1,1.1,3.5,2.3,6.4,2.7v-76
		c-8.2-6.2-14.9-13.9-20-23.1c-6.9,27.9-32.7,41.3-40.8,44.8c-0.6,0.4-1.3,3.4-1.1,5.4c0,0,0,0,0,0c0.2,1.7,0.3,3.2,0.4,4.5
		c0.1,1.6,0.3,3.1,0.5,3.9c0.2,0.7-0.1,1.5-0.7,1.9c-0.6,0.4-1.4,0.5-2,0.1c-0.5-0.3-1.2-0.6-1.8-0.6c-0.2,0-0.4,0-0.6,0.1
		c-1,0.6-2.1,3-2.1,8.3c0,4.7,0.6,7.2,1.6,11.6c1,4.1,2.3,9.8,3.9,20.3c0.8,5.3,5.9,5.5,6.5,5.5C93.1,175.7,93.8,176.4,93.9,177.3
		L93.9,177.3z M128.7,210c0.4-0.5,1.1-0.7,1.6-0.3c2.4,1.5,4,2.3,4,2.3c0.6,0.3,0.8,1,0.5,1.6c-0.2,0.4-0.6,0.7-1.1,0.7
		c-0.2,0-0.4,0-0.5-0.1c-0.1,0-1.7-0.9-4.2-2.5C128.5,211.3,128.4,210.5,128.7,210L128.7,210z M116.2,198.5
		c-0.2,0.2-0.5,0.2-0.7,0.2c-0.4,0-0.7-0.2-1-0.5c-1-1.3-1.9-2.7-2.7-4.1c-0.3-0.6-0.1-1.3,0.4-1.6c0.6-0.3,1.3-0.1,1.6,0.4
		c0.8,1.3,1.6,2.6,2.6,3.8C116.9,197.3,116.8,198.1,116.2,198.5L116.2,198.5z M125.4,207.6c-0.2,0.3-0.6,0.4-0.9,0.4
		c-0.3,0-0.5-0.1-0.8-0.3c-1.7-1.4-3.4-2.9-4.9-4.4c-0.5-0.5-0.4-1.2,0-1.7c0.5-0.5,1.2-0.4,1.7,0c1.4,1.5,3,2.9,4.7,4.3
		C125.8,206.3,125.8,207,125.4,207.6L125.4,207.6z M136.7,142c-0.4,0.4-0.8,0.6-1.3,0.6c-0.4,0-0.8-0.1-1.2-0.4
		c-2.7-2.4-4.8-4-6.9-5.1c0.1,0.4,0.1,0.7,0.1,1.1c0.1,2-0.6,4-2,5.5c-1.4,1.5-3.2,2.4-5.3,2.5c-0.1,0-0.2,0-0.4,0
		c-4,0-7.4-3.2-7.6-7.3c0-1,0.1-2,0.4-2.9c-2.1,0.8-3.9,2.1-5.8,3.4c-0.7,0.5-1.5,1-2.2,1.5c-0.8,0.5-1.9,0.3-2.5-0.5
		c-0.5-0.8-0.3-1.9,0.5-2.5c0.7-0.5,1.4-1,2.1-1.4c3.3-2.3,7-4.9,12.7-4.9h0c2.1,0,4,0.1,5.7,0.4c0.1,0,0.3,0,0.4,0.1
		c4.4,0.9,7.9,3,12.9,7.5C137.3,140.1,137.4,141.3,136.7,142L136.7,142z M142.7,120.1l1.4,4.5c0.2,0.6-0.2,1.3-0.8,1.5
		c-0.1,0-0.2,0.1-0.3,0.1c-0.5,0-1-0.3-1.1-0.8l-1.4-4.5c-0.2-0.6,0.2-1.3,0.8-1.5C141.9,119.1,142.5,119.5,142.7,120.1L142.7,120.1
		z M137.8,107.9c0.6-0.2,1.3,0.2,1.5,0.8l1.7,5.7c0.2,0.6-0.2,1.3-0.8,1.5c-0.1,0-0.2,0.1-0.3,0.1c-0.5,0-1-0.3-1.1-0.8l-1.7-5.7
		C136.8,108.8,137.1,108.1,137.8,107.9L137.8,107.9z M98.1,125.8c4.9-3.2,7.8-5,12.2-7c5.8-2.6,16-0.6,26,5c0.9,0.5,1.2,1.6,0.7,2.4
		c-0.5,0.9-1.6,1.2-2.4,0.7c-8.9-5-18.1-7-22.8-4.9c-4.1,1.8-6.8,3.5-11.7,6.7c-0.3,0.2-0.6,0.3-1,0.3c-0.6,0-1.2-0.3-1.5-0.8
		C97,127.5,97.2,126.4,98.1,125.8z"/>
	<path class="st0" d="M151.8,205.5c6.7-0.5,10.7-3.8,14.2-7c-3.7,0.3-8.9,0.7-14.2,0.7V205.5z"/>
	<path class="st0" d="M148.2,199.2c-5.1-0.1-10.1-0.4-13.7-0.7c3.4,3.1,7.3,6.4,13.7,7V199.2z"/>
	<path class="st0" d="M148.2,190.2c-4.2-2.6-7.8-0.2-12.6,3.8c-0.4,0.3-0.7,0.6-1.1,0.9c3.6,0.3,8.6,0.7,13.7,0.7L148.2,190.2z"/>
	<path class="st0" d="M164.9,194c-5-4.1-8.7-6.6-13.1-3.5v5.1c5.3-0.1,10.5-0.4,14.2-0.7C165.6,194.6,165.2,194.3,164.9,194z"/>
	<path class="st0" d="M151.8,20.2c0-1-0.8-1.8-1.8-1.8s-1.8,0.8-1.8,1.8v7.8l3.6,0L151.8,20.2L151.8,20.2z"/>
</g>
</svg>
