<?xml version="1.0" encoding="utf-8"?>
<!-- Generator: Adobe Illustrator 25.0.1, SVG Export Plug-In . SVG Version: 6.00 Build 0)  -->
<svg version="1.1" id="Layer_1" xmlns="http://www.w3.org/2000/svg" xmlns:xlink="http://www.w3.org/1999/xlink" x="0px" y="0px"
	 viewBox="0 0 162 227.7" style="enable-background:new 0 0 162 227.7;" xml:space="preserve">
<style type="text/css">
	.st0{fill:#606060;}
	.st1{fill:#FFFFFF;}
	.st2{fill:none;stroke:#000000;stroke-width:0.5;stroke-linecap:round;stroke-linejoin:round;}
</style>
<g id="XMLID_1_">
	<g>
		<g id="XMLID_2_">
			<g>
				<path class="st0" d="M160.6,35.2c0,0.1,0,0.3-0.1,0.4c0,0.1,0,0.2-0.1,0.2c-0.5,1.5-2.4,2.5-3.7,1.4l1.5-1.6
					c0.1-0.1,0.2-0.2,0.3-0.3c0,0,0,0,0,0c0.5-0.3,1-0.4,1.5-0.3c0,0,0.1,0,0.1,0c0.1,0,0.1,0,0.2,0.1c0,0,0,0,0,0
					C160.5,35.1,160.6,35.1,160.6,35.2C160.6,35.1,160.6,35.1,160.6,35.2z"/>
				<path class="st0" d="M160.3,35c0.1,0,0.1,0,0.2,0c0,0,0,0,0,0C160.4,35.1,160.4,35,160.3,35z"/>
				<path class="st0" d="M160.5,35.8c-0.5,1.6-2.3,2.7-3.8,1.5l0.1-0.1C158.1,38.3,160,37.3,160.5,35.8z"/>
				<path class="st0" d="M149.4,23.9c2.8-2.7,8.6,7.7,10.4,8.8c0.6,0.7,0.8,1.5,0.7,2.4c-0.1,0-0.1,0-0.2,0c0,0-0.1,0-0.1,0
					c-0.5-0.2-1.1,0-1.5,0.3c0,0,0,0,0,0c-0.8,0.5-1.5,1.3-2,1.9c-0.2-0.3-0.9-1-1.7-1.9c-0.2-0.2-0.4-0.5-0.6-0.7
					c-0.3-0.4-0.7-0.8-1.1-1.2c-0.6-0.7-1.2-1.4-1.8-2.1c0,0,0,0,0,0c-1.5-1.8-2.8-3.5-3.1-4.3c0-0.1,0-0.1,0-0.2
					C149.1,26.1,149.9,25,149.4,23.9z"/>
				<path class="st0" d="M145.8,23.1c1.1-1.1,3.1-0.7,3.6,0.8c-0.8,0.5-1.1,1.6-1.1,2.5c0,0,0,0.1,0,0.2c0,0.1,0,0.1,0,0.2
					l-20.1,20.1l-0.9,0.9c-0.8,0.8-1.6,1.6-2.2,2.2c0,0-0.1,0.1-0.1,0.1c0,0,0,0-0.1,0.1s-0.1,0.1-0.1,0.1c-0.1,0-0.1,0.1-0.2,0.2
					c-0.2,0.1-0.3,0.3-0.6,0.5c0,0,0,0,0,0c-0.1,0.1-0.1,0.1-0.2,0.2c0,0,0,0,0,0c-0.1,0.1-0.1,0.1-0.2,0.2
					c-0.2,0.2-0.4,0.4-0.6,0.6l-2-2l-0.1-0.1c0.6-0.6,0.9-1.5,0.5-2.4c0,0,0,0,0-0.1L145.8,23.1z"/>
				<path class="st0" d="M149.4,23.9c0.5,1.1-0.2,2.2-1.1,2.9c0-0.1,0-0.1,0-0.2c0,0,0-0.1,0-0.2C148.3,25.5,148.7,24.5,149.4,23.9z
					"/>
				<path class="st0" d="M148.3,26.8C148.3,26.8,148.3,26.9,148.3,26.8c-0.6,0.7-12.9,12.9-20.1,20.1L148.3,26.8z"/>
				<path class="st0" d="M148.3,26.4c0-1,0.3-2,1.1-2.5C148.7,24.5,148.3,25.5,148.3,26.4z"/>
				<path class="st0" d="M145,47.6C145,47.7,145,47.7,145,47.6c-0.1,1.1-1,2-2.1,2.2c-0.1,0-0.1,0-0.1,0c-0.1,0-0.3,0-0.4,0
					c-0.1,0-0.3-0.1-0.4-0.1c-0.1,0-0.1,0-0.1-0.1c-0.2-0.1-0.3-0.2-0.5-0.4c-1.1-1.5-6.1-4.4-3.6-6.7c0.2-0.2,0.4-0.4,0.6-0.5
					c0,0,0,0,0,0c0.2-0.1,0.5-0.2,0.8-0.2c0,0,0,0,0.1,0c0.4,0,0.9,0.2,1.3,0.5c0,0,0,0,0,0c0.1,0.1,0.1,0.1,0.1,0.2
					c0.4,0.5,1.2,1.2,2.1,2c0,0,0,0,0,0c0.5,0.6,1,1.2,1.4,1.5C144.6,46.6,144.9,47.1,145,47.6z"/>
				<path class="st0" d="M144.3,46.1c0.5,0.5,0.7,1,0.7,1.5C144.9,47.1,144.6,46.6,144.3,46.1C144.2,46.1,144.3,46.1,144.3,46.1z"/>
				<path class="st0" d="M142.8,49.8c-0.1,0-0.3,0-0.4,0C142.5,49.8,142.6,49.8,142.8,49.8z"/>
				<path class="st0" d="M141.9,49.7c0.1,0.1,0.3,0.1,0.4,0.1C142.2,49.8,142.1,49.7,141.9,49.7z"/>
				<path class="st0" d="M140.6,42.3c0.8,0.5,1.6,1.4,2.2,2.2c-0.9-0.8-1.7-1.5-2.1-2C140.6,42.5,140.6,42.4,140.6,42.3z"/>
				<path class="st0" d="M138.4,42c0.3-0.1,0.5-0.2,0.8-0.2C138.9,41.8,138.6,41.9,138.4,42z"/>
				<path class="st0" d="M134.1,56.1c0.2,0.2,0.3,0.3,0.4,0.5C134.4,56.5,134.3,56.3,134.1,56.1z"/>
				<path class="st0" d="M135.5,58.3c0,1.1-0.9,2.2-2.1,2.1L135.5,58.3L135.5,58.3z"/>
				<path class="st0" d="M122.8,77.3l-2.2,0.3c0,0.5,0.1,1.1,0.2,1.6c-0.8,1-1.6,1.6-2.3,1.8c-0.2,0.1-0.5,0.1-0.8,0.1
					c-0.1,0-0.2,0-0.3,0c-0.5-0.1-0.9-0.2-1.3-0.4c-0.4-0.2-0.9-0.5-1.3-0.9c-0.2-0.2-0.4-0.4-0.6-0.5c-0.1-0.1-0.2-0.2-0.3-0.3
					c-0.2-0.2-0.4-0.4-0.6-0.6c-0.1-0.1-0.2-0.2-0.3-0.3c-0.1-0.1-0.2-0.2-0.3-0.3l-0.1-0.1l-7.3-7.3c-1.2-1.4-1.7-2.5-1.8-3.5
					c0,0,0,0,0,0c0.1-0.8,0.4-1.5,1-2.1l8.4-8.4c0.9-0.9,1.9-1.9,3-3l2.6-2.6c0.8,0.3,1.7,0.1,2.3-0.4c0.1,0,0.1-0.1,0.2-0.2l2,2
					c-3.8,3.8-11.6,11.7-14.1,14.2c-0.3,0.3-0.6,0.6-0.7,0.7l9.3,9.3l15.9-15.9c1.1,0.1,2.3-1,2.2-2.1l21.1-21.1c0,0,0,0,0.1,0
					l-0.1,0.1c1.5,1.2,3.3,0.1,3.8-1.5c0-0.1,0.1-0.2,0.1-0.2c0-0.1,0.1-0.3,0.1-0.4c0,0,0,0,0-0.1c0,0,0-0.1,0-0.1
					c0.3,0.2,0.5,0.4,0.8,0.6C166.6,37.2,122.6,75.9,122.8,77.3z"/>
				<path class="st0" d="M135.5,58.3l-2.1,2.1c0,0,0,0-0.1,0L135.5,58.3z"/>
				<path class="st0" d="M133.4,55.3c-0.1-0.1-0.2-0.2-0.3-0.3C133.2,55.1,133.3,55.2,133.4,55.3z"/>
				<path class="st0" d="M133.1,55c-0.1-0.1-0.2-0.2-0.3-0.3C132.9,54.8,133,54.9,133.1,55z"/>
				<path class="st0" d="M127.3,47.8l0.9-0.9C127.9,47.2,127.6,47.5,127.3,47.8z"/>
				<path class="st0" d="M129.1,51.1c0.1,0.1,0.2,0.3,0.4,0.5c0.1,0,0.1,0.1,0.2,0.2c0.1,0.1,0.2,0.2,0.4,0.4c0,0,0,0,0,0
					c0.1,0.1,0.3,0.3,0.5,0.4c0,0,0,0,0,0c0.2,0.2,0.3,0.3,0.5,0.5c0,0,0,0,0,0c0.3,0.2,0.5,0.5,0.8,0.8c0.3,0.3,0.6,0.5,0.9,0.8
					c0.1,0.1,0.2,0.2,0.3,0.3c0.1,0.1,0.2,0.2,0.3,0.3c0.3,0.3,0.5,0.5,0.8,0.8c0.2,0.2,0.3,0.3,0.4,0.5c0.6,0.7,1,1.3,0.9,1.7l0,0
					l-2.2,2.1c0.1,0,0.1,0,0.1,0c-0.3,0.1-0.9-0.3-1.7-0.9c-0.2-0.2-0.5-0.4-0.8-0.7c-0.1-0.1-0.2-0.2-0.3-0.3
					c-0.2-0.2-0.4-0.3-0.6-0.5c-0.1-0.1-0.2-0.2-0.3-0.3c-0.1-0.1-0.2-0.2-0.3-0.3c-0.1-0.1-0.2-0.2-0.3-0.3
					c-1.4-1.4-2.7-2.9-3.1-3.2c-0.8-0.8-0.8-2.1,0-2.9C127,50.3,128.3,50.3,129.1,51.1z"/>
				<path class="st1" d="M144.3,49.2c0.6-0.5,0.7-1,0.7-1.5c0,0,0,0,0,0c0-0.5-0.2-1.1-0.7-1.5c0,0-0.1,0-0.1-0.1
					c-0.4-0.5-0.9-1-1.4-1.5c0,0,0,0,0,0c-0.7-0.8-1.5-1.6-2.2-2.2c0,0,0,0,0,0c-0.4-0.3-0.9-0.5-1.3-0.5c0,0,0,0-0.1,0
					c-0.3,0-0.5,0-0.8,0.2c0,0,0,0,0,0c-0.3,0.1-0.5,0.3-0.7,0.5c-2.5,2.2,2.5,5.2,3.6,6.7c0.2,0.2,0.4,0.3,0.6,0.4
					c0,0,0.1,0,0.1,0.1c0.1,0.1,0.3,0.1,0.4,0.1c0.1,0,0.3,0.1,0.4,0c0.1,0,0.1,0,0.1,0C143.4,49.8,143.9,49.6,144.3,49.2z
					 M126.2,51.1l-1.1-1.1c0.6-0.6,1.3-1.3,2.2-2.2c0.3-0.3,0.6-0.6,0.9-0.9c7.2-7.2,19.5-19.4,20.1-20c0,0,0-0.1,0-0.1l0,0
					c0,0.1,0,0.1,0,0.2c0.2,0.8,1.5,2.5,3.1,4.3c0,0,0,0,0,0c0.6,0.7,1.2,1.4,1.8,2.1c0.4,0.4,0.7,0.8,1.1,1.2
					c0.2,0.2,0.4,0.5,0.6,0.7c0.8,0.9,1.5,1.6,1.7,1.9l-21.1,21.1c0.1-0.3-0.3-1-0.9-1.7c-0.1-0.2-0.3-0.3-0.4-0.5
					c-0.2-0.3-0.5-0.5-0.8-0.8c-0.1-0.1-0.2-0.2-0.3-0.3c-0.1-0.1-0.2-0.2-0.3-0.3c-0.3-0.3-0.6-0.6-0.9-0.8
					c-0.3-0.3-0.6-0.5-0.8-0.8c0,0,0,0,0,0c-0.2-0.2-0.3-0.3-0.5-0.5c0,0,0,0,0,0c-0.2-0.2-0.3-0.3-0.5-0.4c0,0,0,0,0,0
					c-0.1-0.1-0.3-0.3-0.4-0.4c-0.1-0.1-0.1-0.1-0.2-0.2c-0.2-0.2-0.4-0.4-0.4-0.5C128.3,50.3,127,50.3,126.2,51.1z"/>
				<path class="st0" d="M126,88.8c0.1,7.5-0.8,14.7-2.6,21.6c-0.5-0.2-1.1-0.3-1.6-0.2h0c-1-0.1-2.1-0.1-2.9-0.2c0-0.1,0-0.1,0-0.2
					c0.3-0.9,0.5-1.9,0.8-3.1c0-0.1,0.1-0.3,0.1-0.4c0.8-3.5,1.3-7.2,1.5-11.5c0-0.3,0-0.6,0.1-0.9c0.3-5,0.2-10.1-0.5-14.2
					c0-0.1,0-0.2,0-0.3l2-1.9L125,77C125.6,80.7,125.9,84.6,126,88.8z"/>
				<path class="st0" d="M125.1,50c0,0-0.1,0.1-0.1,0.1C125,50.1,125.1,50,125.1,50z"/>
				<path class="st0" d="M124.9,50.2c0,0-0.1,0.1-0.1,0.1C124.8,50.2,124.9,50.2,124.9,50.2z"/>
				<path class="st0" d="M124.4,157.8c2.8,0.7,1.4,5.1-1.2,4.2C120.5,161.2,121.7,157,124.4,157.8z"/>
				<path class="st0" d="M125,67.4c0-0.4-0.2-0.8-0.5-1.2C124.9,66.5,125,66.9,125,67.4z"/>
				<path class="st1" d="M121.6,68.9c1,1,2.2,0.6,2.9-0.2c0,0,0,0,0-0.1c0.4-0.4,0.5-0.8,0.5-1.3c0,0,0,0,0,0c0-0.4-0.1-0.8-0.5-1.2
					c0,0,0,0,0,0c-0.7-1-1.8-1.9-2.6-2.7c-0.1,0-0.1-0.1-0.2-0.1c-0.3-0.3-0.5-0.5-0.7-0.7c-0.8-0.8-2.1-0.8-2.9,0
					c-0.8,0.8-0.8,2.1,0,2.8c0,0,0,0,0,0c0.6,0.9,1.6,1.8,2.5,2.5c0.1,0.1,0.2,0.2,0.3,0.3C121.2,68.5,121.4,68.7,121.6,68.9z
					 M133.4,60.4l-15.9,15.9l-9.3-9.3c0.1-0.1,0.4-0.4,0.7-0.7l14.2-14.1l-0.1-0.1c0.2-0.2,0.4-0.4,0.6-0.6c0.1-0.1,0.1-0.1,0.2-0.2
					c0,0,0,0,0,0c0.1-0.1,0.1-0.1,0.2-0.2c0,0,0,0,0,0c0.2-0.2,0.3-0.3,0.6-0.5c0.1-0.1,0.1-0.2,0.2-0.2c0,0,0.1-0.1,0.1-0.1
					c0,0,0.1,0,0.1-0.1c0,0,0.1-0.1,0.1-0.1l1.1,1.1c-0.8,0.8-0.8,2.1,0,2.9c0.4,0.3,1.7,1.7,3.1,3.2c0.1,0.1,0.2,0.2,0.3,0.3
					c0.1,0.1,0.2,0.2,0.3,0.3c0.1,0.1,0.2,0.2,0.3,0.3c0.2,0.2,0.4,0.4,0.6,0.5c0.1,0.1,0.2,0.2,0.3,0.3c0.3,0.2,0.5,0.5,0.8,0.7
					C132.5,60.1,133.1,60.5,133.4,60.4z"/>
				<path class="st0" d="M124.6,50.5c-0.2,0.2-0.4,0.4-0.6,0.5C124.3,50.8,124.4,50.6,124.6,50.5z"/>
				<path class="st0" d="M124,51.1c-0.1,0.1-0.1,0.1-0.2,0.2C123.9,51.2,124,51.1,124,51.1z"/>
				<path class="st0" d="M123.8,51.3c-0.1,0.1-0.1,0.1-0.2,0.2C123.7,51.4,123.7,51.4,123.8,51.3z"/>
				<path class="st0" d="M118.3,147.6c0-1.1,0-3.5,0-4.6c8.5,0.8,10.4-22.1,5.2-27.3c0-0.1-0.1-0.1-0.1-0.1
					c-0.4-0.4-0.8-0.6-1.2-0.8c0.2-0.6,0.4-1.3,0.6-2c0.2-0.8,0.4-1.6,0.6-2.3v0C133.1,111.9,133.2,148.1,118.3,147.6z"/>
				<path class="st0" d="M122.8,112.8c0.2-0.8,0.3-1.6,0.6-2.3C123.2,111.2,123,112,122.8,112.8z"/>
				<path class="st0" d="M121.8,110.2c0.5-0.1,1.1,0,1.6,0.2C123,110.3,122.4,110.2,121.8,110.2z"/>
				<path class="st0" d="M123.1,52.2l-14.2,14.1c2.5-2.5,10.3-10.4,14.1-14.2L123.1,52.2z"/>
				<path class="st0" d="M122.8,77.3l-2,1.9c0-0.5-0.1-1.1-0.2-1.6L122.8,77.3z"/>
				<path class="st0" d="M122.2,114.8c0.4,0.2,0.8,0.4,1.2,0.8C123,115.2,122.6,114.9,122.2,114.8
					C122.2,114.8,122.2,114.8,122.2,114.8z"/>
				<path class="st0" d="M122.1,114.7C122.2,114.7,122.2,114.7,122.1,114.7C122.2,114.8,122.2,114.8,122.1,114.7
					C122.2,114.8,122.1,114.8,122.1,114.7C122.1,114.7,122.1,114.7,122.1,114.7z"/>
				<path class="st0" d="M121.9,165.5c2.6,1.1,0.7,5.2-1.8,4C117.5,168.3,119.3,164.5,121.9,165.5z"/>
				<path class="st0" d="M122.2,114.8c-2.7,7.6-4.4,10.7-5.8,10.7c1.4-0.2,3.1-3.3,5.7-10.7C122.1,114.8,122.1,114.8,122.2,114.8
					C122.1,114.8,122.1,114.8,122.2,114.8C122.1,114.8,122.2,114.8,122.2,114.8z"/>
				<path class="st0" d="M122.1,114.8C122.1,114.8,122.1,114.8,122.1,114.8C122.1,114.8,122.1,114.8,122.1,114.8
					C122.1,114.8,122.1,114.8,122.1,114.8C122.1,114.8,122.1,114.8,122.1,114.8z"/>
				<path class="st0" d="M123.4,110.4c-0.3,0.8-0.4,1.6-0.6,2.3c-0.2,0.7-0.4,1.3-0.7,1.9c0,0,0,0,0,0c0,0,0,0,0,0
					c-0.1,0-0.2,0-0.4,0v-4.4l-0.1,0v-0.1c0.1,0,0.1,0,0.2,0h0C122.4,110.2,123,110.3,123.4,110.4L123.4,110.4z"/>
				<path class="st0" d="M122.1,114.7C122.1,114.7,122.1,114.7,122.1,114.7C122.1,114.7,122.1,114.7,122.1,114.7
					C122.1,114.8,122.1,114.8,122.1,114.7L122.1,114.7C122.1,114.7,122.1,114.7,122.1,114.7z"/>
				<path class="st0" d="M121.7,114.7c0.2,0,0.2,0,0.4,0v0c0,0,0,0,0,0C121.9,114.8,121.8,114.7,121.7,114.7l-0.1-4.4l0.1,0V114.7z"
					/>
				<path class="st0" d="M120.9,68.2c1.1,1,2.4,1.7,3.5,0.6c0,0,0.1-0.1,0.1-0.1c-0.7,0.8-1.9,1.2-2.9,0.2
					C121.4,68.7,121.2,68.5,120.9,68.2z"/>
				<path class="st0" d="M120.9,50c0.7-0.7,0.8-1.5,0.4-2.3l0.1-0.1C121.9,48.5,121.6,49.4,120.9,50L120.9,50z"/>
				<path class="st0" d="M121.3,47.7C121.3,47.7,121.3,47.6,121.3,47.7l0-0.1C121.4,47.6,121.4,47.6,121.3,47.7L121.3,47.7z"/>
				<path class="st0" d="M118.3,62.8c1.1-1.2,2.3-0.5,3.5,0.5c0.1,0,0.1,0.1,0.2,0.1c1,0.9,1.8,2.1,2.5,2.5c0,0,0.1,0.1,0.1,0.1
					c0,0,0,0,0,0c0.3,0.4,0.5,0.8,0.5,1.2c0,0,0,0,0,0c0,0.5-0.2,0.9-0.5,1.3c0,0,0,0,0,0.1c0,0-0.1,0.1-0.1,0.1
					c-1.1,1.1-2.3,0.4-3.5-0.6c-0.1-0.1-0.2-0.2-0.3-0.3c-1-0.9-1.8-2.1-2.5-2.5c0,0,0,0,0,0C117.6,64.5,117.4,63.6,118.3,62.8z"/>
				<path class="st0" d="M102.3,90.7c0.2-0.4,3.2-2.1,3.6-2.4c5.7,7.9,9.3,20.2,11.1,27.9c0.7-2,1.3-3.9,1.9-6.1l2.7,0.2v4.4
					c0.2,0,0.3,0.1,0.5,0.1c-2.6,7.4-4.3,10.5-5.7,10.7c0,0,0,0-0.1,0C112.4,125.5,111.4,102.5,102.3,90.7z"/>
				<path class="st0" d="M120.8,79.6c0-0.1,0-0.2,0-0.3l0,0C120.8,79.4,120.8,79.5,120.8,79.6z"/>
				<path class="st0" d="M120.6,77.6c0.1,0.5,0.2,1.1,0.2,1.6C120.7,78.7,120.6,78.1,120.6,77.6z"/>
				<path class="st0" d="M121.3,94.8c-0.2,4.4-0.7,8-1.5,11.5C120.5,103.1,121,99,121.3,94.8z"/>
				<path class="st0" d="M118.5,50.6l2.7-2.8l0.1-0.1c0.4,0.8,0.2,1.7-0.4,2.3l0,0C120.3,50.6,119.3,50.9,118.5,50.6z"/>
				<path class="st0" d="M118.4,172.9c2.5,1.3,0.2,5.3-2.2,3.8C113.8,175.3,116,171.5,118.4,172.9z"/>
				<path class="st0" d="M120.7,67.9c-0.8-0.7-1.8-1.6-2.5-2.5C118.8,65.9,119.7,67,120.7,67.9z"/>
				<path class="st0" d="M118.2,143c1.2,21.4-15,41.1-29.3,53.8c0-0.2,0-0.4-0.1-0.6c-0.2-1.5-1-2.7-2.6-2.5
					c15-12.6,27.7-30.9,28.4-51.1c0-1.2,0.1-2.3,0-3.5c0-0.6,0-1.1-0.1-1.7c-0.1-1.2-0.2-2.3-0.4-3.5c0-0.1,0-0.2,0-0.2
					c0.2-2.3,3.7-2.3,4,0c0,0.1,0,0.2,0,0.2v9.1V143z"/>
				<path class="st0" d="M118.5,81c-0.3,0.1-0.5,0.1-0.8,0.1C118,81.1,118.2,81,118.5,81z"/>
				<path class="st0" d="M112.9,56.3l3-3C114.8,54.4,113.8,55.4,112.9,56.3z"/>
				<path class="st0" d="M114.6,137.3c0,0.6,0.1,1.1,0.1,1.7C114.6,138.5,114.6,137.9,114.6,137.3z"/>
				<path class="st0" d="M114.2,179.8c2.4,1.7-0.3,5.1-2.6,3.5C109.2,181.6,111.9,178.2,114.2,179.8z"/>
				<path class="st0" d="M114.2,133.8c0.2,1.2,0.3,2.3,0.4,3.5C114.5,136.2,114.4,135,114.2,133.8
					C114.2,133.9,114.2,133.8,114.2,133.8z"/>
				<path class="st1" d="M102.8,90.1l9.7-9.6c0.7-0.7,0.7-1.9,0-2.6l0.2-0.2c0.1,0.1,0.2,0.2,0.3,0.3c0.1,0.1,0.2,0.2,0.3,0.3
					c0.2,0.2,0.4,0.4,0.6,0.6c0.1,0.1,0.2,0.2,0.3,0.3c0.2,0.2,0.4,0.4,0.6,0.5c0.4,0.3,0.8,0.6,1.3,0.9c0.4,0.2,0.9,0.4,1.3,0.4
					c0.1,0,0.2,0,0.3,0c0.2,0,0.5,0,0.8-0.1c0.8-0.2,1.5-0.8,2.3-1.8c0,0,0,0.1,0,0.1l0,0c0,0.1,0,0.2,0,0.3c0.4,3,0.6,5.9,0.7,9.3
					c0,1.8-0.1,3.4-0.1,5c0,0.3,0,0.6-0.1,0.9c-0.3,4.2-0.8,8.2-1.5,11.5c0,0.1-0.1,0.3-0.1,0.4c-0.2,1-0.5,2-0.8,3.1
					c0,0.1,0,0.1,0,0.2c-0.5,2-1.2,4-1.9,6.1c-1.8-7.6-5.4-20-11.1-27.9L102.8,90.1z"/>
				<path class="st0" d="M109.4,186.4c2.2,1.8-0.6,5.2-2.8,3.4C104.4,188,107.3,184.6,109.4,186.4z"/>
				<path class="st0" d="M105.9,113.4c0.9,0.9,0.8,2,0.2,2.8c0.5-1.1,0.2-2.3-0.9-3.3C105.6,113.2,105.8,113.3,105.9,113.4z"/>
				<path class="st0" d="M105.2,112.9c1.1,1.1,1.4,2.3,0.9,3.3c-0.1,0.1-0.2,0.2-0.3,0.3c-1,0.4-2,0.3-3,0c0,0,0,0,0,0
					c-0.5-0.4-3.4-2.4-10-2.2c-4.2,0-10.2,1.1-18.9,4.8c0,0,0,0,0,0c-0.8,0-1.6-0.5-1.9-1.3c-0.5-1.1,0.1-2.4,1.2-2.9
					c0.5-0.2,1.1-0.4,1.6-0.7c0.1,0,0.1,0,0.2-0.1c7.5-2.8,13.7-4,18.5-4.2C100.2,109.9,103.8,111.9,105.2,112.9
					C105.2,112.9,105.2,112.9,105.2,112.9z"/>
				<path class="st0" d="M105.3,70.3l-0.8-0.8c-0.8-0.7-1.1-1.7-1-2.7C103.6,67.8,104.1,68.9,105.3,70.3z"/>
				<path class="st0" d="M102.8,116.6c1,0.3,2,0.4,3,0C105.1,117.3,103.9,117.6,102.8,116.6C102.9,116.6,102.9,116.6,102.8,116.6z"
					/>
				<path class="st0" d="M104.1,192.6c2.1,1.9-0.9,5.2-3,3.2C98.9,193.9,102.2,190.5,104.1,192.6z"/>
				<path class="st0" d="M103.6,103c0.2,0.4,0.2,0.8,0.2,1.3c0-0.1,0-0.2,0-0.3C103.8,103.6,103.8,103.3,103.6,103z"/>
				<path class="st0" d="M103.8,104c0,0.1,0,0.2,0,0.3c-0.1,0.8-0.7,1.5-1.4,1.8c-0.8,0.2-1.8,0.1-2.3-0.5c0-0.1-0.1-0.1-0.1-0.2
					c-0.1-0.1-0.1-0.2-0.2-0.3c0,0,0,0,0-0.1c-0.1-0.3-0.2-0.6-0.2-1c0-0.1,0-0.2,0-0.3c0.1-0.8,0.7-1.5,1.4-1.8
					c0.8-0.2,1.7-0.1,2.3,0.5c0,0,0.1,0.1,0.1,0.1c0.1,0,0.1,0.1,0.1,0.2c0.1,0.1,0.1,0.2,0.1,0.2
					C103.8,103.3,103.8,103.6,103.8,104z"/>
				<path class="st0" d="M103.2,102.4C103.2,102.4,103.2,102.4,103.2,102.4c-0.5-0.5-1.5-0.7-2.2-0.5
					C101.6,101.6,102.5,101.7,103.2,102.4z"/>
				<path class="st0" d="M102.8,90l-0.1,0.1l-0.5,0.3c0,0,0,0,0,0L102.8,90z"/>
				<path class="st0" d="M102.7,90.1l-0.4,0.4c0-0.1,0-0.1-0.1-0.1L102.7,90.1z"/>
				<path class="st0" d="M101.8,125c0.5,1,0.4,2.1-0.1,3.1c-1.9,2.1-3.8,3.7-5.7,4.8c0,0,0,0,0,0c-2,1-4.1,1.8-5.7,2.1
					c-0.8,0.1-1.5,0.2-2.3,0.2c-0.1,0-0.2,0-0.3,0c-1.3-0.1-3.9-0.5-6.3-1.4c-1.8-0.8-3.5-1.8-5.3-3.2c0,0,0,0,0,0
					c-0.9-1-1.2-2.2-0.7-3.5c0.4-0.5,0.9-0.7,1.5-0.8c0.2,0,0.4,0,0.5,0c0.3,0.1,0.7,0.2,1,0.5c1.6,1.3,3.2,2.3,4.7,2.9
					c0.1,0.1,0.2,0.1,0.2,0.1c3.9,1.8,6.8,1.3,9.1,0.1c2-0.9,3.9-2.3,5.8-4.4c1.1-0.7,2.2-1.1,3.4-0.8
					C101.6,124.8,101.7,124.9,101.8,125z"/>
				<path class="st0" d="M100,105.5c0.6,0.6,1.5,0.8,2.3,0.5C101.7,106.4,100.8,106.3,100,105.5C100.1,105.6,100.1,105.5,100,105.5z
					"/>
				<path class="st0" d="M101.7,124.8c0,0.1,0.1,0.1,0.1,0.2c-0.1-0.1-0.2-0.2-0.3-0.2C101.6,124.8,101.6,124.8,101.7,124.8z"/>
				<path class="st0" d="M99.5,104c0,0.4,0.1,0.7,0.2,1c-0.2-0.4-0.3-0.8-0.2-1.3C99.5,103.8,99.5,103.9,99.5,104z"/>
				<path class="st0" d="M96,132.9c2-1.2,3.9-2.8,5.7-4.8C100.8,129.9,98.5,131.6,96,132.9z"/>
				<path class="st0" d="M96.2,90.1c0,0,0,0.1,0,0.1C96.2,90.1,96.2,90.1,96.2,90.1C96.2,90.1,96.2,90.1,96.2,90.1z"/>
				<path class="st0" d="M96.2,90.1C96.2,90.1,96.2,90.1,96.2,90.1c0-0.1-0.1-0.1-0.1-0.2C96.1,89.9,96.2,89.9,96.2,90.1
					C96.2,90,96.2,90,96.2,90.1z"/>
				<path class="st0" d="M96.2,90c-0.1-0.1-0.1-0.2-0.2-0.2c0,0,0.1,0,0.1,0.1c0,0,0,0,0,0C96.1,89.9,96.2,90,96.2,90z"/>
				<path class="st0" d="M96,79.8L96,79.8c-0.4,0.6-1.2,0.9-2.1,0.7c-1.2-0.2-2.5-0.4-3.9-0.6c2,0.1,3.9,0,5.8-0.3L96,79.8z"/>
				<path class="st0" d="M95.9,89.6C96,89.6,96,89.7,95.9,89.6C96,89.7,96,89.7,95.9,89.6C95.9,89.6,95.9,89.6,95.9,89.6z"/>
				<path class="st0" d="M89.6,7.4C94.9,12.7,97,21,95.7,32c-1.4-0.4-2.8-0.7-4.2-1.1c1.1-10.8-1.1-17.9-6.6-22.1c0,0,0,0,0,0
					c-0.1-0.1-0.3-0.2-0.4-0.3c-0.3-0.2-0.7-0.5-1-0.7c-4.6-2.9-11.2-4-19.6-3.7c-9.2,0.4-16.1,2.4-20.4,6.3
					c-0.2,0.2-0.4,0.4-0.6,0.6c-0.1,0.1-0.3,0.3-0.4,0.4c-1,1-1.8,2.2-2.4,3.5c-0.1,0.1-0.2,0.3-0.2,0.4c-0.1,0.2-0.2,0.4-0.3,0.6
					c-2,4.4-2.3,10.2-1,17.2c-1.3,0.4-2.7,0.9-3.9,1.6C30.2,12,40.8,0.9,63.9,0C75.7-0.5,84.2,1.9,89.6,7.4z"/>
				<path class="st0" d="M71.1,74.7c10.5,0,28.4-0.2,24.9,5.1l-0.2-0.2C94,79.9,92,80,90,79.9c-2.4-0.3-5-0.5-7.7-0.7
					c-4.2-0.5-8.7-0.9-13.5-0.6c-2.9,0-5.7,0.1-8.5,0.2c0,0-0.1,0-0.2,0c-5,0.1-9.3,0.4-13,1c0,0-0.1,0-0.1,0
					c-5.6,0.7-10,1.7-12.5,2.9c-4.8,2.1-8.2,7.7-10.7,14.2c0,0,0,0,0,0.1c-1.7,4-3.1,8.8-4.5,14.5c0,0.1-0.1,0.3-0.1,0.4
					c-2,7.3-3.5,13.1-5.6,13.1c-0.3,0-0.6-0.1-0.9-0.3c0,0,0,0,0,0c-1.6-1.7-3-6.1-4.8-10.9v-3.5c-0.1,0-0.1,0-0.2,0v-0.1
					c-0.3,0-0.5,0.1-0.8,0.1C-1.2,81.9,7.1,44.1,34.7,35l4.3-0.8l1.1,2.7C11,48.1,1.2,80.4,13.3,115.4c0-0.1,0.1-0.2,0.1-0.3
					c0,0.1,0.1,0.2,0.1,0.4c7.8-32.1,15.2-41.4,50.9-40.9c0.1,0,0.2,0,0.2,0c0,0,0,0,0.1,0c0,0,0.1,0,0.1,0c0.3,0,0.6,0.1,1.1,0.1
					C67.1,74.7,69,74.7,71.1,74.7z"/>
				<path class="st0" d="M95.9,89.6c-0.1-0.1-0.2-0.2-0.3-0.3c0,0,0.1,0,0.1,0C95.8,89.4,95.8,89.5,95.9,89.6z"/>
				<path class="st0" d="M95.5,89.2c0,0,0.1,0.1,0.1,0.1C95.6,89.2,95.5,89.2,95.5,89.2z"/>
				<path class="st0" d="M95.5,89.2C95.5,89.2,95.5,89.2,95.5,89.2C95.5,89.2,95.5,89.2,95.5,89.2L95.5,89.2z"/>
				<path class="st0" d="M95.6,89.3c0.1,0.1,0.2,0.2,0.3,0.3c0,0,0,0,0,0.1c0,0,0,0,0,0l-0.4-0.5c0,0,0,0,0,0
					C95.5,89.2,95.6,89.2,95.6,89.3C95.6,89.3,95.6,89.3,95.6,89.3z"/>
				<path class="st0" d="M95.5,89.2L95.5,89.2L95.5,89.2C95.4,89.2,95.5,89.2,95.5,89.2z"/>
				<path class="st0" d="M96.1,89.9c-0.2-0.2-0.5-0.4-0.7-0.7c-0.1-0.1-0.2-0.2-0.3-0.2c0.1,0.1,0.2,0.1,0.4,0.2l0,0l0.4,0.5
					c0,0,0.1,0.1,0.1,0.1c0.1,0.1,0.2,0.2,0.2,0.3C96.2,89.9,96.1,89.9,96.1,89.9C96.1,89.9,96.1,89.9,96.1,89.9z"/>
				<path class="st0" d="M95.4,89.2c-0.1-0.1-0.2-0.1-0.4-0.2c-0.2-0.1-0.3-0.3-0.5-0.4c0.1,0,0.2,0,0.3,0c0.1,0.1,0.2,0.1,0.3,0.2
					c-0.1-0.1-0.1-0.2-0.3-0.2c-1.1-0.9-1.8-1.6-2.2-2.4c-0.8-2,1-3.6,3.6-5.9l7.9-7.8c2.2-2.4,6.7,4.6,8.2,5.4
					c0.7,0.7,0.7,1.9,0,2.6l-9.6,9.5l-0.6,0.4c0,0,0,0,0,0l-0.1,0.1l0.1,0.1c-2.4,2.6-4.2,1.1-6-0.6c0-0.1-0.1-0.2-0.2-0.3
					c0,0,0-0.1-0.1-0.1c0,0,0,0,0-0.1c-0.1-0.1-0.1-0.2-0.2-0.3c0,0,0,0-0.1,0c0,0,0,0,0,0C95.6,89.2,95.5,89.2,95.4,89.2
					C95.5,89.2,95.5,89.2,95.4,89.2C95.5,89.2,95.4,89.2,95.4,89.2z"/>
				<path class="st0" d="M95.2,88.8c-0.1-0.1-0.2-0.1-0.3-0.2C95.1,88.6,95.1,88.7,95.2,88.8z"/>
				<path class="st0" d="M94.9,88.6c-0.1,0-0.2,0-0.3,0c-1-0.9-1.6-1.6-1.9-2.3C93.1,86.9,93.8,87.7,94.9,88.6z"/>
				<path class="st0" d="M98.1,125.5c-1.9,2.1-3.8,3.6-5.8,4.4C94.7,128.7,96.4,126.7,98.1,125.5z"/>
				<path class="st0" d="M89.2,103c0.2-0.3,0.4-0.6,0.7-0.8c0.1,0,0.1-0.1,0.1-0.1c0.7-0.3,1.5-0.3,2.2,0c0,0,0,0,0,0
					c0.1,0.1,0.2,0.2,0.4,0.3c1.3,1.3,0.4,3.1-0.9,3.7h0c-1.2,0.3-2.8-0.4-2.7-2.1C89,103.6,89,103.3,89.2,103
					C89.2,103,89.2,103,89.2,103z"/>
				<path class="st0" d="M92.5,223.7c0-0.6-0.5-1.3-1.3-1.6c-0.1-0.1-0.1-0.2-0.1-0.2c0.1,0.1,0.2,0.2,0.3,0.2
					C92.2,222.5,92.6,223.1,92.5,223.7z"/>
				<path class="st0" d="M91.2,222.1c0.7,0.2,1.2,0.9,1.3,1.6c0,0.1,0,0.3-0.1,0.4c0-0.4-0.3-0.7-0.7-1.1
					C91.5,222.7,91.4,222.4,91.2,222.1z"/>
				<path class="st0" d="M91.7,223c0.5,0.4,0.7,0.8,0.7,1.1C92.1,223.7,91.9,223.4,91.7,223z"/>
				<path class="st0" d="M91.5,30.9c1.4,0.4,2.8,0.7,4.2,1.1c0,0.1,0,0.2,0,0.2l-4.2-0.4c0.1-0.3,0.1-0.5,0.1-0.8
					C91.6,31,91.5,31,91.5,30.9C91.5,31,91.5,30.9,91.5,30.9z"/>
				<path class="st0" d="M91.6,31c0,0.3,0,0.5-0.1,0.8l-0.1,0c0-0.3,0.1-0.5,0.1-0.8C91.5,31,91.6,31,91.6,31z"/>
				<path class="st0" d="M68.9,32.9c-11.1-0.6-20.7,0.9-28.8,4L39,34.2c-0.1-0.3-0.1-0.6-0.2-0.9C50,29.2,66.7,28,80.9,29.4
					c0.1,0,0.2,0,0.3,0c0.4,0,0.8,0.1,1.2,0.1c0.4,0,0.8,0.1,1.2,0.1c2.7,0.3,5.3,0.8,7.8,1.3c0,0,0,0,0,0c0,0,0.1,0,0.1,0
					c0,0.3-0.1,0.6-0.1,0.8l0.1,0c0,0,0,0.1,0,0.1l4.3,0.4c0-0.1,0-0.2,0-0.2c9.8,2.7,19.2,8,25.4,15.1c0,0.1,0.1,0.2,0.2,0.3
					l-0.1,0.1c0,0,0,0.1,0,0.1l-0.1,0.1l-2.7,2.7c-3.6-3.8-7.5-6.8-11.8-9.2c-0.4-0.2-0.8-0.5-1.3-0.7C95,34.9,82.8,32.9,68.9,32.9z
					"/>
				<path class="st0" d="M91.4,31C91.4,31,91.4,31,91.4,31c-2.4-0.5-5-1-7.8-1.3C86.4,30,89,30.4,91.4,31z"/>
				<path class="st0" d="M92.2,102.1c-0.7-0.3-1.5-0.3-2.2,0C90.7,101.7,91.5,101.6,92.2,102.1z"/>
				<path class="st0" d="M91.1,222c-3.5-6.6-5.2-16.1-6.1-21.7c1.4-1.2,2.7-2.2,3.9-3.3c1,6.3,3.1,21.6,8.9,26.8
					c1.5,1.3,0.6,3.9-1.4,3.9c-1.9-0.2-2.9-2-4-3.5c0.1-0.1,0.1-0.3,0.1-0.5c0.1-0.6-0.3-1.2-1.1-1.6c-0.1,0-0.2-0.1-0.3-0.2
					c0,0.1,0.1,0.2,0.1,0.2c0,0-0.1,0-0.1,0C91.1,222,91,222,91.1,222C91.1,221.9,91.1,222,91.1,222z"/>
				<path class="st0" d="M89.5,105.6c-0.8-0.8-0.8-1.8-0.3-2.6c-0.1,0.3-0.2,0.6-0.2,1c-0.1,1.7,1.5,2.4,2.7,2.1
					C91,106.4,90.2,106.3,89.5,105.6z"/>
				<path class="st0" d="M88,135.2c0.8,0,1.5-0.1,2.3-0.2C89.3,135.2,88.5,135.3,88,135.2z"/>
				<path class="st0" d="M84.6,195.3c0-0.1,0-0.1,0-0.1c0.5-0.5,1-0.9,1.6-1.4c0,0-0.1,0-0.1,0c1.7-0.3,2.5,0.8,2.7,2.4
					c0,0.2,0.1,0.4,0.1,0.6c-1.3,1.1-2.5,2.3-3.9,3.3c0-0.3-0.1-0.7-0.1-1c0-0.1,0-0.2-0.1-0.3c-0.1-1-0.3-2.1-0.2-2.3
					C84.5,196.1,84.5,195.7,84.6,195.3C84.6,195.3,84.6,195.3,84.6,195.3z"/>
				<path class="st0" d="M86.2,193.7c1.6-0.2,2.4,1,2.6,2.5c-0.3-1.5-1.1-2.7-2.7-2.4C86.2,193.8,86.2,193.7,86.2,193.7z"/>
				<path class="st0" d="M86.2,193.7c0,0-0.1,0.1-0.1,0.1c0,0,0,0-0.1,0c0,0-0.1,0-0.1,0c0.1-0.1,0.1-0.1,0.2-0.1
					C86.2,193.7,86.2,193.7,86.2,193.7z"/>
				<path class="st0" d="M84.6,195.2c0.2-0.5,0.6-0.9,1.2-1.4c0,0,0.1,0,0.1,0c0.1,0,0.1,0,0.1,0c0,0,0.1,0,0.1,0
					C85.7,194.3,85.2,194.7,84.6,195.2z"/>
				<path class="st0" d="M85.9,193.8c-0.7,0.4-1,0.9-1.2,1.4c0,0-0.1,0.1-0.1,0.1C84.7,194.5,85.1,194.1,85.9,193.8z"/>
				<path class="st0" d="M85,200.3c0.9,5.6,2.6,15.1,6.1,21.7c0,0,0-0.1-0.1-0.1C87.6,215.3,85.9,205.9,85,200.3L85,200.3z"/>
				<path class="st1" d="M36.9,224.2c4.5-6.5,6.4-17.9,7.4-24.1c2.8,3,6,5.3,9.5,6.8c0.9,0.4,1.8,0.7,2.7,1
					c4.5,1.4,9.2,1.7,13.8,0.7c0.4-0.1,0.9-0.2,1.4-0.3c0.5-0.1,0.9-0.2,1.3-0.4c0.4-0.1,0.9-0.3,1.3-0.5c0,0,0,0,0,0
					c0.9-0.3,1.7-0.7,2.6-1.1c2.5-1.3,4.9-3,7.1-5.1c0.3-0.3,0.7-0.7,1-1.1c0,0,0,0,0.1-0.1c0,0,0,0.1,0,0.1l0,0
					c0.9,5.6,2.6,15,6,21.6c-0.5-0.4-2.9-1.3-7-2c-7.2-1.6-18.5-2.2-32.2,0.7C47.2,221.5,42.2,222.6,36.9,224.2z"/>
				<path class="st0" d="M84.9,200.2c-0.3,0.4-0.7,0.7-1,1.1C84.3,201,84.6,200.6,84.9,200.2z"/>
				<path class="st0" d="M84.7,61.2c0,0.5-0.1,1-0.1,1.6c0.2-1.3,0-2.4-0.6-2.9C84.4,60.2,84.7,60.7,84.7,61.2z"/>
				<path class="st0" d="M84.5,63.1c0-0.1,0-0.2,0-0.3C84.5,62.9,84.5,63,84.5,63.1z"/>
				<path class="st0" d="M84.6,196.5c-0.1,0.2,0.1,1.3,0.2,2.3c-0.3-1.3-0.6-2.5-0.2-3.5c0,0,0,0,0,0
					C84.5,195.7,84.5,196.1,84.6,196.5z"/>
				<path class="st0" d="M45.8,196.1c12,12.3,26.9,12.1,38.8-0.8c-0.3,1,0,2.1,0.2,3.5c0,0.1,0,0.2,0.1,0.3c0.1,0.3,0.1,0.7,0.1,1.1
					c0,0,0,0-0.1,0.1c-0.3,0.4-0.7,0.7-1,1.1c-2.2,2.1-4.6,3.8-7.1,5.1c-0.8,0.4-1.7,0.8-2.6,1.1c0,0,0,0,0,0
					c-0.4,0.2-0.9,0.3-1.3,0.5c-0.4,0.1-0.9,0.3-1.3,0.4c-0.4,0.1-0.9,0.2-1.4,0.3c-4.6,0.9-9.3,0.7-13.8-0.7
					c-0.9-0.3-1.8-0.6-2.7-1c-3.5-1.5-6.8-3.8-9.5-6.8c0.1-1.3,0.5-2.6,0.6-3.7c0-0.2,0-0.4,0-0.6c0-0.2,0-0.4-0.1-0.7
					C45.2,195.5,45.5,195.8,45.8,196.1z"/>
				<path class="st0" d="M82.6,59.4c0.1,0,0.2,0,0.2,0c-0.7,0.1-1.5,0.5-2.4,1.5C80.6,60,81.5,59.4,82.6,59.4z"/>
				<path class="st0" d="M81.7,174.9c0.3-0.9-0.1-1.8-1-2.6c0.1,0.1,0.2,0.1,0.2,0.1C81.8,173,82,174,81.7,174.9z"/>
				<path class="st0" d="M84.4,63.7c-0.7,2.9-2.4,5.8-6,7.8C81.9,69.3,83.8,66.2,84.4,63.7z"/>
				<path class="st0" d="M77,104.9l3.9-3.8C78.9,103.3,77.3,104.9,77,104.9c-0.4,0.5-0.5,0.9-0.5,1.3
					C76.4,105.8,76.6,105.3,77,104.9z"/>
				<path class="st0" d="M81.4,175.5c-0.4,0.5-0.9,0.8-1.6,0.8C80.3,176.2,80.8,176,81.4,175.5z"/>
				<path class="st0" d="M96.2,90.2c-0.2,3-16.3,16.3-16.6,17.3c-1.2,1.2-3,0.2-3.1-1.2c0,0,0-0.1,0-0.1c0-0.4,0.2-0.8,0.5-1.2
					c0.3-0.1,1.9-1.7,3.9-3.9l12.2-11.8c0.6-0.6,1.3-0.6,2-0.3c0.1,0.1,0.2,0.2,0.3,0.2c0.2,0.2,0.4,0.4,0.7,0.7c0,0-0.1,0-0.1-0.1
					c0.1,0.1,0.1,0.2,0.2,0.2C96.2,90.1,96.2,90.1,96.2,90.2z"/>
				<path class="st0" d="M78.4,126.8c1.7,1.3,3.2,2.3,4.6,2.9C81.5,129.1,79.9,128.1,78.4,126.8c-0.4-0.3-0.7-0.4-1.1-0.5
					C77.7,126.4,78.1,126.5,78.4,126.8z"/>
				<path class="st0" d="M76.7,181.5c0.4,1.6-0.4,2.8-1.7,3.6c0,0,0,0,0,0c-2.8,1.6-8.4,2.5-13.3,2.2c0,0,0,0,0,0
					c-2.3-0.3-5-0.8-6.9-1.8c-1.5-0.9-2.3-2.2-2.2-3.9c0.8-0.9,1.9-1,3.2-0.7c3.3,2.1,6.2,2.6,8.8,2.4c2.6,0.2,5.5-0.3,8.8-2.3
					C74.8,180.5,75.9,180.6,76.7,181.5z"/>
				<path class="st0" d="M75,114.3c7.8-3.1,13.8-4.1,18.5-4.2C88.6,110.2,82.5,111.4,75,114.3z"/>
				<path class="st0" d="M81.4,133.8c-2.1-0.8-4.2-1.8-5.3-3.2C77.8,132,79.6,133,81.4,133.8z"/>
				<path class="st0" d="M92.8,114.4c-4.3,0.2-10.2,1.3-18,4.6c-0.3,0.1-0.6,0.2-0.9,0.2C82.7,115.5,88.6,114.4,92.8,114.4z"/>
				<path class="st0" d="M76.8,206.4c-0.8,0.4-1.7,0.8-2.6,1.1C75.1,207.2,76,206.8,76.8,206.4z"/>
				<path class="st0" d="M72.9,208c0.4-0.1,0.9-0.3,1.3-0.5C73.8,207.7,73.4,207.8,72.9,208z"/>
				<path class="st0" d="M96,79.8c3.4-5.3-14.4-5.1-24.9-5.1C81.6,74.7,99.5,74.5,96,79.8C96.1,79.8,96.1,79.8,96,79.8L96,79.8z"/>
				<path class="st0" d="M73.4,106.7c0.3,0.5,0.4,1,0.3,1.4c0-0.1,0-0.1,0-0.2C73.7,107.4,73.6,107,73.4,106.7z"/>
				<path class="st0" d="M73.7,107.9c0,0.1,0,0.2,0,0.2c-0.1,0.7-0.6,1.4-1.3,1.8c-0.7,0.3-1.6,0.2-2.2-0.2c0,0,0,0-0.1,0
					c-0.1-0.1-0.1-0.1-0.2-0.2c-0.2-0.2-0.4-0.5-0.5-0.7c0,0,0,0,0-0.1c-0.1-0.2-0.1-0.5-0.1-0.8c0-0.1,0-0.2,0-0.3
					c0.1-0.8,0.7-1.4,1.4-1.7c0,0,0,0,0,0c0.8-0.2,1.8-0.1,2.3,0.5c0.1,0.1,0.1,0.1,0.2,0.2c0,0,0.1,0.1,0.1,0.1
					C73.6,107,73.7,107.4,73.7,107.9z"/>
				<path class="st0" d="M68.8,78.7c4.8-0.4,9.3,0.1,13.5,0.6c-4.2-0.3-8.6-0.4-13.2-0.4c-3.1-0.1-6-0.1-8.8,0
					C63.1,78.8,65.9,78.7,68.8,78.7z"/>
				<path class="st0" d="M73.4,106.7c0,0-0.1-0.1-0.1-0.1C73.4,106.6,73.4,106.7,73.4,106.7z"/>
				<path class="st0" d="M73.1,106.3C73.1,106.3,73.2,106.3,73.1,106.3c-0.5-0.5-1.5-0.7-2.3-0.5C71.5,105.5,72.4,105.6,73.1,106.3z
					"/>
				<path class="st0" d="M84,219.9c-6.6-1.1-17.6-1.9-32.2,0.7C65.5,217.7,76.8,218.3,84,219.9z"/>
				<path class="st0" d="M71.8,154.9c0.2,1.2-0.2,2.1-0.9,2.8c-1.3,0.9-3.7,1.5-6.1,1.6c-2.5-0.1-5-0.7-6.3-1.6
					c-0.7-0.7-1.1-1.6-0.9-2.8c0.1-0.2,0.2-0.3,0.3-0.5c0.8-0.8,1.7-0.8,2.7-0.5c1.4,1.1,2.8,1.3,4.1,1.1c1.3,0.2,2.6,0,4-1.1
					c1.1-0.2,2-0.2,2.9,0.6C71.7,154.6,71.8,154.8,71.8,154.9z"/>
				<path class="st0" d="M71.8,154.7c0,0.1,0,0.2,0,0.2c-0.1-0.2-0.2-0.3-0.2-0.4C71.7,154.5,71.7,154.6,71.8,154.7z"/>
				<path class="st0" d="M70.2,109.6c0.6,0.4,1.5,0.5,2.2,0.2C71.7,110.2,70.9,110.2,70.2,109.6z"/>
				<path class="st0" d="M70.2,208.7c0.5-0.1,0.9-0.2,1.4-0.3C71.1,208.5,70.7,208.6,70.2,208.7z"/>
				<path class="st1" d="M13.4,115.1C-1.9,70.7,18.6,30.4,69.1,33c13.8,0,26,2,36.4,7.6c0.4,0.2,0.8,0.5,1.3,0.7
					c4.2,2.4,8.1,5.5,11.7,9.3c-0.9,1-1.7,1.9-2.5,2.7l-3,3c-6,5.8-9.4,7.9-9.4,10.5c0,0,0,0,0,0c-0.1,1,0.2,2,1,2.7l0.8,0.8
					c1.4,1.8,3.8,4,7.3,7.3l-0.2,0.2c-9.6-10-6.4-6.2-16.2,2.2l-0.1-0.1l0-0.1c0,0,0,0,0,0c3.4-5.3-14.5-5.1-25-5.1
					c-2.1,0-3.9,0-5.2-0.1c-0.4,0-0.7,0-1-0.1c5.9,0.3,10.3-1,13.4-3c3.6-2.1,5.4-5,6-7.8c0-0.1,0-0.2,0.1-0.3c0-0.1,0-0.2,0.1-0.3
					c0-0.1,0-0.2,0-0.3c0.1-0.5,0.1-1.1,0.1-1.6c0-0.5-0.3-1-0.7-1.4c-0.3-0.3-0.7-0.5-1.2-0.4c-0.1,0-0.2,0-0.2,0
					c-1.1,0-2,0.6-2.2,1.5c0,0-0.1,0.1-0.1,0.1C80,67.7,75,70.9,64.5,71.1c-2.1,0-2.6,1.9-1.5,2.8c0,0,0,0,0,0
					c0.2,0.2,0.5,0.4,0.8,0.5C28.6,74,21.1,83.3,13.4,115.1z"/>
				<path class="st0" d="M69.4,107.6c0,0.1,0,0.2,0,0.3c0,0.3,0,0.5,0.1,0.8C69.4,108.3,69.3,107.9,69.4,107.6z"/>
				<path class="st0" d="M73.4,180.8c-3.2,2-6.2,2.5-8.8,2.3C68.2,182.9,71.2,181.3,73.4,180.8z"/>
				<path class="st0" d="M68.7,153.9c-1.3,1.1-2.7,1.2-4,1.1C66.2,154.8,67.5,154.1,68.7,153.9z"/>
				<path class="st0" d="M70.9,157.7c-1.3,1.2-3.7,1.7-6.1,1.6C67.2,159.2,69.6,158.6,70.9,157.7z"/>
				<path class="st0" d="M75,185.1c-2.8,1.9-8.2,2.3-10.4,2.5c-0.7-0.1-1.8-0.2-2.9-0.3C66.6,187.6,72.2,186.7,75,185.1z"/>
				<path class="st0" d="M64.6,74.5c-0.7,0-1.2-0.2-1.5-0.5c0,0,0,0,0,0c-0.9-1-0.3-2.9,2-2.8c10.3-0.3,15.2-3.5,15.5-10.2
					c0,0,0-0.1,0-0.1c0.9-1,1.8-1.4,2.4-1.5c0.4,0,0.8,0.2,1.2,0.4c0.5,0.6,0.7,1.6,0.6,2.9c0,0.1,0,0.2,0,0.3c0,0.1,0,0.2-0.1,0.3
					c0,0.1,0,0.2-0.1,0.3c-0.6,2.5-2.5,5.6-6,7.8c-3,1.7-7.4,2.9-13.5,3c0,0-0.1,0-0.1,0C64.7,74.6,64.7,74.6,64.6,74.5
					c0,0.1-0.1,0.1-0.2,0.1c-0.2,0-0.3,0-0.5-0.1C64.1,74.5,64.3,74.5,64.6,74.5z"/>
				<path class="st0" d="M64.6,74.5c-0.2,0-0.5,0-0.7,0c-0.4-0.1-0.6-0.3-0.8-0.5C63.4,74.3,63.9,74.5,64.6,74.5z"/>
				<path class="st0" d="M60.6,153.8C60.6,153.8,60.6,153.8,60.6,153.8c-1-0.2-1.9-0.2-2.7,0.6C58.5,153.6,59.5,153.2,60.6,153.8z"
					/>
				<path class="st0" d="M55.6,107.6c0.1-0.7,0.6-1.3,1.2-1.7c0,0,0,0,0.1,0c0.6-0.3,1.4-0.3,2,0c0.1,0.1,0.3,0.2,0.4,0.3
					c1.2,1.2,0.5,2.9-0.7,3.6c0,0,0,0,0,0c-0.7,0.2-1.5,0.1-2.1-0.3c-0.1-0.1-0.1-0.1-0.2-0.2c-0.3-0.3-0.5-0.6-0.6-0.8
					c-0.1-0.2-0.1-0.4-0.1-0.7C55.6,107.8,55.6,107.7,55.6,107.6C55.6,107.7,55.6,107.6,55.6,107.6z"/>
				<path class="st0" d="M56.9,105.9c0.6-0.3,1.3-0.4,2,0C58.3,105.7,57.5,105.7,56.9,105.9z"/>
				<path class="st0" d="M56.5,109.6c0.6,0.4,1.4,0.5,2.1,0.3C57.9,110.2,57.2,110.2,56.5,109.6z"/>
				<path class="st0" d="M57.6,154.9c-0.2,1.2,0.2,2.1,0.9,2.8C57.3,157.1,57.1,155.8,57.6,154.9z"/>
				<path class="st0" d="M57.4,116.2c0.2,0.9-0.1,1.9-0.8,2.4c0,0,0,0,0,0c-0.6,0.4-1.4,0.5-2.1,0.2c-2.4-1-4.6-1.8-6.7-2.5
					c-8-2.6-12.7-2.6-15.8-1.9c0,0,0,0,0,0c-3.9,0.6-5.5,1.9-5.6,1.9l0,0c-0.9,0.2-1.8,0.3-2.9-0.1c-0.1-0.1-0.2-0.2-0.2-0.3
					c-0.5-1.1-0.2-2.3,0.9-3.3c0,0,0,0,0,0c1.5-1,5.5-3.1,12.9-2.8c5,0.4,11.5,1.8,19.2,4.8C56.8,115.2,57.2,115.6,57.4,116.2
					C57.4,116.2,57.4,116.2,57.4,116.2z"/>
				<path class="st0" d="M48.5,172.2c0.3-0.2,7.1-4.7,16.3-0.6c3.5-1.5,6.6-1.8,9.2-1.5c-2.7-0.1-6,0.3-9.4,1.7
					c-9.2-4.1-16,0.4-16.3,0.6c-0.2,0.1-0.3,0.2-0.4,0.4C48,172.6,48.2,172.4,48.5,172.2z"/>
				<path class="st0" d="M56.2,114.9c0.7,0.3,1.1,0.8,1.2,1.3C57.2,115.6,56.8,115.2,56.2,114.9z"/>
				<path class="st0" d="M54.5,118.9c0.7,0.3,1.5,0.2,2.1-0.2C56.1,119.1,55.3,119.3,54.5,118.9z"/>
				<path class="st0" d="M55.6,107.9c0,0.2,0,0.5,0.1,0.7c-0.1-0.3-0.1-0.6-0.1-0.9C55.6,107.7,55.6,107.8,55.6,107.9z"/>
				<path class="st0" d="M54.1,127.2c0,0.1,0,0.1,0.1,0.2c-0.1-0.1-0.1-0.2-0.2-0.2C54,127.2,54.1,127.2,54.1,127.2z"/>
				<path class="st0" d="M53.7,130.2c0,0,0.1-0.1,0.1-0.1c-1.3,2.2-5.1,3.7-8.2,4.5C48.3,133.8,51,132.4,53.7,130.2z"/>
				<path class="st0" d="M52.5,181.5c0.6-1.1,1.9-1.4,3-0.9c0.1,0.1,0.2,0.1,0.3,0.2C54.5,180.5,53.4,180.6,52.5,181.5
					c-0.1,1.7,0.8,3,2.3,3.9C53.2,184.6,52.2,183.3,52.5,181.5z"/>
				<path class="st0" d="M50.5,104.3c0.1,0.3,0.1,0.6,0,0.9c0-0.1,0-0.2,0-0.3C50.6,104.7,50.6,104.5,50.5,104.3z"/>
				<path class="st0" d="M50.6,104.9c0,0.1,0,0.2,0,0.3c0,0,0,0.1,0,0.1c-0.1,0.5-0.4,0.9-0.8,1.3c0,0,0,0,0,0
					c-1.2,0.8-3.3,0.2-3.5-1.4c0-0.1,0-0.2,0-0.3c0.1-1.6,2.2-3,3.8-1.5c0.3,0.3,0.4,0.6,0.5,0.9c0,0,0,0,0,0
					C50.6,104.5,50.6,104.7,50.6,104.9z"/>
				<path class="st0" d="M50.9,175.8c-2,1.4-4.1-1.2-3.2-2.9c0-0.1,0.1-0.1,0.1-0.2c0.1-0.1,0.3-0.3,0.4-0.4
					c0.3-0.2,7.1-4.7,16.3-0.6c3.4-1.4,6.6-1.8,9.4-1.7c0,0,0.1,0,0.1,0c3.4,0.4,5.8,1.7,6.6,2.1c0,0,0,0,0,0c0.9,0.8,1.3,1.7,1,2.6
					c0,0,0,0.1,0,0.1c-0.1,0.2-0.2,0.3-0.3,0.5c0,0,0,0,0,0c-0.6,0.5-1.1,0.7-1.6,0.8h0c0,0-0.1,0-0.1,0c-2.2-0.3-5.3-4.3-14-0.3
					c-0.6,0.3-1.4,0.3-2,0C56.3,172.2,51,175.8,50.9,175.8z"/>
				<path class="st0" d="M46.2,105.2c0.2,1.7,2.3,2.2,3.5,1.4c-0.8,0.6-1.9,0.8-2.8-0.1C46.5,106.1,46.2,105.7,46.2,105.2z"/>
				<path class="st0" d="M49.8,127.6c-1.5,1.1-2.9,1.9-4.3,2.4C47.1,129.2,48.5,128.3,49.8,127.6z"/>
				<path class="st0" d="M44.8,195.1c0.1,0.2,0.1,0.4,0.1,0.7C44.9,195.6,44.9,195.3,44.8,195.1C44.8,195.1,44.8,195.1,44.8,195.1z"
					/>
				<path class="st0" d="M44.8,195.1C44.8,195.1,44.8,195.1,44.8,195.1C44.8,195.1,44.8,195.1,44.8,195.1
					C44.8,195.1,44.8,195.1,44.8,195.1z"/>
				<path class="st0" d="M44.8,195c0,0.1,0,0.1,0,0.1c0,0,0,0,0,0v0c-0.1-0.1-0.1-0.1-0.2-0.2c0,0,0-0.1,0-0.1
					C44.6,194.9,44.7,194.9,44.8,195z"/>
				<path class="st0" d="M44.8,195c-0.1-0.1-0.2-0.1-0.2-0.2c0,0,0,0,0,0C44.6,194.9,44.7,194.9,44.8,195z"/>
				<path class="st0" d="M44.8,195c-0.1-0.1-0.2-0.1-0.2-0.2c-0.1-0.3-0.4-0.6-0.8-0.9C44.3,194.2,44.7,194.6,44.8,195z"/>
				<path class="st0" d="M43.3,193.7l0.5,0.2c0,0,0,0,0,0c0.3,0.2,0.6,0.5,0.8,0.9c-0.1-0.1-0.2-0.2-0.3-0.3
					c-0.3-0.2-0.5-0.4-0.8-0.7c0,0,0,0,0,0C43.4,193.8,43.3,193.7,43.3,193.7z"/>
				<path class="st0" d="M40.4,196.6c0.2-1.8,1.1-3.2,3-2.8c0,0,0,0,0,0c0.3,0.3,0.6,0.5,0.8,0.7c0.1,0.1,0.2,0.2,0.3,0.3
					c0,0,0,0.1,0,0.1c0.1,0.1,0.1,0.1,0.2,0.2v0c0.1,0.2,0.1,0.4,0.1,0.7c0,0.2,0,0.4,0,0.6c-0.1,1.1-0.5,2.3-0.6,3.6
					c-0.8-0.6-1.5-1.3-2.2-1.9c-0.5-0.4-0.9-0.8-1.4-1.2c0,0,0,0,0,0C40.5,196.8,40.5,196.7,40.4,196.6z"/>
				<path class="st0" d="M42.9,10.9c-0.1,0.1-0.3,0.3-0.4,0.4C42.6,11.2,42.7,11.1,42.9,10.9z"/>
				<path class="st0" d="M38.2,134.9c1.9,0.4,3.9,0.4,5.8,0.1c-1.1,0.2-2.1,0.3-2.6,0.3C40.7,135.4,39.6,135.3,38.2,134.9z"/>
				<path class="st0" d="M28.5,178.2c4.4,5.8,9.5,11.1,14.8,15.5c-1.9-0.4-2.9,1.1-3,2.9c-14.9-13-27-29.3-29.2-49.1
					c0,0,0.1,0,0.1,0v-1.8v-2.8c-0.2,0-0.3,0-0.5,0c0,0,0-0.1,0-0.1c0.1,0,0.2,0,0.4,0v-8.9c0-0.1,0-0.1,0-0.2
					c0.1-2.4,3.8-2.5,4-0.1c-0.2,1.6-0.4,3.1-0.4,4.7c0,0.1,0,0.3,0,0.4c-0.2,5.1,0.4,10.2,1.7,15.1c0,0.2,0.1,0.4,0.2,0.6
					c0.1,0.5,0.3,1,0.4,1.4c0.2,0.6,0.4,1.2,0.6,1.9c0.4,1.2,0.8,2.4,1.3,3.6c0.2,0.6,0.5,1.2,0.8,1.8c0.5,1.2,1.1,2.4,1.7,3.5
					c0.6,1.2,1.2,2.3,1.9,3.4c1,1.7,2,3.4,3.1,5C27,176.2,27.8,177.2,28.5,178.2z"/>
				<path class="st0" d="M40.4,196.6c0.1,0.1,0.1,0.2,0.2,0.3C40.5,196.8,40.5,196.8,40.4,196.6C40.4,196.7,40.4,196.6,40.4,196.6z"
					/>
				<path class="st0" d="M40.2,103c0.2,0.4,0.3,0.8,0.2,1.3c0-0.1,0-0.2,0-0.2C40.4,103.6,40.3,103.3,40.2,103z"/>
				<path class="st0" d="M40.4,196.6L40.4,196.6C40.4,196.6,40.4,196.7,40.4,196.6c0.1,0.1,0.1,0.2,0.2,0.3c0,0,0,0,0,0
					c0.2,0.2,0.4,0.4,0.6,0.6c0.2,0.2,0.5,0.4,0.8,0.6c0.8,0.6,1.5,1.3,2.2,1.9c-1,6.2-3,17.6-7.4,24.1c0,0.1-0.1,0.1-0.1,0.2
					c-0.3,0.3-0.6,0.6-0.7,1c0,0-0.1,0-0.1,0c0,0.1,0,0.1,0,0.2c-3.1,4-7,1.3-4.5-1.8C37.3,218.4,39.4,203.1,40.4,196.6z"/>
				<path class="st0" d="M40.4,104c0,0.1,0,0.2,0,0.2c-0.1,0.6-0.5,1.2-1,1.6c0,0,0,0-0.1,0c-0.6,0.4-1.4,0.4-2.1,0.1
					c-0.2-0.1-0.3-0.2-0.5-0.4c-1.2-1.3-0.5-3.2,0.8-3.7c0,0,0,0,0,0c0.8-0.2,1.7,0,2.2,0.6c0.1,0.1,0.2,0.2,0.2,0.3
					c0,0.1,0.1,0.1,0.1,0.2C40.3,103.3,40.4,103.6,40.4,104z"/>
				<path class="st0" d="M40.2,103c0-0.1-0.1-0.1-0.1-0.2C40.2,102.9,40.2,102.9,40.2,103z"/>
				<path class="st0" d="M39.8,102.4C39.8,102.4,39.8,102.4,39.8,102.4c-0.5-0.5-1.4-0.7-2.1-0.5C38.3,101.6,39.1,101.7,39.8,102.4z
					"/>
				<path class="st0" d="M39.8,15.3c-0.1,0.2-0.2,0.4-0.3,0.6C39.6,15.7,39.7,15.5,39.8,15.3z"/>
				<path class="st0" d="M38.7,33.1c0,0-0.1,0-0.1,0c-1.3-7-1-12.8,1-17.2C37.7,20.3,37.4,25.9,38.7,33.1z"/>
				<path class="st0" d="M38.6,33.2C38.6,33.2,38.6,33.3,38.6,33.2L38.6,33.2C38.6,33.3,38.6,33.2,38.6,33.2
					C38.6,33.2,38.6,33.2,38.6,33.2z"/>
				<path class="st1" d="M38.6,33.1c0,0,0.1,0,0.1,0c-1.3-7.2-1-12.8,0.8-17.2c0.1-0.2,0.2-0.4,0.3-0.6c0.1-0.2,0.1-0.3,0.2-0.4
					c0.5-0.9,1.1-1.8,1.8-2.6c0.2-0.3,0.4-0.6,0.7-0.8c0.1-0.2,0.3-0.3,0.4-0.4c0.2-0.2,0.4-0.4,0.6-0.6c8-7,30.4-8.4,40-2.6
					c0.4,0.2,0.7,0.5,1,0.7c0.1,0.1,0.3,0.2,0.4,0.3c0,0,0,0,0,0c0.6,0.4,1,0.9,1.5,1.4c4.3,4.4,6,11.4,5,20.8c-2.4-0.5-5-1-7.8-1.3
					c-0.4,0-0.8-0.1-1.2-0.1c-0.4-0.1-0.8-0.1-1.2-0.1c-0.1,0-0.2,0-0.3,0c-14.2-1.4-31-0.2-42.3,3.9C38.6,33.3,38.6,33.2,38.6,33.1
					C38.6,33.2,38.6,33.2,38.6,33.1C38.6,33.2,38.6,33.2,38.6,33.1z"/>
				<path class="st0" d="M39.4,105.8c-0.6,0.4-1.4,0.6-2.1,0.1C37.9,106.2,38.7,106.2,39.4,105.8z"/>
				<path class="st0" d="M56.2,114.9c-7.8-3.1-14.2-4.5-19.2-4.8C41.8,110.3,48.2,111.6,56.2,114.9z"/>
				<path class="st0" d="M36.8,224.3c0,0,0.1-0.1,0.1-0.1c-0.1,0.2-0.3,0.4-0.4,0.6C36.6,224.7,36.7,224.5,36.8,224.3z"/>
				<path class="st0" d="M36.8,224.3c-0.1,0.2-0.2,0.4-0.3,0.6c-0.1,0.1-0.2,0.3-0.3,0.4c0,0,0,0,0,0
					C36.2,224.9,36.5,224.6,36.8,224.3z"/>
				<path class="st0" d="M32,114.6c3.1-0.7,7.8-0.7,15.8,1.9C40.6,114.2,35.4,114.1,32,114.6z"/>
				<path class="st0" d="M36.5,224.8c-0.1,0.1-0.2,0.3-0.3,0.4c0,0,0,0,0,0C36.2,225.1,36.4,225,36.5,224.8z"/>
				<path class="st0" d="M36.1,225.2C36.1,225.3,36.1,225.3,36.1,225.2C36.1,225.3,36.1,225.3,36.1,225.2
					C36.1,225.2,36.1,225.2,36.1,225.2z"/>
				<path class="st0" d="M36.2,225.2c-0.1,0.1-0.1,0.2-0.2,0.3c0-0.1,0-0.1,0-0.2C36,225.3,36.1,225.3,36.2,225.2
					C36.1,225.3,36.1,225.3,36.2,225.2C36.1,225.3,36.1,225.3,36.2,225.2C36.2,225.2,36.2,225.2,36.2,225.2z"/>
				<path class="st0" d="M36,225.5c0.1-0.1,0.2-0.2,0.2-0.3c5.5-2.1,10.7-3.6,15.7-4.6c14.5-2.6,25.6-1.9,32.2-0.7
					c3.8,0.9,6.5,2,7.7,3c0.2,0.4,0.5,0.8,0.7,1.1c-0.9,1.9-4.1,2-5.9,1.1c-0.3-0.1-12.5-6-45.6,2.3C39.2,228,35.9,227.5,36,225.5z"
					/>
				<path class="st0" d="M34.6,82.8c2.5-1.2,6.9-2.2,12.5-2.9C34.1,82,28,87.3,23.9,97C26.4,90.5,29.8,84.9,34.6,82.8z"/>
				<path class="st0" d="M38.8,34.1l-4.3,0.8c0,0,0,0,0-0.1c1.3-0.6,2.8-1.2,4.1-1.6c0,0,0,0.1,0,0.1h0
					C38.6,33.6,38.7,33.8,38.8,34.1z"/>
				<path class="st0" d="M30.8,125.1c1.3,1.4,2.5,2.5,3.6,3.4c-1.3-0.9-2.6-2.1-3.8-3.5c-0.2-0.2-0.3-0.3-0.5-0.4
					C30.3,124.7,30.6,124.9,30.8,125.1z"/>
				<path class="st0" d="M30.6,125c1.3,1.4,2.6,2.6,3.8,3.5c0.1,0,0.1,0.1,0.2,0.1c4.5,3.3,8,2.7,10.9,1.4c1.4-0.5,2.8-1.3,4.3-2.4
					c0,0,0,0,0,0c1.5-0.8,2.8-1.2,4.1-0.4c0.1,0.1,0.1,0.2,0.2,0.2c0.3,1,0.2,1.9-0.3,2.7c0,0-0.1,0.1-0.1,0.1
					c-2.7,2.2-5.4,3.6-8.1,4.4c0,0,0,0-0.1,0c-0.3,0.1-0.7,0.2-1,0.2c-0.2,0-0.3,0.1-0.5,0.1c-2,0.4-3.9,0.3-5.8-0.1
					c-1.6-0.4-3.6-1.2-5.4-2.2c0,0,0,0-0.1,0c-1.7-1-3.3-2.4-4.9-4.1c-0.7-1.2-0.9-2.4-0.2-3.7c0.7-0.6,1.6-0.7,2.3-0.3c0,0,0,0,0,0
					C30.3,124.7,30.4,124.8,30.6,125z"/>
				<path class="st0" d="M29.2,102.4c1.2,1.2,0.5,2.9-0.7,3.6c-0.8,0.3-1.8,0.2-2.4-0.5c0,0-0.1-0.1-0.1-0.1c0-0.1-0.1-0.1-0.1-0.2
					c0,0-0.1-0.1-0.1-0.1c-0.2-0.3-0.3-0.7-0.2-1.1c0-0.1,0-0.2,0-0.2c0.1-0.8,0.6-1.4,1.3-1.8c0.6-0.2,1.3-0.2,1.8,0.1
					c0,0,0,0,0.1,0C28.9,102.2,29.1,102.3,29.2,102.4z"/>
				<path class="st0" d="M27.9,128.6c1.6,1.7,3.2,3.1,4.9,4.1C30.7,131.5,28.8,130.1,27.9,128.6z"/>
				<path class="st0" d="M26.9,102c0.6-0.3,1.2-0.3,1.8,0.1C28.1,101.8,27.5,101.8,26.9,102z"/>
				<path class="st0" d="M26.1,105.5c0.6,0.6,1.6,0.8,2.4,0.5C27.9,106.4,27,106.4,26.1,105.5C26.2,105.6,26.1,105.5,26.1,105.5z"/>
				<path class="st0" d="M25.6,104c0,0.4,0.1,0.8,0.2,1.1c-0.3-0.4-0.3-0.9-0.2-1.4C25.6,103.8,25.6,103.9,25.6,104z"/>
				<path class="st0" d="M23.4,116.4c1.1,0.4,2,0.3,2.9,0.1C25.4,117.4,24.2,117.2,23.4,116.4z"/>
				<path class="st0" d="M23.2,170.2c1,1.7,2,3.4,3.1,5C25.2,173.6,24.2,171.9,23.2,170.2z"/>
				<path class="st0" d="M23.4,113.3c0.1,0,0.3-0.2,0.6-0.5c-1.1,1.1-1.4,2.3-0.9,3.3C22.6,115.3,22.4,114.2,23.4,113.3z"/>
				<path class="st0" d="M21.3,166.7c0.6,1.2,1.2,2.3,1.9,3.4C22.5,169.1,21.9,167.9,21.3,166.7z"/>
				<path class="st0" d="M19.6,163.2c0.5,1.2,1.1,2.4,1.7,3.5C20.7,165.6,20.1,164.4,19.6,163.2z"/>
				<path class="st0" d="M18.9,161.4c0.2,0.6,0.5,1.2,0.8,1.8C19.4,162.6,19.1,162,18.9,161.4z"/>
				<path class="st0" d="M17.5,157.8c0.4,1.2,0.9,2.4,1.3,3.6C18.4,160.2,17.9,159,17.5,157.8z"/>
				<path class="st0" d="M16.9,155.9c0.2,0.6,0.4,1.2,0.6,1.9C17.3,157.1,17.1,156.5,16.9,155.9z"/>
				<path class="st0" d="M19.3,111.9c-0.9,3.5-1.7,7.3-2.7,11.5c-1.5,2.2-2.7,2.4-3.8,1.3c0.3,0.2,0.6,0.3,0.9,0.3
					C15.8,125,17.3,119.2,19.3,111.9z"/>
				<path class="st0" d="M16.5,154.4c0.1,0.5,0.3,1,0.4,1.4C16.8,155.4,16.7,154.9,16.5,154.4z"/>
				<path class="st0" d="M15.1,133.6c0,0.1,0,0.1,0,0.2c-0.2,1.5-0.4,3-0.4,4.5C14.7,136.8,14.9,135.2,15.1,133.6z"/>
				<path class="st0" d="M13.3,115.4C1.2,80.4,11,48.1,40.1,36.9c8.1-3.1,17.7-4.6,28.8-4c13.9,0,26.1,2,36.6,7.7
					C95.1,35,82.9,33,69.1,33c-50.5-2.6-71,37.7-55.7,82.1C13.4,115.2,13.3,115.3,13.3,115.4z"/>
				<path class="st0" d="M11.2,145.7v1.8c0,0-0.1,0-0.1,0c-0.2-1.5-0.3-3-0.4-4.6c0.2,0,0.3,0,0.5,0V145.7z"/>
				<path class="st0" d="M11.1,142.8c-0.1,0-0.2,0-0.4,0c-0.1-2.9,0-5.9,0.4-8.9V142.8z"/>
				<path class="st1" d="M73.7,108.1c0.1-0.5,0-1-0.3-1.4c0,0-0.1-0.1-0.1-0.1c0-0.1-0.1-0.1-0.2-0.2c0,0,0,0-0.1-0.1
					c-0.7-0.7-1.6-0.8-2.3-0.5c0,0,0,0,0,0c-0.7,0.2-1.3,0.8-1.4,1.7c-0.1,0.3,0,0.7,0.1,1.1c0,0,0,0,0,0.1c0.1,0.4,0.4,0.7,0.6,0.9
					c0,0,0,0,0.1,0c0.7,0.6,1.5,0.6,2.2,0.2C73.1,109.6,73.6,109,73.7,108.1z M73.1,115c-2.1,0.9-1.5,4.3,0.8,4.2c0,0,0,0,0,0
					c0,0,0,0,0,0c0.3,0,0.6-0.1,0.9-0.2c7.8-3.3,13.7-4.4,18-4.6c5,0,7.7,1.5,10,2.2c0,0,0,0,0,0c0,0,0,0,0.1,0c1,1,2.2,0.7,3-0.1
					c0,0,0.1,0,0.1,0c0.1-0.1,0.1-0.2,0.1-0.3c0.6-0.8,0.7-2-0.2-2.8c-0.1-0.1-0.3-0.2-0.7-0.5c0,0,0,0,0,0
					c-1.8-1.8-5.7-3.1-11.8-2.8c-4.6,0.1-10.7,1.1-18.5,4.2c-0.1,0-0.1,0.1-0.2,0.1C74.2,114.6,73.7,114.8,73.1,115z M7.8,113.7
					l5,11c0,0,0,0,0,0c1.1,1.1,2.3,1,3.8-1.3c1-4.2,1.8-8,2.7-11.5c0-0.1,0.1-0.3,0.1-0.4c1.2-4.6,2.7-9.8,4.5-14.5c0,0,0,0,0-0.1
					c4.1-9.7,10.2-15,23.2-17.1c0,0,0.1,0,0.1,0c3.8-0.5,8.2-0.8,13-1c0.1,0,0.1,0,0.2,0c2.7-0.1,5.6,0,8.8,0
					c4.6,0,9.1,0.1,13.2,0.4c2.7,0.3,5.3,0.6,7.7,0.7c1.4,0.2,2.7,0.4,3.9,0.6c0.9,0.2,1.7-0.1,2.2-0.7l0,0.1
					c-2.8,2.5-4.6,4.1-3.4,6.3c0.3,0.7,0.9,1.5,1.9,2.3c-2.3,0.2-9.2,7.8-13.7,12.6l-3.9,3.8c-0.4,0.4-0.6,0.9-0.5,1.3
					c0,0,0,0.1,0,0.1c0.1,1.4,1.9,2.5,3.1,1.3C80,106.5,96.4,93,96.2,90.2c0-0.1,0-0.1,0-0.1c1.7,2,4.1,2.9,6,0.6
					c9.1,11.9,10.2,35.2,14.1,34.8c0,0,0,0,0.1,0c1.4-0.1,3.2-3.1,5.8-10.7c0.4,0.1,0.8,0.4,1.2,0.8c0,0,0.1,0.1,0.1,0.1
					c5,5.4,3.1,28-5.4,27.2v-9.1c0-0.1,0-0.2,0-0.2c-0.1-2.4-3.9-2.4-4,0c0,0.1,0,0.2,0,0.2c0,0,0,0.1,0,0.1
					c0.2,1.1,0.3,2.3,0.4,3.4c0,0.6,0.1,1.1,0.1,1.7c0.1,1.2,0,2.4,0,3.5c-0.8,20.2-13.5,38.5-28.5,51.1c-0.8,0-1.5,0.8-1.7,1.4
					c-11.8,12.8-26.7,13-38.6,1c-0.3-0.3-0.6-0.6-0.9-1c0,0,0,0,0,0c0-0.1,0-0.1,0-0.1c-0.1-0.4-0.5-0.8-1-1.1c0,0,0,0,0,0
					c-0.2-0.1-0.4-0.2-0.6-0.3l-14.7-15.4c-0.7-1-1.5-2-2.1-3c-1.1-1.6-2.2-3.3-3.1-5c-0.7-1.1-1.3-2.3-1.9-3.4
					c-0.6-1.2-1.1-2.4-1.7-3.5c-0.3-0.6-0.5-1.2-0.8-1.8c-0.5-1.2-0.9-2.4-1.3-3.6c-0.2-0.6-0.4-1.2-0.6-1.9c-0.1-0.5-0.3-1-0.4-1.4
					c-0.1-0.2-0.1-0.4-0.2-0.6c-1.1-4.3-1.7-8.8-1.7-13.4c0-0.6,0-1.1,0-1.7c0-0.1,0-0.3,0-0.4c0.1-1.5,0.2-3,0.4-4.5
					c0-0.1,0-0.1,0-0.2c0,0,0,0,0,0c0-2.7-4.1-2.6-4,0.1c0,0.1,0,0.1,0,0.2c-0.4,3-0.5,6-0.4,8.9c-1.1,0-2.2-0.4-3.1-1.1
					c-0.2-0.2-0.4-0.4-0.6-0.6c-5.4-6.1-5.4-25.5,0.7-26.5C7.8,114.3,7.8,114,7.8,113.7z M103.8,104.3c0.1-0.4,0-0.8-0.2-1.3
					c0-0.1-0.1-0.2-0.1-0.2c0-0.1-0.1-0.1-0.1-0.2c0,0-0.1-0.1-0.1-0.1c0,0,0-0.1-0.1-0.1c-0.7-0.7-1.6-0.8-2.2-0.5
					c-0.8,0.2-1.4,0.8-1.4,1.8c-0.1,0.4,0,0.9,0.2,1.3c0,0,0,0.1,0,0.1c0,0.1,0.1,0.2,0.2,0.3c0,0.1,0.1,0.1,0.1,0.2
					c0,0,0,0.1,0.1,0.1c0.7,0.7,1.6,0.8,2.2,0.5C103.1,105.8,103.8,105.2,103.8,104.3z M101.9,127.9c0.9-1,0.6-2.2-0.1-2.9
					c0-0.1-0.1-0.1-0.1-0.2c-0.1,0-0.1,0-0.2-0.1c-0.8-0.6-2-0.8-2.9,0.3c-0.2,0.2-0.3,0.3-0.5,0.5c-1.7,1.2-3.5,3.2-5.8,4.4
					c-2.9,1.3-5.9,1.2-9.1-0.1c-0.1,0-0.2-0.1-0.2-0.1c-1.4-0.7-2.9-1.6-4.6-2.9c-0.3-0.3-0.7-0.4-1.1-0.5c-0.2,0-0.4,0-0.5,0
					c-0.6,0-1.2,0.3-1.6,0.8c-0.8,0.9-0.6,2.3,0.3,3.1c0.2,0.1,0.4,0.3,0.5,0.4c0,0,0,0,0,0c1.1,1.3,3.2,2.4,5.3,3.2
					c2.1,0.9,4.2,1.4,6.3,1.4c0.1,0,0.2,0,0.3,0c0.5,0.1,1.3,0,2.3-0.2c1.9-0.3,3.8-1,5.7-2.1c0,0,0,0,0,0c2.5-1.3,4.8-3,5.7-4.8
					C101.8,128,101.8,128,101.9,127.9z M91.7,106.1c0.9-0.2,1.6-0.9,1.6-2.1c0-0.9-0.4-1.6-1.1-1.9c0,0,0,0,0,0
					c-0.7-0.5-1.5-0.4-2.2,0c0,0-0.1,0.1-0.1,0.1c-0.3,0.2-0.6,0.4-0.7,0.8c0,0,0,0,0,0.1c-0.4,0.8-0.4,1.8,0.3,2.6
					C90.2,106.3,91,106.4,91.7,106.1L91.7,106.1z M81.7,174.9c0.3-0.8,0.1-1.9-0.8-2.5c0,0-0.1-0.1-0.2-0.1c0,0,0,0,0,0
					c-1.3-1.1-3.7-2-6.6-2.1c0,0-0.1,0-0.1,0c-2.6-0.3-5.7,0-9.2,1.5c-9.2-4.1-16,0.4-16.3,0.6c-0.3,0.2-0.5,0.4-0.6,0.6
					c0,0.1-0.1,0.1-0.1,0.2c-1.3,1.8,1,4.4,3,3.1c0.1,0,5.4-3.6,12.8,0.2c0.6,0.3,1.4,0.3,2,0c8.9-4.4,11.3,0.6,14.3,0.1h0
					c0.7,0,1.2-0.3,1.6-0.8c0,0,0,0,0,0c0,0,0.1-0.1,0.1-0.1c0.1-0.1,0.1-0.3,0.2-0.4C81.7,174.9,81.7,174.9,81.7,174.9z
					 M75.9,184.5c2.5-1.4,0.4-5.2-2.1-3.9c-0.1,0.1-0.2,0.1-0.4,0.2c-2.2,0.5-5.2,2.1-8.8,2.3c-3.6-0.3-6.6-1.9-8.8-2.4
					c-0.1-0.1-0.2-0.1-0.3-0.2c-1.1-0.5-2.4-0.2-3,0.9c-0.3,1.8,0.7,3.1,2.3,3.9c1.7,1.1,4.2,1.6,6.9,1.8c0,0,0,0,0,0
					c1.2,0.2,2.2,0.2,2.9,0.3c2.2-0.2,7.6-0.6,10.4-2.5c0,0,0,0,0,0C75.3,184.9,75.7,184.7,75.9,184.5z M70.9,157.7
					c1.2-0.6,1.3-1.8,0.9-2.8c0-0.1,0-0.1,0-0.2c-0.1-0.1-0.1-0.2-0.2-0.2c-0.6-0.8-1.6-1.3-2.8-0.7c0,0-0.1,0.1-0.1,0.1
					c-1.2,0.3-2.5,0.9-4,1.1c-1.5-0.2-2.9-0.8-4.1-1.1c0,0,0,0,0,0c-1.1-0.6-2.1-0.2-2.7,0.6c-0.1,0.1-0.2,0.2-0.3,0.3
					c0,0.1,0,0.1,0,0.2c-0.5,1-0.3,2.2,0.9,2.8c1.3,1.3,3.8,1.7,6.3,1.6C67.2,159.4,69.6,158.9,70.9,157.7z M60,107.9
					c0-1-0.5-1.6-1.1-1.9c-0.7-0.4-1.4-0.4-2,0c0,0,0,0-0.1,0c-0.6,0.3-1.1,0.8-1.2,1.7c0,0,0,0,0,0c0,0.3,0,0.6,0.1,0.9
					c0.1,0.5,0.4,0.8,0.8,1.1c0.6,0.6,1.4,0.6,2.1,0.3c0,0,0,0,0,0C59.4,109.6,60,109,60,107.9z M57.4,117.8c0.2-0.5,0.2-1.1,0-1.6
					c0,0,0,0,0,0c-0.1-0.5-0.5-1-1.2-1.3c-8-3.3-14.4-4.6-19.2-4.8c-6.7-0.5-11,0.9-12.9,2.8c0,0,0,0,0,0c-0.4,0.3-0.6,0.4-0.6,0.5
					c-1,0.9-0.8,2-0.2,2.9c0,0.1,0.1,0.2,0.1,0.2c0.1,0,0.1,0,0.1,0c0.8,0.7,2,1,2.9,0.1l0,0c1.6-0.4,3.1-1.4,5.6-1.9c0,0,0,0,0,0
					c3.4-0.5,8.5-0.4,15.8,1.9c2,0.6,4.2,1.5,6.7,2.5c0.8,0.4,1.6,0.2,2.1-0.2c0,0,0,0,0,0C57,118.5,57.2,118.2,57.4,117.8z
					 M53.8,130.1c0.9-0.8,0.9-1.9,0.3-2.7c0-0.1,0-0.1-0.1-0.2c0,0-0.1,0-0.1-0.1c-0.7-0.8-2-1.2-3.1-0.3c-0.4,0.3-0.7,0.5-1,0.8
					c0,0,0,0,0,0c-1.3,0.7-2.7,1.7-4.3,2.4c-3.8,1.5-7.4,1-10.9-1.4c-0.1,0-0.1-0.1-0.2-0.1c-1.1-0.9-2.4-2-3.6-3.4
					c-0.2-0.2-0.5-0.4-0.7-0.5c0,0,0,0,0,0c-0.8-0.5-1.8-0.4-2.5,0.2c-0.9,0.8-1,2.2-0.2,3.1c0.2,0.2,0.4,0.4,0.6,0.7
					c0.9,1.5,2.8,3,4.9,4.1c0,0,0,0,0.1,0c1.8,1.1,3.6,1.8,5.4,2.2c1.4,0.4,2.5,0.5,3.2,0.4c0.6,0,1.5-0.1,2.6-0.3
					c0.2,0,0.3-0.1,0.5-0.1c0.3-0.1,0.7-0.1,1-0.2c0,0,0,0,0.1,0C48.8,133.8,52.5,132.3,53.8,130.1z M50.6,105.2
					c0.1-0.3,0-0.6,0-0.9c0,0,0,0,0,0c-0.5-2.2-4.4-2-4.3,0.6c0,0.1,0,0.2,0,0.3c0,0.5,0.2,0.9,0.7,1.3c0.9,0.9,2.1,0.8,2.8,0.1
					c0,0,0,0,0,0C50.2,106.3,50.5,105.9,50.6,105.2C50.6,105.3,50.6,105.3,50.6,105.2z M40.4,104.2c0.1-0.4,0-0.9-0.2-1.3
					c0-0.1-0.1-0.1-0.1-0.2c-0.1-0.1-0.1-0.2-0.2-0.3c0,0,0-0.1-0.1-0.1c-0.7-0.7-1.5-0.8-2.1-0.5c0,0,0,0,0,0
					c-0.9,0.2-1.6,0.9-1.5,2.1c0,1,0.5,1.7,1.2,2c0.7,0.4,1.5,0.3,2.1-0.1c0,0,0,0,0.1,0C40,105.5,40.3,105,40.4,104.2z M29.9,104
					c0.1-1-0.5-1.6-1.1-1.9c0,0,0,0-0.1,0c-0.6-0.4-1.3-0.3-1.8-0.1c-0.7,0.3-1.2,0.8-1.3,1.8c-0.1,0.4,0,0.9,0.2,1.4
					c0,0,0,0.1,0.1,0.1c0,0.1,0.1,0.1,0.1,0.2c0,0,0,0.1,0.1,0.1c0,0,0,0.1,0.1,0.1c0.8,0.8,1.6,0.8,2.3,0.4
					C29.3,105.7,29.9,105,29.9,104z"/>
				<path class="st0" d="M7.8,110.2c-0.2,0-0.5,0-0.8,0.1c0,0,0-0.1,0-0.1C7.3,110.2,7.5,110.1,7.8,110.2L7.8,110.2z"/>
				<path class="st0" d="M7.7,113.5v1c-6.1,1-6.1,20.6-0.6,26.6c0.2,0.2,0.4,0.4,0.6,0.6c0.9,0.8,1.9,1.3,3.1,1.2
					c0.1,1.6,0.2,3.1,0.4,4.6c-15.2,0.3-14.7-37.1-4.3-37.3c0,0,0,0.1,0,0.1c0.1,0.5,0.2,1,0.4,1.5c0,0,0,0,0,0
					c0.1,0.5,0.3,0.9,0.4,1.4c0,0.2,0.1,0.3,0.1,0.5C7.7,113.6,7.7,113.5,7.7,113.5z"/>
				<path class="st0" d="M7.7,113.1c-0.2-0.4-0.3-0.9-0.4-1.4C7.4,112.2,7.5,112.7,7.7,113.1z"/>
				<path class="st0" d="M7.8,113.7c0.1,0.3,0.1,0.6,0.1,0.9c-6.1,1-6.2,20.3-0.7,26.5c-5.5-6-5.5-25.6,0.6-26.6v-1
					C7.7,113.5,7.7,113.6,7.8,113.7C7.8,113.6,7.8,113.7,7.8,113.7z"/>
				<path class="st0" d="M7,110.3c0.3-0.1,0.6-0.1,0.8-0.1v3.4c-0.1-0.2-0.1-0.3-0.2-0.5c-0.1-0.4-0.3-0.9-0.4-1.4c0,0,0,0,0,0
					c-0.1-0.5-0.3-1-0.4-1.5c0,0,0,0,0-0.1c0.1,0,0.1,0,0.2,0C7,110.2,7,110.3,7,110.3z"/>
			</g>
			<g>
			</g>
		</g>
	</g>
	<g>
		<path class="st2" d="M44.3,200.1c-1,6.2-3,17.6-7.4,24.1"/>
		<path class="st2" d="M43.3,193.7C43.3,193.7,43.4,193.7,43.3,193.7c0.7,0.2,1.2,0.7,1.5,1.3"/>
		<path class="st2" d="M36.1,225.3c-0.5,0.7-1.1,1.3-1.8,1.9c-0.4,0.4-0.9,0.5-1.4,0.5c-0.6,0-1.2-0.3-1.7-0.8
			c-0.8-0.9-0.7-2.3,0.3-3.1c5.4-4.6,7.8-19.9,8.7-25.7c0.1-0.6,0.2-1,0.2-1.4"/>
		<path class="st2" d="M84.5,195.2c0.2-0.7,0.8-1.2,1.5-1.4c0.1,0,0.1,0,0.2,0"/>
		<path class="st2" d="M91.1,222c-3.5-6.6-5.2-16.2-6.1-21.8"/>
		<path class="st2" d="M88.9,196.8c0.1,0.4,0.1,0.8,0.2,1.3c0.9,5.8,3.3,21.1,8.7,25.7c0.9,0.8,1,2.2,0.3,3.1
			c-0.4,0.5-1.1,0.8-1.7,0.8c-0.5,0-1-0.2-1.4-0.5c-1-0.8-1.8-1.8-2.6-3"/>
		<path class="st2" d="M41.3,135.2c-4.9,0-9.6-2.4-13.9-7.3c-0.8-0.9-0.7-2.3,0.2-3.1c0.9-0.8,2.3-0.7,3.1,0.2
			c6.4,7.2,12.8,7.7,20.3,1.8c1-0.8,2.3-0.6,3.1,0.3s0.6,2.3-0.3,3.1C49.5,133.6,45.4,135.2,41.3,135.2z"/>
		<path class="st2" d="M88,135.2c-4,0-8.2-1.7-12.4-5c-0.9-0.8-1.1-2.1-0.3-3.1c0.8-0.9,2.1-1.1,3.1-0.3c7.5,5.9,13.9,5.4,20.3-1.8
			c0.8-0.9,2.2-1,3.1-0.2s1,2.2,0.2,3.1C97.5,132.8,92.9,135.2,88,135.2z"/>
		<path class="st2" d="M64.7,187.5c-3.7,0-7.5-1-11.2-3.1c-1.1-0.6-1.4-1.9-0.9-3c0.6-1.1,1.9-1.4,3-0.9c6.1,3.4,12.1,3.4,18.2,0
			c1.1-0.6,2.4-0.2,3,0.9c0.6,1.1,0.2,2.4-0.9,3C72.1,186.5,68.4,187.5,64.7,187.5z"/>
		<path class="st2" d="M64.7,159.4c-2.1,0-4.2-0.6-6.2-1.7c-1.1-0.6-1.5-1.9-0.9-3s1.9-1.4,3-0.9c2.8,1.6,5.4,1.6,8.2,0
			c1.1-0.6,2.4-0.2,3,0.9c0.6,1.1,0.2,2.4-0.9,3C68.8,158.9,66.7,159.4,64.7,159.4z"/>
		<path class="st2" d="M7.8,113.6v1c-3.5,0-4.7,7.4-4.7,14.3c0,7.6,3.7,14,8.1,14"/>
		<path class="st2" d="M11.2,145.7v1.8c-6.6,0-12-8.3-12-18.6c0-14.8,4.4-18.2,7.6-18.7"/>
		<path class="st2" d="M118.2,145.7c0,20.4-15.7,38.9-29.3,51.1c-0.3,0.2-0.6,0.5-0.8,0.7c-1,0.9-2,1.8-3.1,2.6
			c-1.6,1.4-3.3,2.8-5.1,4.1c-4.3,3.3-9.7,5.2-15.2,5.2s-10.9-1.9-15.2-5.2c-1.8-1.4-3.5-2.8-5.2-4.2c-1-0.8-2-1.7-3-2.5
			c-0.3-0.3-0.6-0.6-0.9-0.8c-13.5-12.2-29.2-30.7-29.2-51V143v-9.1c0-1,0.7-2,1.7-2.1c1.2-0.2,2.3,0.8,2.3,2v11.7
			c0,19,15.1,36.6,28.1,48.3c0.2,0.2,0.5,0.4,0.8,0.7c0.2,0.2,0.5,0.4,0.7,0.6c2.3,2,4.8,4.1,7.3,6c3.6,2.8,8.1,4.3,12.7,4.3
			s9.1-1.5,12.7-4.3c2.4-1.9,4.8-3.9,7.1-5.8c0.3-0.3,0.6-0.5,0.9-0.8c0.3-0.2,0.5-0.4,0.8-0.7c13-11.7,28.1-29.3,28.1-48.3v-11.6
			c0-1,0.7-2,1.7-2.1c1.2-0.2,2.3,0.8,2.3,2v9.2"/>
		<path class="st2" d="M122.8,77.3L125,77c0.6,3.7,0.9,7.6,0.9,11.9c0.1,7.5-0.8,14.7-2.6,21.6"/>
		<path class="st2" d="M102.8,90l3.1-1.9c5.7,7.9,9.3,20.2,11.1,27.9c0.3-0.9,0.7-1.9,1-2.9s0.6-2,0.9-3.2
			c1.4-5.2,2.7-12.4,2.6-21.1c0-3.4-0.2-6.6-0.7-9.6"/>
		<path class="st2" d="M122.1,114.7c-1.9,5.9-3.9,9.2-4,9.4c-0.4,0.7-1.2,1.1-2,1.1c-0.1,0-0.3,0-0.4,0c-0.9-0.2-1.7-0.8-1.8-1.7
			c0-0.2-3.8-21.7-11.7-32.9"/>
		<path class="st2" d="M65,74.6c1.4,0,2.8,0,4.1,0c9.6,0,18.7,0.6,25.6,1.7c1.3,0.2,2.1,1.3,1.9,2.5c-0.1,0.4-0.2,0.8-0.5,1
			c-0.5,0.6-1.3,0.9-2.2,0.7c-6.7-1.1-15.5-1.6-24.8-1.6c-15.6,0-29.1,1.6-34.2,4.1c-10.3,4.9-16.7,30.8-18.3,40.4
			c-0.1,0.9-0.9,1.7-1.9,1.8c-0.1,0-0.3,0-0.4,0c-0.8,0-1.6-0.4-2-1.1c-0.1-0.2-2.2-3.8-4.3-10.4l0,0c-0.4-1.1-0.7-2.3-1-3.4
			c-2-7.4-2.9-15.2-2.9-23.4c0.2-26,10.5-43.5,30.6-52"/>
		<path class="st2" d="M118.4,50.6c-0.4-0.1-0.7-0.3-1-0.7c-4.7-5.3-10.9-9.4-18.5-12.2c-8.3-3.1-18.3-4.6-29.9-4.6
			s-21.7,1.5-29.9,4.6c-20,7.4-30.2,23.9-30.5,49.2c-0.1,11.2,1.9,20.1,3.7,25.6c0.4,1.1,0.7,2.1,1.1,3.1c2.6-11,8.7-31.3,19.3-36.4
			c6.2-3,19.9-4.3,32-4.5"/>
		<path class="st2" d="M95.7,32c1.7,0.5,3.4,1,5,1.6c8.3,3.1,15.1,7.6,20.4,13.5c0.1,0.2,0.2,0.3,0.3,0.5"/>
		<path class="st2" d="M38.6,33.2c8.6-3,18.8-4.5,30.4-4.5c8.2,0,15.7,0.8,22.4,2.2"/>
		<path class="st2" d="M123.4,110.4c3.1,0.9,6.9,4.9,6.9,18.6c0,10.2-5.4,18.6-12,18.6v-1.8V143c4.4,0,8.1-6.4,8.1-14
			c0-6.6-1.1-13.6-4.2-14.2c-0.2,0-0.3-0.1-0.5-0.1v-4.5C122.2,110.1,122.8,110.2,123.4,110.4z"/>
		<path class="st2" d="M95.7,32c0,0.1,0,0.2,0,0.2l-4.3-0.4c0-0.3,0.1-0.6,0.1-0.9c1-9.4-0.7-16.4-5-20.8C82,5.6,74.6,3.6,63.9,4
			s-17.9,3.1-22,8c-3.9,4.7-5,11.8-3.2,21.1c0,0.3,0.1,0.6,0.2,0.9l-4.3,0.8c0,0,0,0,0-0.1c-2.2-10.9-0.9-19.4,4-25.2
			c4.9-5.9,13.2-9,25.2-9.5s20.5,1.9,25.9,7.3C94.9,12.7,97,21,95.7,32z"/>
		<path class="st2" d="M74,119.1c-0.8,0-1.7-0.5-2-1.3c-0.5-1.1,0.1-2.4,1.2-2.9c23.5-9.8,32.4-1.9,32.8-1.6
			c0.9,0.8,0.9,2.2,0.1,3.1s-2.2,0.9-3.1,0.1c-0.2-0.2-7.7-6.2-28.1,2.4C74.5,119.1,74.3,119.1,74,119.1z"/>
		<path class="st2" d="M55.4,119.1c-0.3,0-0.6,0-0.9-0.2c-20.5-8.6-28-2.4-28.1-2.4c-0.9,0.8-2.2,0.8-3.1-0.1
			c-0.8-0.9-0.8-2.3,0.1-3.1c0.4-0.3,9.3-8.3,32.8,1.6c1.1,0.5,1.6,1.7,1.2,2.9C57,118.6,56.2,119.1,55.4,119.1z"/>
		<path class="st2" d="M79.7,176.4c-0.4,0-0.8-0.1-1.2-0.4c-0.2-0.2-5.6-3.6-12.8,0.1c-0.6,0.3-1.4,0.3-2,0
			c-7.4-3.8-12.7-0.2-12.8-0.2c-1,0.7-2.3,0.4-3-0.6s-0.4-2.4,0.6-3c0.3-0.2,7.1-4.7,16.3-0.6c9.2-4.1,16,0.4,16.3,0.6
			c1,0.7,1.2,2.1,0.6,3C81.1,176,80.4,176.4,79.7,176.4z"/>
		<path class="st2" d="M65,74.6c-0.1,0-0.2,0-0.2,0l0,0l0,0c-1.2,0-2.1-0.7-2.2-1.7c0-0.9,0.9-1.7,2.1-1.7
			c10.5-0.2,15.5-3.4,15.8-10.1c0-0.9,1-1.7,2.3-1.6c1.2,0,2.1,0.8,2.1,1.8C84.5,67.1,80.8,74.2,65,74.6z"/>
		<path class="st2" d="M101.2,195.8c-0.9-0.8-0.9-2.2-0.1-3.1c0.8-0.9,2.2-0.9,3.1-0.1c0.9,0.8,0.9,2.2,0.1,3.1
			c-0.4,0.5-1,0.7-1.6,0.7S101.6,196.2,101.2,195.8z"/>
		<path class="st2" d="M106.6,189.8c-0.9-0.8-1.1-2.1-0.3-3.1c0.8-0.9,2.1-1.1,3.1-0.3s1.1,2.1,0.3,3.1c-0.4,0.5-1,0.8-1.7,0.8
			C107.5,190.3,107,190.1,106.6,189.8z"/>
		<path class="st2" d="M111.7,183.4c-1-0.7-1.2-2.1-0.5-3.1s2.1-1.2,3.1-0.5s1.2,2.1,0.5,3c-0.4,0.6-1.1,0.9-1.8,0.9
			C112.5,183.8,112.1,183.7,111.7,183.4z"/>
		<path class="st2" d="M116.2,176.7c-1-0.6-1.4-1.9-0.8-3c0.6-1,1.9-1.4,3-0.8c1.1,0.6,1.4,1.9,0.8,3c-0.4,0.7-1.2,1.1-1.9,1.1
			C117,177,116.6,176.9,116.2,176.7z"/>
		<path class="st2" d="M120.1,169.5c-1.1-0.5-1.6-1.8-1.1-2.9c0.5-1.1,1.8-1.6,2.9-1.1s1.6,1.8,1.1,2.9c-0.4,0.8-1.2,1.3-2,1.3
			C120.7,169.7,120.4,169.7,120.1,169.5z"/>
		<path class="st2" d="M123.2,162c-1.2-0.3-1.8-1.6-1.5-2.7c0.3-1.2,1.6-1.8,2.7-1.5c1.2,0.3,1.8,1.6,1.5,2.7
			c-0.3,1-1.2,1.6-2.1,1.6C123.6,162.1,123.4,162.1,123.2,162z"/>
		<path class="st2" d="M71.5,110.1c-0.6,0-1.1-0.2-1.5-0.7c-0.4-0.4-0.6-1-0.6-1.5c0-0.6,0.2-1.1,0.6-1.6c0.8-0.8,2.3-0.8,3.1,0
			c0.4,0.4,0.6,1,0.6,1.6s-0.2,1.1-0.6,1.5S72.1,110.1,71.5,110.1z"/>
		<path class="st2" d="M91.1,106.2c-0.6,0-1.1-0.2-1.5-0.6s-0.6-1-0.6-1.6s0.2-1.1,0.6-1.6c0.8-0.8,2.3-0.8,3.1,0
			c0.4,0.4,0.6,1,0.6,1.6s-0.2,1.1-0.6,1.6C92.2,105.9,91.7,106.2,91.1,106.2z"/>
		<path class="st2" d="M101.6,106.2c-0.6,0-1.2-0.2-1.6-0.6s-0.6-1-0.6-1.6s0.2-1.1,0.6-1.6c0.8-0.8,2.3-0.8,3.1,0
			c0.4,0.4,0.6,1,0.6,1.6s-0.2,1.1-0.6,1.6C102.8,105.9,102.2,106.2,101.6,106.2z"/>
		<path class="st2" d="M57.8,110.1c-0.6,0-1.2-0.2-1.5-0.7c-0.4-0.4-0.7-1-0.7-1.5c0-0.6,0.2-1.1,0.7-1.6c0.8-0.8,2.3-0.8,3.1,0
			c0.4,0.4,0.6,1,0.6,1.6s-0.2,1.1-0.6,1.5C58.9,109.8,58.4,110.1,57.8,110.1z"/>
		<path class="st2" d="M38.2,106.2c-0.6,0-1.1-0.2-1.5-0.6s-0.6-1-0.6-1.6s0.2-1.1,0.6-1.6c0.8-0.8,2.3-0.8,3.1,0
			c0.4,0.4,0.6,1,0.6,1.6s-0.2,1.1-0.6,1.6C39.4,105.9,38.8,106.2,38.2,106.2z"/>
		<path class="st2" d="M48.4,107.1c-0.6,0-1.1-0.2-1.5-0.6s-0.7-1-0.7-1.5c0-0.6,0.2-1.1,0.7-1.6c0.8-0.8,2.3-0.8,3.1,0
			c0.4,0.4,0.6,1,0.6,1.6s-0.2,1.1-0.6,1.5C49.6,106.9,49,107.1,48.4,107.1z"/>
		<path class="st2" d="M27.7,106.2c-0.6,0-1.1-0.2-1.5-0.6s-0.6-1-0.6-1.6s0.2-1.1,0.6-1.6c0.8-0.8,2.3-0.8,3.1,0
			c0.4,0.4,0.6,1,0.6,1.6s-0.2,1.1-0.6,1.6C28.8,105.9,28.3,106.2,27.7,106.2z"/>
		<path class="st2" d="M92.4,224.1c-0.1,0.4-0.4,0.7-0.9,1c-1.3,0.8-3.5,0.9-5,0.1c-0.3-0.1-12.5-6-45.6,2.3
			c-0.4,0.1-0.9,0.2-1.4,0.2c-1.4,0-2.7-0.5-3.3-1.3c-0.2-0.4-0.3-0.7-0.2-1.1c0.1-0.4,0.4-0.8,0.8-1.1c0.3-0.3,0.8-0.5,1.3-0.6
			c35.8-8.9,50.7-2.7,52.9-1.6c0.2,0.1,0.2,0.1,0.3,0.1C92.3,222.6,92.7,223.4,92.4,224.1z"/>
		<path class="st2" d="M160.6,35.1c0.3,0.1,0.6,0.3,0.8,0.5c0.9,0.9,0.9,2.2,0,3.1l-38.6,38.6l-2,1.9l-0.9,0.9c-0.7,0.7-1.5,1-2.4,1
			s-1.8-0.4-2.4-1l-2.4-2.4l-8.2-8.2c-0.7-0.7-1-1.5-1-2.4s0.4-1.8,1-2.4l14-14l2.9-2.9l24.5-24.5c0.9-0.8,2.2-0.8,3.1,0
			c0.2,0.2,0.4,0.5,0.5,0.8"/>
		<line class="st2" x1="135.5" y1="58.3" x2="156.6" y2="37.2"/>
		<polyline class="st2" points="148.3,26.8 125.1,50 123,52.1 108.2,67 117.5,76.3 133.4,60.4 		"/>
		<path class="st2" d="M95.4,89.1l-2.1-2c-0.5-0.5-0.8-1.3-0.8-2c0-0.8,0.3-1.5,0.8-2l3-2.9l7.9-7.8c0.7-0.7,1.9-0.7,2.6,0l5.7,5.6
			c0.7,0.7,0.7,1.9,0,2.6l-9.7,9.6l-0.5,0.5l-0.7,0.6c-0.5,0.5-1.3,0.8-2,0.8c-0.8,0-1.5-0.3-2-0.8L96,89.7"/>
		<path class="st2" d="M96,89.7c0.4,0.7,0.3,1.6-0.3,2.2l-16.1,15.6c-0.4,0.4-0.8,0.5-1.3,0.5s-1-0.2-1.3-0.5
			c-0.7-0.7-0.7-1.8,0-2.6l16.1-15.6c0.6-0.6,1.6-0.7,2.3-0.2c0.1,0.1,0.2,0.2,0.3,0.2C95.8,89.4,95.9,89.6,96,89.7z"/>
		<path class="st2" d="M123,69.4c-0.5,0-1-0.2-1.4-0.6l-3.3-3.3c-0.8-0.8-0.8-2.1,0-2.8c0.8-0.8,2.1-0.8,2.9,0l3.3,3.3
			c0.8,0.8,0.8,2.1,0,2.9C124,69.2,123.5,69.4,123,69.4z"/>
		<path class="st2" d="M142.8,49.9c-0.6,0-1.1-0.2-1.5-0.6l-3.6-3.6c-0.9-0.9-0.9-2.2,0-3.1c0.9-0.9,2.2-0.9,3.1,0l3.6,3.6
			c0.9,0.9,0.9,2.2,0,3.1C143.9,49.6,143.3,49.9,142.8,49.9z"/>
		<path class="st2" d="M135.5,58.3c0,0.5-0.2,1.1-0.6,1.5c-0.4,0.4-0.9,0.6-1.5,0.6c0,0,0,0-0.1,0c-0.5,0-1-0.2-1.4-0.6l-5.8-5.8
			c-0.8-0.8-0.8-2.1,0-2.9c0.8-0.8,2.1-0.8,2.9,0l5.8,5.8C135.3,57.3,135.5,57.8,135.5,58.3z"/>
		<path class="st2" d="M160.6,35.1c-0.1,0.7-0.3,1.3-0.7,1.8c-0.5,0.6-1.1,0.9-1.8,0.9c-0.5,0-1-0.2-1.4-0.5
			c-0.1-0.1-0.3-0.2-0.4-0.4l-7.2-8.4c-0.4-0.5-0.6-1-0.7-1.6c-0.1-0.9,0.1-1.9,0.7-2.6c0.1-0.1,0.2-0.3,0.4-0.4
			c1-0.8,2.3-0.6,3.2,0.4l7.2,8.4C160.4,33.3,160.7,34.2,160.6,35.1z"/>
	</g>
</g>
</svg>
