<?xml version="1.0" encoding="utf-8"?>
<!-- Generator: Adobe Illustrator 28.3.0, SVG Export Plug-In . SVG Version: 6.00 Build 0)  -->
<svg version="1.1" id="a" xmlns="http://www.w3.org/2000/svg" xmlns:xlink="http://www.w3.org/1999/xlink" x="0px" y="0px"
	 viewBox="0 0 512 512" style="enable-background:new 0 0 512 512;" xml:space="preserve">
<style type="text/css">
	.st0{fill:#FFFFFF;}
</style>
<g>
	<path class="st0" d="M496,64.4c0.1,54-17.3,82.1-27.7,94c-16.8,19.2-30.5,44.6-41,75.6c-5.2-7.5-11.5-16.9-15.3-23.9
		c-7.8-14.2-11.4-25.5-12.6-29.9c1.3-3.9,2.3-7.9,3-11.8c9.1-7.2,41.1-33,56.2-50.1c17.5-20,29.5-41.3,37.4-58.8
		C496,61.8,496,63.5,496,64.4L496,64.4z"/>
	<path class="st0" d="M494.6,16c-0.4,0.7-0.7,1.5-0.9,2.3c-0.1,0.5-11.3,48.6-47.1,89.5c-10.1,11.6-29.5,28.1-42.6,38.9
		c-0.5-9.8-2.6-19.2-6.4-27.4c-6.3-13.8-16.6-23.4-29.6-27.7c-21.1-6.9-38.2,3.1-49.2,14.8c-0.5-1.6-1-3.3-1.6-5.1
		c-2.5-7.9-5.3-14.7-8.3-20.5c18.9-1.1,53.1-4.4,80-14.4c38.2-14.2,71.8-34.9,93.9-50.4H494.6z"/>
	<path class="st0" d="M453.8,16c-19.5,12.2-43.9,25.5-70.5,35.4c-30.5,11.3-72.9,13.5-85.2,13.9c-15-15-27.2-23.9-49.9-36.5
		c-5.7-3.1-12-6-18.7-8.9c-2.8-1.2-5.6-2.5-8.5-3.8L453.8,16z"/>
	<path class="st0" d="M118.6,384.5c-1.6,0.5-3.3,1-4.9,1.5c-0.8,0.2-1.5,0.3-2.2,0.3c-3.5,0-6.7-2.3-7.7-5.8
		c-1.2-4.2,1.2-8.7,5.4-9.9c1.5-0.4,3-0.9,4.5-1.4c4.2-1.3,8.7,1,10,5.2C125.2,378.7,122.8,383.2,118.6,384.5z M159.6,368.6
		c-2.7,1.2-5.4,2.3-8,3.4c-1,0.4-2.1,0.6-3.1,0.6c-3.1,0-6.1-1.9-7.4-4.9c-1.7-4.1,0.2-8.8,4.3-10.5c2.6-1.1,5.2-2.2,7.9-3.4
		c4.1-1.7,8.8,0.2,10.5,4.2C165.6,362.2,163.7,366.9,159.6,368.6L159.6,368.6z M199.5,351.4c-2.6,1.2-5.3,2.4-8,3.6
		c-1.1,0.5-2.1,0.7-3.2,0.7c-3.1,0-6-1.8-7.3-4.8c-1.8-4,0-8.8,4.1-10.6c2.6-1.2,5.2-2.3,7.8-3.5c4-1.9,8.8-0.1,10.6,3.9
		C205.3,344.8,203.5,349.5,199.5,351.4L199.5,351.4z M219.7,495.9h228.7c-10.1-15.3-21.3-39-29.7-75.1c-17.6-76.5-4.7-136-3.8-139.8
		c2-9.6,4.1-18.7,6.6-27.5c-4.4-6.1-16.9-23.8-23.4-35.5c-3.2-5.9-5.8-11.3-7.9-16.1c-15.6,30.4-32.3,40.6-44.3,43.7
		c-4.7,1.2-9.1,1.8-13.1,1.8c-7.6,0-14-2.2-19.1-6.5c-11.7-10-10.5-27-10.4-28.9c0.4-4.4,4.3-7.6,8.7-7.2c4.4,0.4,7.6,4.3,7.2,8.7
		c-0.2,2.9,0.2,11.4,4.9,15.3c4.4,3.7,12.1,2.8,17.8,1.3c14.2-3.6,28.8-21.5,40.2-49c7.6-18.4,8-39.5,0.8-55.1
		c-3.1-6.7-9.1-15.5-20.1-19.1c-24.9-8.2-40,20.7-40.7,21.9c-1.6,3-4.9,4.8-8.3,4.3s-6.1-3.1-6.7-6.4c-1.8-9.6-8.6-35.8-18.7-48
		c-0.1-0.1-0.1-0.2-0.2-0.2c-0.5-0.6-1-1.2-1.5-1.7c-14-14-24.9-22-46.4-33.9c-5-2.8-10.8-5.3-17.4-8.3
		C212.2,29.7,200,24.3,186.9,16H52.5c-4.1,34.5,1.9,62.5,5.9,81.4c1.8,8.2,3.1,14.8,3.4,20.2c0.8,13.5-11.4,35.1-28.5,64.2
		c-7.1,12-16.8,28.4-17.3,32.8c0.2,6.2,14.5,12.9,23,16.8c10.8,5,19.4,9,19.4,17.4c0,6.4-3.6,11.3-6.8,15.6
		c-2.2,3.1-4.6,6.2-4.2,8.3c0.8,4.9,10.3,6.6,12.8,6.8c3.1,0.2,5.8,2.2,6.9,5.1s0.4,6.2-1.8,8.4c-3.6,3.7-7.3,10.2-6,11.5
		c1.8,1.8,4,2.9,6.4,4.2c6.3,3.2,14.9,7.6,16,24c0.3,5.2-0.1,11-0.5,16.7c-1.3,18.1-0.8,26,5.9,28.1c0.9,0.3,1.7,0.7,2.4,1.2
		c0.2,0.2,25.9,18.9,50.2,13.7c39.6-8.4,80.4-51.8,82.8-54.4c0.4-0.5,0.9-1,1.3-1.6c-1.6-0.7-3-2-3.9-3.7c-2-3.9-0.4-8.8,3.5-10.7
		c2.7-1.4,4.3-2.2,4.3-2.2c3.2-1.6,7-0.9,9.4,1.5c12.3-13.6,25.2-27.2,26-28c3-3.2,8.1-3.3,11.3-0.3c3.2,3,3.3,8.1,0.3,11.3
		c-0.3,0.3-27.1,28.5-40.1,44.1c-0.1,0.1-0.1,0.2-0.2,0.3c-0.3,0.3-5.3,5.8-13.5,13.3c3.6,15.5,10.9,55.1,4.9,100.8
		C225.3,468.1,223.1,483.3,219.7,495.9L219.7,495.9z M160.5,136.9c-0.9,3.7-4.2,6.1-7.8,6.1c-0.6,0-1.2-0.1-1.9-0.2
		c-0.3-0.1-2.1-0.5-4.9-1.2c-4.1,2.1-15.7,7.9-26.4,11.1c-10.8,3.3-25,6.1-25.5,6.2c-0.5,0.1-1,0.1-1.5,0.1c-3.8,0-7.1-2.6-7.8-6.5
		c-0.7-3.4,0.9-6.6,3.6-8.3c-1.3-3.4-2.5-7.7-2.9-12.8c-0.5-5.7-0.2-10.2,0.3-13.6c-9.8-5.9-14.2-9.8-14.5-10
		c-3.3-2.9-3.6-8-0.7-11.3c2.9-3.3,8-3.6,11.3-0.7c0.1,0.1,7.6,6.5,25.2,15.5c16.1,8.3,47.4,15.8,47.7,15.9
		C158.9,128.3,161.5,132.6,160.5,136.9L160.5,136.9z M168.2,93.2c-1.6,1.7-3.8,2.6-5.9,2.6c-1.9,0-3.8-0.7-5.4-2.1
		c-0.1-0.1-9.3-8.4-22.2-15.5c-11.2-6.2-27.4-12.7-41.7-8.8c-8.2,2.2-13.7,7.6-13.8,7.7c-3.1,3.1-8.2,3-11.3-0.1s-3.1-8.2,0-11.3
		c0.8-0.8,8.7-8.4,20.8-11.7c36.6-10,77.1,26.2,78.8,27.8C170.9,84.8,171.2,89.9,168.2,93.2z"/>
	<path class="st0" d="M122.5,134.7c-2.5,1-5.1,1.9-7.6,2.7c-3.4,1-7.3,2-10.9,2.9c-1.1-2.2-2.3-5.7-2.7-10.2
		c-0.1-1.4-0.2-2.6-0.2-3.8C107.4,129.4,115.1,132.3,122.5,134.7z"/>
</g>
<path class="st0" d="M157.5,423.5c-1.5-1.7-3.7-2.6-5.9-2.6s-4.4,0.9-5.9,2.6l-20,21.8c-3,3.3-2.8,8.3,0.5,11.3
	c3.3,3,8.3,2.8,11.3-0.5l6.1-6.7v27.4c0,4.4,3.6,8,8,8s8-3.6,8-8v-27.4l6.1,6.7c1.6,1.7,3.7,2.6,5.9,2.6c1.9,0,3.9-0.7,5.4-2.1
	c3.3-3,3.5-8,0.5-11.3L157.5,423.5L157.5,423.5z"/>
</svg>
