<?xml version="1.0" encoding="utf-8"?>
<!-- Generator: Adobe Illustrator 25.0.1, SVG Export Plug-In . SVG Version: 6.00 Build 0)  -->
<svg version="1.1" id="PRINT" xmlns="http://www.w3.org/2000/svg" xmlns:xlink="http://www.w3.org/1999/xlink" x="0px" y="0px"
	 viewBox="0 0 306.6 320.9" style="enable-background:new 0 0 306.6 320.9;" xml:space="preserve">
<style type="text/css">
	.st0{fill:#BABABA;}
	.st1{fill:#FFFFFF;}
	.st2{fill:none;stroke:#000000;stroke-width:0.5;stroke-miterlimit:10;}
	.st3{display:none;fill:#F0F5FF;stroke:#999999;stroke-miterlimit:10;}
	.st4{fill:none;stroke:#000000;stroke-width:0.5;stroke-linecap:round;stroke-linejoin:round;}
	.st5{fill:#BABABA;stroke:#000000;stroke-width:0.5;stroke-miterlimit:10;}
	.st6{font-family:'ArialMT';}
	.st7{font-size:34.2555px;}
</style>
<g id="XMLID_1_">
	<g>
		<path class="st0" d="M305.8,160.4c0,2.7-0.1,5.5-0.2,8.2l-3-0.1c0.1-2.7,0.2-5.4,0.2-8.1C302.8,74,235.9,3.9,153.3,3.9
			C70.7,3.9,3.8,74,3.8,160.4c0,2.7,0.1,5.4,0.2,8.1l-3,0.1c-0.1-2.7-0.2-5.4-0.2-8.2C0.8,72.3,69.1,0.8,153.3,0.8
			C237.5,0.8,305.8,72.3,305.8,160.4z"/>
		<path class="st0" d="M302.6,168.5l3,0.1c-4.1,84.4-70.7,151.4-152.3,151.4C71.7,320.1,5.1,253,1,168.6l3-0.1
			c4,82.7,69.3,148.4,149.3,148.4C233.3,316.9,298.6,251.2,302.6,168.5z"/>
		<path class="st1" d="M302.8,160.4c0,2.7-0.1,5.4-0.2,8.1c-4,82.7-69.3,148.4-149.3,148.4C73.3,316.9,8,251.2,4,168.5
			c-0.1-2.7-0.2-5.4-0.2-8.1C3.8,74,70.7,3.9,153.3,3.9C235.9,3.9,302.8,74,302.8,160.4z"/>
	</g>
	<g>
		<path class="st2" d="M302.6,168.5c0.1-2.7,0.2-5.4,0.2-8.1C302.8,74,235.9,3.9,153.3,3.9C70.7,3.9,3.8,74,3.8,160.4
			c0,2.7,0.1,5.4,0.2,8.1c4,82.7,69.3,148.4,149.3,148.4C233.3,316.9,298.6,251.2,302.6,168.5z"/>
		<path class="st2" d="M305.6,168.6c0.1-2.7,0.2-5.4,0.2-8.2c0-88.2-68.3-159.6-152.5-159.6C69.1,0.8,0.8,72.3,0.8,160.4
			c0,2.7,0.1,5.5,0.2,8.2C5.1,253,71.7,320.1,153.3,320.1C234.9,320.1,301.5,253,305.6,168.6z"/>
	</g>
</g>
<rect id="CUSTOM-Background" x="-102.7" y="-89.4" class="st3" width="500" height="500"/>
<g id="CUSTOM-Group">
	<g id="XMLID_2_">
		<g>
			<path class="st0" d="M222.9,118.3v83.4c0,2.4-1,4.6-2.6,6.1c-1.6,1.6-3.8,2.5-6.1,2.5h-65c-2.4,0-4.6-1-6.1-2.5
				c-1.6-1.6-2.6-3.8-2.6-6.1V94c0-5.1,1.5-9.9,4-14c2.3-3.7,5.5-6.8,9.3-9c0-7.8,0-15.7,0-23.6c0-2.4,1-4.6,2.6-6.2
				c1.6-1.6,3.8-2.5,6.1-2.5h38.3c2.4,0,4.6,1,6.1,2.5c1.6,1.6,2.6,3.8,2.6,6.2V71c3.8,2.2,7,5.3,9.3,9c2.6,4.1,4,8.9,4,14v11.7
				c0,1.5-1.2,2.8-2.8,2.8c-1.5,0-2.8-1.2-2.8-2.8v-8.9h-71.3v83.9h71.3v-62.4c0-1.5,1.2-2.8,2.8-2.8
				C221.7,115.5,222.9,116.8,222.9,118.3z M217.3,201.7v-15.5h-71.3v15.5c0,0.9,0.3,1.6,0.9,2.2c0.6,0.6,1.4,0.9,2.2,0.9h65
				c0.9,0,1.6-0.3,2.2-0.9C217,203.4,217.3,202.6,217.3,201.7z M146.2,91.2h70.9c-0.4-3-1.4-5.8-3-8.2c-2-3.2-4.8-5.7-8.1-7.5h-48.8
				c-3.3,1.7-6.1,4.3-8.1,7.5C147.7,85.4,146.6,88.2,146.2,91.2z M204,69.9v-4.6h-6c-1.5,0-2.8-1.2-2.8-2.8c0-1.5,1.2-2.8,2.8-2.8h6
				v-5.2h-6c-1.5,0-2.8-1.2-2.8-2.8c0-1.5,1.2-2.8,2.8-2.8h6v-1.5c0-0.9-0.4-1.6-0.9-2.2c-0.6-0.6-1.3-0.9-2.2-0.9h-38.3
				c-0.9,0-1.6,0.4-2.2,0.9c-0.6,0.6-0.9,1.3-0.9,2.2v1.5h6c1.6,0,2.8,1.2,2.8,2.8c0,1.5-1.2,2.8-2.8,2.8h-6v5.2h6
				c1.6,0,2.8,1.2,2.8,2.8c0,1.5-1.2,2.8-2.8,2.8h-6v4.6H204z"/>
			<path class="st1" d="M217.3,186.2v15.5c0,0.9-0.4,1.6-0.9,2.2c-0.6,0.6-1.4,0.9-2.2,0.9h-65c-0.9,0-1.6-0.3-2.2-0.9
				c-0.6-0.6-0.9-1.4-0.9-2.2v-15.5H217.3z"/>
			<path class="st1" d="M217.2,91.2h-70.9c0.4-3,1.5-5.8,3-8.2c2-3.2,4.8-5.7,8.1-7.5h48.8c3.3,1.7,6.1,4.3,8.1,7.5
				C215.7,85.4,216.8,88.2,217.2,91.2z"/>
			<path class="st0" d="M211.5,131.4c0.6,2.7,0.4,5.6-0.5,8.4c-0.9,2.6-2.4,5.2-4.6,7.4c-2.2,2.2-4.7,3.7-7.4,4.6
				c-2.3,0.8-4.6,1-6.8,0.8l-7.7,7.7v11.3c0,1.5-1.2,2.8-2.8,2.8c-1.5,0-2.8-1.2-2.8-2.8v-11.3l-7.7-7.7c-2.2,0.2-4.6,0-6.8-0.8
				c-2.7-0.9-5.2-2.4-7.4-4.6c-2.2-2.2-3.7-4.7-4.6-7.4c-0.9-2.8-1.1-5.7-0.5-8.4c0.2-1.1,1.1-1.9,2.2-2.1c2.7-0.6,5.5-0.4,8.3,0.5
				c2.7,0.9,5.2,2.4,7.4,4.6c2.2,2.2,3.7,4.7,4.6,7.4c0.8,2.3,1,4.6,0.8,6.8l3.8,3.8v-18.7c-1.7-1.4-3.2-3.2-4.3-5.4
				c-1.3-2.5-2-5.4-2-8.5c0-3.1,0.7-6,2-8.5c1.3-2.6,3.2-4.8,5.6-6.3c1-0.6,2.2-0.6,3.1,0c2.3,1.5,4.2,3.7,5.5,6.3
				c1.2,2.5,2,5.4,2,8.5c0,3.1-0.7,6-2,8.5c-1.1,2.1-2.5,4-4.3,5.4v18.7l3.8-3.8c-0.2-2.2,0-4.6,0.8-6.8c0.9-2.7,2.4-5.2,4.6-7.4
				c2.2-2.2,4.7-3.7,7.4-4.6c2.8-0.9,5.6-1.1,8.3-0.5C210.4,129.4,211.3,130.2,211.5,131.4z M206.3,134.5c-1.2,0-2.4,0.2-3.6,0.6
				c-1.8,0.6-3.6,1.7-5.2,3.2c-1.5,1.5-2.6,3.3-3.2,5.2c-0.4,1.2-0.6,2.4-0.6,3.5c1.2,0,2.4-0.2,3.6-0.6c1.8-0.6,3.6-1.7,5.2-3.2
				c1.5-1.6,2.6-3.3,3.2-5.2C206.1,136.8,206.3,135.6,206.3,134.5z M185.2,119.8c0-2.2-0.5-4.2-1.4-6c-0.6-1.1-1.3-2.1-2.1-2.9
				c-0.8,0.8-1.6,1.8-2.1,2.9c-0.9,1.7-1.4,3.8-1.4,6c0,2.2,0.5,4.2,1.4,6c0.6,1.1,1.3,2.1,2.1,2.9c0.8-0.8,1.5-1.8,2.1-2.9
				C184.7,124,185.2,122,185.2,119.8z M169.6,147c0-1.2-0.2-2.4-0.6-3.5c-0.6-1.8-1.7-3.6-3.2-5.2c-1.6-1.5-3.3-2.6-5.2-3.2
				c-1.2-0.4-2.4-0.6-3.6-0.6c0,1.2,0.2,2.4,0.6,3.5c0.6,1.9,1.7,3.6,3.2,5.2c1.5,1.6,3.3,2.6,5.2,3.2
				C167.3,146.8,168.5,147,169.6,147z"/>
			<path class="st1" d="M202.8,135c1.2-0.4,2.4-0.6,3.6-0.6c0,1.2-0.2,2.4-0.6,3.5c-0.6,1.9-1.7,3.6-3.2,5.2
				c-1.6,1.6-3.3,2.6-5.2,3.2c-1.2,0.4-2.4,0.6-3.6,0.6c0-1.2,0.2-2.4,0.6-3.5c0.6-1.8,1.7-3.6,3.2-5.2
				C199.1,136.7,200.9,135.7,202.8,135z"/>
			<path class="st1" d="M204,65.3v4.6h-44.5v-4.6h6c1.6,0,2.8-1.2,2.8-2.8c0-1.5-1.2-2.8-2.8-2.8h-6v-5.2h6c1.6,0,2.8-1.2,2.8-2.8
				c0-1.5-1.2-2.8-2.8-2.8h-6v-1.5c0-0.9,0.3-1.6,0.9-2.2c0.6-0.6,1.3-0.9,2.2-0.9h38.3c0.9,0,1.6,0.4,2.2,0.9
				c0.6,0.6,0.9,1.3,0.9,2.2v1.5h-6c-1.5,0-2.8,1.2-2.8,2.8c0,1.5,1.2,2.8,2.8,2.8h6v5.2h-6c-1.5,0-2.8,1.2-2.8,2.8
				c0,1.5,1.2,2.8,2.8,2.8H204z"/>
			<path class="st1" d="M183.8,113.8c0.9,1.7,1.4,3.8,1.4,6c0,2.2-0.5,4.2-1.4,6c-0.6,1.1-1.3,2.1-2.1,2.9c-0.8-0.8-1.5-1.8-2.1-2.9
				c-0.9-1.7-1.4-3.8-1.4-6c0-2.2,0.5-4.2,1.4-6c0.5-1.1,1.3-2.1,2.1-2.9C182.5,111.7,183.2,112.7,183.8,113.8z"/>
			<path class="st1" d="M169.1,143.5c0.4,1.2,0.6,2.4,0.6,3.5c-1.2,0-2.4-0.2-3.6-0.6c-1.8-0.6-3.6-1.7-5.2-3.2
				c-1.6-1.6-2.6-3.3-3.2-5.2c-0.4-1.2-0.6-2.4-0.6-3.5c1.2,0,2.4,0.2,3.6,0.6c1.8,0.6,3.6,1.7,5.2,3.2
				C167.4,139.8,168.4,141.6,169.1,143.5z"/>
			<path class="st0" d="M120.4,70.7c1.6,1.6,2.5,3.7,2.5,6.1c0,2.4-1,4.5-2.5,6.1c-0.9,0.9-2,1.6-3.3,2.1v55.9
				c0,2.4-0.6,4.7-1.7,6.7c-0.9,1.6-2.1,3-3.5,4.1v13.2c0,2.4-1,4.5-2.5,6.1c-1.6,1.6-3.7,2.5-6.1,2.5c-2.4,0-4.5-1-6.1-2.5
				c-1.6-1.6-2.5-3.7-2.5-6.1v-13.2c-1.4-1.1-2.6-2.5-3.5-4.1c-1.1-2-1.8-4.3-1.8-6.7V118c0-1.6,1.2-2.8,2.8-2.8s2.8,1.2,2.8,2.8
				v22.8c0,1.5,0.4,2.8,1,4c0.7,1.2,1.7,2.3,2.9,3c0.8,0.5,1.3,1.4,1.3,2.3v14.6c0,0.8,0.3,1.6,0.9,2.1c0.5,0.5,1.3,0.9,2.1,0.9
				c0.8,0,1.6-0.4,2.1-0.9c0.6-0.6,0.9-1.3,0.9-2.1v-14.6c0-1.1,0.6-1.9,1.4-2.4c1.1-0.7,2.1-1.7,2.8-2.9c0.7-1.2,1-2.5,1-4V85.4
				H95.1v20c0,1.5-1.2,2.8-2.8,2.8s-2.8-1.2-2.8-2.8V84.9c-1.2-0.4-2.4-1.1-3.3-2.1c-1.6-1.6-2.5-3.7-2.5-6.1c0-2.4,1-4.5,2.5-6.1
				c0.9-0.9,2-1.6,3.3-2V34.1c0-3.8,1.6-7.3,4.1-9.8c2.5-2.5,6-4.1,9.8-4.1c3.8,0,7.3,1.6,9.8,4.1c2.5,2.5,4.1,6,4.1,9.8v9.7
				c0,1.5-1.2,2.8-2.8,2.8c-1.5,0-2.8-1.2-2.8-2.8v-9.7c0-2.3-0.9-4.3-2.4-5.8c-1.5-1.5-3.5-2.4-5.8-2.4c-2.3,0-4.3,0.9-5.8,2.4
				c-1.5,1.5-2.4,3.5-2.4,5.8v34.2h16.5V56.4c0-1.5,1.2-2.8,2.8-2.8c1.5,0,2.8,1.2,2.8,2.8v12.3C118.4,69.1,119.5,69.8,120.4,70.7z
				 M117.4,76.8c0-0.8-0.3-1.6-0.9-2.1c-0.6-0.6-1.3-0.9-2.1-0.9H92.3c-0.8,0-1.6,0.3-2.1,0.9c-0.5,0.5-0.9,1.3-0.9,2.1
				c0,0.8,0.3,1.6,0.9,2.1c0.5,0.5,1.3,0.9,2.1,0.9h22.1c0.8,0,1.6-0.3,2.1-0.9C117,78.4,117.4,77.6,117.4,76.8z"/>
			<path class="st1" d="M116.5,74.7c0.6,0.5,0.9,1.3,0.9,2.1c0,0.8-0.3,1.6-0.9,2.1c-0.6,0.5-1.3,0.9-2.1,0.9H92.3
				c-0.8,0-1.6-0.3-2.1-0.9c-0.5-0.6-0.9-1.3-0.9-2.1c0-0.8,0.3-1.6,0.9-2.1c0.5-0.6,1.3-0.9,2.1-0.9h22.1
				C115.2,73.8,115.9,74.1,116.5,74.7z"/>
			<path class="st0" d="M112.4,189.8c1.7,3,2.7,6,2.7,8.8c0,3.3-1.3,6.2-3.5,8.3c-2.1,2.1-5.1,3.4-8.3,3.4c-3.2,0-6.2-1.3-8.3-3.4
				c-2.1-2.1-3.4-5.1-3.4-8.3c0-2.8,1-5.8,2.7-8.8c1.8-3.2,4.3-6.5,7.1-9.4c1.1-1.2,2.9-1.2,4,0
				C108.1,183.3,110.7,186.6,112.4,189.8z M107.7,203c1.1-1.1,1.8-2.7,1.8-4.4c0-1.8-0.7-3.9-2-6.2c-1.1-2-2.6-4.1-4.2-6
				c-1.7,2-3.1,4-4.2,6c-1.2,2.2-2,4.3-2,6.2c0,1.7,0.7,3.3,1.8,4.4c1.1,1.1,2.7,1.8,4.4,1.8C105,204.8,106.6,204.1,107.7,203z"/>
			<path class="st1" d="M109.5,198.6c0,1.7-0.7,3.3-1.8,4.4c-1.1,1.1-2.7,1.8-4.4,1.8c-1.7,0-3.3-0.7-4.4-1.8
				c-1.1-1.1-1.8-2.7-1.8-4.4c0-1.8,0.7-3.9,2-6.2c1.1-2,2.6-4.1,4.2-6c1.7,2,3.1,4,4.2,6C108.8,194.7,109.5,196.8,109.5,198.6z"/>
		</g>
		<g>
			<path class="st4" d="M105.3,180.3c2.8,3,5.3,6.2,7.1,9.4c1.7,3,2.7,6,2.7,8.8c0,3.3-1.3,6.2-3.5,8.3c-2.1,2.1-5.1,3.4-8.3,3.4
				c-3.2,0-6.2-1.3-8.3-3.4c-2.1-2.1-3.4-5.1-3.4-8.3c0-2.8,1-5.8,2.7-8.8c1.8-3.2,4.3-6.5,7.1-9.4
				C102.4,179.2,104.2,179.2,105.3,180.3z"/>
			<path class="st4" d="M197.9,65.3c-1.5,0-2.8-1.2-2.8-2.8c0-1.5,1.2-2.8,2.8-2.8h6v-5.2h-6c-1.5,0-2.8-1.2-2.8-2.8
				c0-1.5,1.2-2.8,2.8-2.8h6v-1.5c0-0.9-0.4-1.6-0.9-2.2c-0.6-0.6-1.3-0.9-2.2-0.9h-38.3c-0.9,0-1.6,0.4-2.2,0.9
				c-0.6,0.6-0.9,1.3-0.9,2.2v1.5h6c1.6,0,2.8,1.2,2.8,2.8c0,1.5-1.2,2.8-2.8,2.8h-6v5.2h6c1.6,0,2.8,1.2,2.8,2.8
				c0,1.5-1.2,2.8-2.8,2.8h-6v4.6H204v-4.6H197.9z"/>
			<path class="st4" d="M192.2,152.5l-7.7,7.7v11.3c0,1.5-1.2,2.8-2.8,2.8c-1.5,0-2.8-1.2-2.8-2.8v-11.3l-7.7-7.7
				c-2.2,0.2-4.6,0-6.8-0.8c-2.7-0.9-5.2-2.4-7.4-4.6c-2.2-2.2-3.7-4.7-4.6-7.4c-0.9-2.8-1.1-5.7-0.5-8.4c0.2-1.1,1.1-1.9,2.2-2.1
				c2.7-0.6,5.5-0.4,8.3,0.5c2.7,0.9,5.2,2.4,7.4,4.6c2.2,2.2,3.7,4.7,4.6,7.4c0.8,2.3,1,4.6,0.8,6.8l3.8,3.8v-18.7
				c-1.7-1.4-3.2-3.2-4.3-5.4c-1.3-2.5-2-5.4-2-8.5c0-3.1,0.7-6,2-8.5c1.3-2.6,3.2-4.8,5.6-6.3c1-0.6,2.2-0.6,3.1,0
				c2.3,1.5,4.2,3.7,5.5,6.3c1.2,2.5,2,5.4,2,8.5c0,3.1-0.7,6-2,8.5c-1.1,2.1-2.5,4-4.3,5.4v18.7l3.8-3.8c-0.2-2.2,0-4.6,0.8-6.8
				c0.9-2.7,2.4-5.2,4.6-7.4c2.2-2.2,4.7-3.7,7.4-4.6c2.8-0.9,5.6-1.1,8.3-0.5c1.1,0.2,2,1,2.2,2.1c0.6,2.7,0.4,5.6-0.5,8.4
				c-0.9,2.6-2.4,5.2-4.6,7.4c-2.2,2.2-4.7,3.7-7.4,4.6C196.8,152.5,194.5,152.7,192.2,152.5z"/>
			<path class="st4" d="M193.8,147c1.2,0,2.4-0.2,3.6-0.6c1.8-0.6,3.6-1.7,5.2-3.2c1.5-1.6,2.6-3.3,3.2-5.2c0.4-1.2,0.6-2.4,0.6-3.5
				c-1.2,0-2.4,0.2-3.6,0.6c-1.8,0.6-3.6,1.7-5.2,3.2c-1.5,1.5-2.6,3.3-3.2,5.2C194,144.6,193.8,145.9,193.8,147z"/>
			<path class="st4" d="M166.1,146.4c1.2,0.4,2.4,0.6,3.6,0.6c0-1.2-0.2-2.4-0.6-3.5c-0.6-1.8-1.7-3.6-3.2-5.2
				c-1.6-1.5-3.3-2.6-5.2-3.2c-1.2-0.4-2.4-0.6-3.6-0.6c0,1.2,0.2,2.4,0.6,3.5c0.6,1.9,1.7,3.6,3.2,5.2
				C162.4,144.7,164.2,145.8,166.1,146.4z"/>
			<path class="st4" d="M179.6,125.8c0.6,1.1,1.3,2.1,2.1,2.9c0.8-0.8,1.5-1.8,2.1-2.9c0.9-1.7,1.4-3.8,1.4-6c0-2.2-0.5-4.2-1.4-6
				c-0.6-1.1-1.3-2.1-2.1-2.9c-0.8,0.8-1.6,1.8-2.1,2.9c-0.9,1.7-1.4,3.8-1.4,6C178.2,122,178.7,124,179.6,125.8z"/>
			<path class="st4" d="M117.1,68.7c1.3,0.4,2.4,1.1,3.3,2c1.6,1.6,2.5,3.7,2.5,6.1c0,2.4-1,4.5-2.5,6.1c-0.9,0.9-2,1.6-3.3,2.1
				v55.9c0,2.4-0.6,4.7-1.7,6.7c-0.9,1.6-2.1,3-3.5,4.1v13.2c0,2.4-1,4.5-2.5,6.1c-1.6,1.6-3.7,2.5-6.1,2.5c-2.4,0-4.5-1-6.1-2.5
				c-1.6-1.6-2.5-3.7-2.5-6.1v-13.2c-1.4-1.1-2.6-2.5-3.5-4.1c-1.1-2-1.8-4.3-1.8-6.7V118c0-1.6,1.2-2.8,2.8-2.8s2.8,1.2,2.8,2.8
				v22.8c0,1.5,0.4,2.8,1,4c0.7,1.2,1.7,2.3,2.9,3c0.8,0.5,1.3,1.4,1.3,2.3v14.6c0,0.8,0.3,1.6,0.9,2.1c0.5,0.5,1.3,0.9,2.1,0.9
				c0.8,0,1.6-0.4,2.1-0.9c0.6-0.6,0.9-1.3,0.9-2.1v-14.6c0-1.1,0.6-1.9,1.4-2.4c1.1-0.7,2.1-1.7,2.8-2.9c0.7-1.2,1-2.5,1-4V85.4
				H95.1v20c0,1.5-1.2,2.8-2.8,2.8s-2.8-1.2-2.8-2.8V84.9c-1.2-0.4-2.4-1.1-3.3-2.1c-1.6-1.6-2.5-3.7-2.5-6.1c0-2.4,1-4.5,2.5-6.1
				c0.9-0.9,2-1.6,3.3-2V34.1c0-3.8,1.6-7.3,4.1-9.8c2.5-2.5,6-4.1,9.8-4.1c3.8,0,7.3,1.6,9.8,4.1c2.5,2.5,4.1,6,4.1,9.8v9.7
				c0,1.5-1.2,2.8-2.8,2.8c-1.5,0-2.8-1.2-2.8-2.8v-9.7c0-2.3-0.9-4.3-2.4-5.8c-1.5-1.5-3.5-2.4-5.8-2.4c-2.3,0-4.3,0.9-5.8,2.4
				c-1.5,1.5-2.4,3.5-2.4,5.8v34.2h16.5V56.4c0-1.5,1.2-2.8,2.8-2.8c1.5,0,2.8,1.2,2.8,2.8V68.7z"/>
			<path class="st4" d="M92.3,73.8c-0.8,0-1.6,0.3-2.1,0.9c-0.5,0.5-0.9,1.3-0.9,2.1c0,0.8,0.3,1.6,0.9,2.1c0.5,0.5,1.3,0.9,2.1,0.9
				h22.1c0.8,0,1.6-0.3,2.1-0.9c0.6-0.6,0.9-1.3,0.9-2.1c0-0.8-0.3-1.6-0.9-2.1c-0.6-0.6-1.3-0.9-2.1-0.9H92.3z"/>
			<path class="st4" d="M209.5,47.5V71c3.8,2.2,7,5.3,9.3,9c2.6,4.1,4,8.9,4,14v11.7c0,1.5-1.2,2.8-2.8,2.8c-1.5,0-2.8-1.2-2.8-2.8
				v-8.9h-71.3v83.9h71.3v-62.4c0-1.5,1.2-2.8,2.8-2.8c1.6,0,2.8,1.3,2.8,2.8v83.4c0,2.4-1,4.6-2.6,6.1c-1.6,1.6-3.8,2.5-6.1,2.5
				h-65c-2.4,0-4.6-1-6.1-2.5c-1.6-1.6-2.6-3.8-2.6-6.1V94c0-5.1,1.5-9.9,4-14c2.3-3.7,5.5-6.8,9.3-9c0-7.8,0-15.7,0-23.6
				c0-2.4,1-4.6,2.6-6.2c1.6-1.6,3.8-2.5,6.1-2.5h38.3c2.4,0,4.6,1,6.1,2.5C208.6,42.9,209.5,45.1,209.5,47.5z"/>
			<path class="st4" d="M217.3,186.2h-71.3v15.5c0,0.9,0.3,1.6,0.9,2.2c0.6,0.6,1.4,0.9,2.2,0.9h65c0.9,0,1.6-0.3,2.2-0.9
				c0.6-0.6,0.9-1.4,0.9-2.2V186.2z"/>
			<path class="st4" d="M146.2,91.2h70.9c-0.4-3-1.4-5.8-3-8.2c-2-3.2-4.8-5.7-8.1-7.5h-48.8c-3.3,1.7-6.1,4.3-8.1,7.5
				C147.7,85.4,146.6,88.2,146.2,91.2z"/>
			<path class="st4" d="M107.6,192.5c-1.1-2-2.6-4.1-4.2-6c-1.7,2-3.1,4-4.2,6c-1.2,2.2-2,4.3-2,6.2c0,1.7,0.7,3.3,1.8,4.4
				c1.1,1.1,2.7,1.8,4.4,1.8c1.7,0,3.3-0.7,4.4-1.8c1.1-1.1,1.8-2.7,1.8-4.4C109.5,196.8,108.8,194.7,107.6,192.5z"/>
		</g>
	</g>
</g>
<text transform="matrix(1 0 0 1 91.9116 259.5337)" class="st5 st6 st7">NATURA</text>
<text transform="matrix(1 0 0 1 116.6616 300.6396)" class="st5 st6 st7">LABS</text>
</svg>
