<svg xmlns="http://www.w3.org/2000/svg" xmlns:xlink="http://www.w3.org/1999/xlink" viewBox="0 0 154.41 183.73"><defs><style>.cls-1,.cls-18,.cls-19,.cls-21,.cls-22{fill:none;}.cls-2{clip-path:url(#clip-path);}.cls-3{fill:#fff;}.cls-10,.cls-11,.cls-12,.cls-13,.cls-14,.cls-15,.cls-16,.cls-3,.cls-4,.cls-5,.cls-6,.cls-7,.cls-8,.cls-9{stroke:#999;}.cls-10,.cls-11,.cls-12,.cls-13,.cls-14,.cls-15,.cls-16,.cls-20,.cls-3,.cls-4,.cls-5,.cls-6,.cls-7,.cls-8,.cls-9{stroke-miterlimit:10;}.cls-4{fill:#aeaeae;}.cls-5{fill:#b0b0b0;}.cls-10,.cls-6{fill:#999;}.cls-7{opacity:0.3;}.cls-10,.cls-8{opacity:0.4;}.cls-9{fill:#dedede;}.cls-11{opacity:0.2;}.cls-12,.cls-17{opacity:0.6;}.cls-13{fill:#252525;}.cls-15{fill:#737373;}.cls-16{fill:gray;}.cls-18,.cls-19,.cls-20,.cls-21,.cls-22{stroke:#000;}.cls-18,.cls-19,.cls-21,.cls-22{stroke-linecap:round;stroke-linejoin:round;stroke-width:2px;}.cls-19{stroke-dasharray:1.44 2.4;}.cls-21{stroke-dasharray:1.44 2.4;}.cls-22{stroke-dasharray:1.39 2.31;}</style><clipPath id="clip-path" transform="translate(17.26 8.35)"><path class="cls-1" d="M-10.6,85.32c0-38.29,31-108.1,69.32-108.1S128,47,128,85.32s-31,70.14-69.32,70.14S-10.6,123.6-10.6,85.32Z"/></clipPath></defs><g id="OBJECTS"><g class="cls-2"><path class="cls-3" d="M65.49,174.78l71.11-.6c-1.07-9.19-3.74-17.73-8.54-25-3-4.82-7.11-6.35-11.91-7.66a118.61,118.61,0,0,0-15.64-3.51C91.62,137,89.25,135.44,83,126.9c-6-8.53-7.82-18.38-8.17-29.55-1.56-.34-3.33.41-5,.74v-.74h-.06c-1.82.13-3.64.46-5.48.69-1.85-.23-12.42-.56-14.24-.69H50v.74c-1.65-.33-3.42-1.08-5-.74-.35,11.17-2.13,21-8.18,29.55-6.22,8.54-8.59,10.07-17.48,11.16a118.61,118.61,0,0,0-15.64,3.51c-4.8,1.31-8.89,2.84-11.91,7.66-4.8,7.22-7.47,15.76-8.54,25l71.11.6v.09l5.54-.05,5.54.05Z" transform="translate(17.26 8.35)"/><path class="cls-4" d="M15.45,148.79s-.09.06-.06.1a.23.23,0,0,0,.12.06,2.4,2.4,0,0,0,.28,0h.57c.37,0,.75,0,1.13,0q1.14,0,2.28-.12l4.54-.29,4.55-.28,2.28-.11,2.28-.13c1.52-.08,3-.14,4.59-.07a18.28,18.28,0,0,1,4.57.71,9.75,9.75,0,0,1,4,2.32,9.56,9.56,0,0,1,2.34,3.92,11.24,11.24,0,0,0-1.1-2,8.48,8.48,0,0,0-1.5-1.66,9.58,9.58,0,0,0-3.92-2A18.81,18.81,0,0,0,38,148.7c-1.5,0-3,0-4.52.11-3.05.16-6.08.26-9.12.35-1.52.05-3,.07-4.56.07l-2.29,0-1.14-.07-.57-.07a1.43,1.43,0,0,1-.28-.07.28.28,0,0,1-.13-.07C15.34,148.84,15.41,148.81,15.45,148.79Z" transform="translate(17.26 8.35)"/><path class="cls-4" d="M104.45,148.79s.11.05.08.11a.28.28,0,0,1-.13.07,1.43,1.43,0,0,1-.28.07l-.57.07-1.14.07-2.29,0c-1.52,0-3,0-4.56-.07-3-.09-6.07-.19-9.12-.35-1.51-.08-3-.15-4.52-.11a18.81,18.81,0,0,0-4.43.57,9.58,9.58,0,0,0-3.92,2,8.48,8.48,0,0,0-1.5,1.66,12,12,0,0,0-1.11,2A9.69,9.69,0,0,1,73.31,151a9.82,9.82,0,0,1,4-2.32,18.28,18.28,0,0,1,4.57-.71c1.54-.07,3.07,0,4.59.07l2.28.13,2.28.11,4.54.28,4.55.29q1.14.08,2.28.12c.38,0,.75,0,1.13,0h.57a2.4,2.4,0,0,0,.28,0,.27.27,0,0,0,.12-.06S104.49,148.81,104.45,148.79Z" transform="translate(17.26 8.35)"/><path class="cls-5" d="M92.15,64.09a44.5,44.5,0,0,1,2.64-5.53c1.58-2.64,4.61-4.22,5.27-.26.79,5.79-.66,12.51-2.77,17.78C95.58,80.56,93,86.1,87.41,86Z" transform="translate(17.26 8.35)"/><path class="cls-6" d="M28.12,64.09a43.06,43.06,0,0,0-2.63-5.53c-1.58-2.64-4.61-4.22-5.27-.26-.79,5.79.66,12.51,2.76,17.78,1.72,4.48,4.35,10,9.89,9.88Z" transform="translate(17.26 8.35)"/><path class="cls-7" d="M42.67,103.48c1.75,9.34,7.15,31.37,21,26.85,5.25-1.75,7.88-8.9,9.77-13.57,1.32-3.65,4.53-10.36,2.78-14.15Z" transform="translate(17.26 8.35)"/><path class="cls-8" d="M83.67,12.43c0,11.2-10.06,20.28-22.47,20.28S38.73,23.63,38.73,12.43,48.79-7.85,61.2-7.85,83.67,1.23,83.67,12.43Z" transform="translate(17.26 8.35)"/><path class="cls-3" d="M90.3,41C89.72,38,88.85,34.32,87,31.84,83,26.44,76.73,25,70.61,25.56A89.17,89.17,0,0,1,53,25.71c-5.54-.44-11.82-.29-16.64,2.92C30.48,32.71,29.89,38.4,29.89,45A92.49,92.49,0,0,0,25.71,60.1,127.88,127.88,0,0,0,28.44,83C30.1,90.21,33,97.64,38,103.26c7.22,8.1,16.85,13.57,27.57,10.95,10.51-2.41,17.73-9,21.46-19a145.77,145.77,0,0,0,7.86-32.44,45.48,45.48,0,0,0-3.56-14.11C90.45,46.28,90.89,43.51,90.3,41Z" transform="translate(17.26 8.35)"/><path class="cls-9" d="M94,29.5C91.18,15.06,83.09,6.52,68.2,4.77c-9.37-1.1-18.08-1.22-26.49,3.65C30.65,14.83,26.23,27.7,25.64,39.77c-.13,2.57-.16,5.12-.16,7.55,0,4.19.05,8.48.23,12.78A92.49,92.49,0,0,1,29.89,45c0-6.57.59-12.26,6.42-16.34,4.82-3.21,11.1-3.36,16.64-2.92a89.17,89.17,0,0,0,17.66-.15C76.73,25,83,26.44,87,31.84,88.85,34.32,89.72,38,90.3,41c.59,2.48.15,5.25,1,7.59a45.48,45.48,0,0,1,3.56,14.11A108.74,108.74,0,0,0,94,29.5Z" transform="translate(17.26 8.35)"/><path class="cls-6" d="M60.65,74.7c.11,2-.55,12.26.11,14.67,2.3-.55,6.79-2.63,7.44-4.93S60.65,74.7,60.65,74.7Z" transform="translate(17.26 8.35)"/><path class="cls-10" d="M57.26,89C57,87.72,55.4,84.55,53.87,85c-2.63.76,1.09,3.28,1.86,3.83Z" transform="translate(17.26 8.35)"/><path class="cls-11" d="M59.77,101.07a20.27,20.27,0,0,0-10.13-1.83c-.15,0,.81,1.58.92,1.68a11.93,11.93,0,0,0,4.95,2.78c4.26,1.21,10.28.88,13.57-2.52a2.39,2.39,0,0,0,.74-2.72C66.22,98.33,61.18,99.17,59.77,101.07Z" transform="translate(17.26 8.35)"/><path class="cls-12" d="M59.77,101.07c1.41-1.9,6.45-2.74,10-2.61-1.2-2.71-8.31-3.95-10.59-1.33a8.07,8.07,0,0,0-7.88-.1c-.88.52-1.82,1.26-1.71,2.21A20.27,20.27,0,0,1,59.77,101.07Z" transform="translate(17.26 8.35)"/><path class="cls-13" d="M67.66,68.57a9.34,9.34,0,0,1,3.13-4.09,10.71,10.71,0,0,1,4.89-2.11,8.4,8.4,0,0,1,5.38.9,6.72,6.72,0,0,1,3.23,4.1,10.48,10.48,0,0,0-4-2.43A9.53,9.53,0,0,0,76,64.67,15.12,15.12,0,0,0,71.75,66,23.08,23.08,0,0,0,67.66,68.57Z" transform="translate(17.26 8.35)"/><path class="cls-14" d="M84.18,63.43a6.65,6.65,0,0,0-3.61-2.17,13.28,13.28,0,0,0-4.22-.33,18.27,18.27,0,0,0-4.21.77,11.12,11.12,0,0,0-3.83,1.95,8.49,8.49,0,0,1,3.63-2.52,14.46,14.46,0,0,1,4.36-1,11.79,11.79,0,0,1,4.45.53,7,7,0,0,1,2,1A4.88,4.88,0,0,1,84.18,63.43Z" transform="translate(17.26 8.35)"/><path class="cls-15" d="M79,66a2.86,2.86,0,1,1-2.86-2.86A2.86,2.86,0,0,1,79,66Z" transform="translate(17.26 8.35)"/><path class="cls-13" d="M71.92,69.88a16.28,16.28,0,0,0,2.33.41,11,11,0,0,0,2.29,0,8.76,8.76,0,0,0,2.2-.49,8.58,8.58,0,0,0,2.05-1.12A4.72,4.72,0,0,1,79,70.35a6.31,6.31,0,0,1-2.39.72,7.58,7.58,0,0,1-2.47-.18A6.48,6.48,0,0,1,71.92,69.88Z" transform="translate(17.26 8.35)"/><path class="cls-13" d="M52,68.57A23.52,23.52,0,0,0,47.91,66a15.12,15.12,0,0,0-4.28-1.36,9.53,9.53,0,0,0-4.28.27,10.48,10.48,0,0,0-4,2.43,6.72,6.72,0,0,1,3.23-4.1,8.4,8.4,0,0,1,5.38-.9,10.71,10.71,0,0,1,4.89,2.11A9.44,9.44,0,0,1,52,68.57Z" transform="translate(17.26 8.35)"/><path class="cls-14" d="M35.48,63.43a4.77,4.77,0,0,1,1.43-1.7,7,7,0,0,1,2-1,11.79,11.79,0,0,1,4.45-.53,14.46,14.46,0,0,1,4.36,1,8.49,8.49,0,0,1,3.63,2.52,11.12,11.12,0,0,0-3.83-1.95,18.36,18.36,0,0,0-4.21-.77,13.28,13.28,0,0,0-4.22.33A6.65,6.65,0,0,0,35.48,63.43Z" transform="translate(17.26 8.35)"/><path class="cls-16" d="M40.64,66a2.86,2.86,0,1,0,2.86-2.86A2.86,2.86,0,0,0,40.64,66Z" transform="translate(17.26 8.35)"/><path class="cls-13" d="M47.74,69.88a6.48,6.48,0,0,1-2.22,1,7.58,7.58,0,0,1-2.47.18,6.31,6.31,0,0,1-2.39-.72,4.72,4.72,0,0,1-1.79-1.67,8.58,8.58,0,0,0,2.05,1.12,8.74,8.74,0,0,0,2.21.49,10.86,10.86,0,0,0,2.28,0A16.28,16.28,0,0,0,47.74,69.88Z" transform="translate(17.26 8.35)"/><g class="cls-17"><path class="cls-14" d="M65.68,59.16a40.33,40.33,0,0,1,5.13-4.64A23.68,23.68,0,0,1,77,51.07a12.09,12.09,0,0,1,3.63-.74,7.27,7.27,0,0,1,3.78.83A6.76,6.76,0,0,1,87,53.83a7.61,7.61,0,0,1,.4.81l.18.43.13.41a10.05,10.05,0,0,1,.38,1.71c-.31-.5-.63-1-1-1.42l-.26-.35-.25-.31a7.7,7.7,0,0,0-.54-.6,6.53,6.53,0,0,0-2.5-1.69,8.9,8.9,0,0,0-5.87.44,45,45,0,0,0-5.95,2.8C69.81,57.11,67.83,58.25,65.68,59.16Z" transform="translate(17.26 8.35)"/><path class="cls-14" d="M54,59.16c-2.15-.91-4.13-2-6.11-3.1a44.93,44.93,0,0,0-5.94-2.8,8.93,8.93,0,0,0-5.88-.44,6.53,6.53,0,0,0-2.5,1.69,7.7,7.7,0,0,0-.54.6l-.25.31-.26.35c-.33.46-.65.92-1,1.42a10.05,10.05,0,0,1,.38-1.71l.13-.41.18-.43a7.61,7.61,0,0,1,.4-.81,6.8,6.8,0,0,1,2.65-2.67,7.32,7.32,0,0,1,3.79-.83,12.09,12.09,0,0,1,3.63.74,23.68,23.68,0,0,1,6.15,3.45A40.33,40.33,0,0,1,54,59.16Z" transform="translate(17.26 8.35)"/></g><path class="cls-18" d="M31.71,151s.25-.09.69-.29" transform="translate(17.26 8.35)"/><path class="cls-19" d="M34.53,149.57A30.49,30.49,0,0,0,50.1,125.82" transform="translate(17.26 8.35)"/><path class="cls-18" d="M50.2,124.61c0-.25,0-.5,0-.75" transform="translate(17.26 8.35)"/><polygon class="cls-20" points="68.1 125.59 63.91 132.56 71.1 132.89 68.1 125.59"/><path class="cls-18" d="M85.74,151.46l-.67-.33" transform="translate(17.26 8.35)"/><path class="cls-21" d="M83,149.93a30.49,30.49,0,0,1-14.24-24.57" transform="translate(17.26 8.35)"/><path class="cls-18" d="M68.71,124.15c0-.25,0-.5,0-.75" transform="translate(17.26 8.35)"/><polygon class="cls-20" points="85.75 125.12 89.53 132.24 82.39 132.17 85.75 125.12"/><polygon class="cls-20" points="77.03 125.65 73.54 133.21 80.69 133.11 77.03 125.65"/><line class="cls-18" x1="76.75" y1="156.54" x2="76.75" y2="155.79"/><line class="cls-22" x1="76.75" y1="153.48" x2="76.75" y2="136.14"/><line class="cls-18" x1="76.75" y1="134.99" x2="76.75" y2="134.24"/></g></g></svg>