<?xml version="1.0" encoding="utf-8"?>
<!-- Generator: Adobe Illustrator 28.3.0, SVG Export Plug-In . SVG Version: 6.00 Build 0)  -->
<svg version="1.1" id="Capa_1" xmlns="http://www.w3.org/2000/svg" xmlns:xlink="http://www.w3.org/1999/xlink" x="0px" y="0px"
	 viewBox="0 0 512 512" style="enable-background:new 0 0 512 512;" xml:space="preserve">
<style type="text/css">
	.st0{fill:#FFFFFF;}
</style>
<g>
	<path class="st0" d="M28.3,224.5c-4.4-7.1-13.6-9.3-20.7-4.9c-7.1,4.4-9.3,13.6-4.9,20.7c0.2,0.3,5.3,8.7,14.6,20.9
		c3,3.9,7.5,6,12,6c12.2,0,19.5-14.1,12-24.1C33,232.1,28.4,224.6,28.3,224.5L28.3,224.5z"/>
	<path class="st0" d="M109,310.5c-12.1-8.5-24.3-18.9-36.2-30.9c-5.8-5.9-15.4-5.9-21.3-0.1c-5.9,5.8-5.9,15.4-0.1,21.3
		c13.1,13.2,26.7,24.7,40.3,34.3c6.8,4.8,16.2,3.2,20.9-3.7C117.4,324.6,115.8,315.2,109,310.5z"/>
	<path class="st0" d="M170.5,337.9c-6.8-1.2-13.8-3.1-20.7-5.7c-7.8-2.8-16.4,1.2-19.3,9s1.2,16.4,9,19.3c8.5,3.1,17.1,5.4,25.6,7
		c8.2,1.5,16-3.9,17.5-12.1C184.1,347.2,178.7,339.4,170.5,337.9z"/>
	<path class="st0" d="M504.4,219.6c-7.1-4.4-16.3-2.2-20.7,4.9c0,0.1-4.7,7.6-13,18.5c-7.5,10-0.2,24.1,12,24.1c4.6,0,9.1-2.1,12-6
		c9.2-12.2,14.4-20.5,14.6-20.9C513.6,233.2,511.4,224,504.4,219.6L504.4,219.6z"/>
	<path class="st0" d="M439.2,279.6c-11.9,12-24.1,22.3-36.2,30.9c-6.8,4.8-8.4,14.1-3.7,20.9c4.8,6.8,14.2,8.4,20.9,3.7
		c13.6-9.5,27.1-21.1,40.3-34.3c5.8-5.9,5.8-15.4-0.1-21.3C454.6,273.7,445,273.7,439.2,279.6z"/>
	<path class="st0" d="M362.2,332.2c-6.9,2.5-13.9,4.4-20.7,5.7c-8.2,1.5-13.6,9.3-12.1,17.5c1.5,8.2,9.3,13.6,17.5,12.1
		c8.5-1.5,17.1-3.9,25.6-7c7.8-2.8,11.8-11.5,9-19.3C378.6,333.4,370,329.4,362.2,332.2L362.2,332.2z"/>
	<path class="st0" d="M105.5,146.4c30,7,61.3,6,90.7-3.1c36.7-11.3,76.2-12.2,114.5-1.5c3.3,0.9,5.2,1.5,5.1,1.5
		c29.4,9,60.7,10.1,90.7,3.1c97.3-22.6,84.3-19.6,96.6-22.5L419,23C401.1,1.3,370.6-6,344.8,5.3l-75.5,33c-8.5,3.7-18.2,3.7-26.6,0
		l-75.5-33C141.4-6,110.9,1.3,93,23L8.9,124C21.5,126.9,5.1,123.1,105.5,146.4L105.5,146.4z"/>
	<path class="st0" d="M271,200.4c0-8.3-6.7-15-15-15s-15,6.7-15,15v65.1h-17c-8.3,0-15,6.8-15,15v89.2h94.2c0-10,0-77.3,0-89.2
		c0-8.3-6.7-15-15-15h-17C271,258.7,271,207.2,271,200.4L271,200.4z"/>
	<path class="st0" d="M178.8,280.5c0-20.3,13.5-37.6,32.1-43.2v-37c0-13.1,5.6-25,14.6-33.2c-6.9,1.2-13.8,2.9-20.5,5
		c-33.3,10.2-70.1,12.1-106.4,3.6C-2.6,152.1,13.8,156,4.4,153.8c0.5,0.6,11.1,11.9,82.6,88.5c24.3,26,56.8,43,91.9,48.1
		L178.8,280.5L178.8,280.5z"/>
	<path class="st0" d="M288.1,455.9c8.3,0,15-6.7,15-15v-41.1h-94.2v41.1c0,8.3,6.7,15,15,15h17v26.1h-17c-8.3,0-15,6.7-15,15
		c0,8.3,6.7,15,15,15h64.1c8.3,0,15-6.7,15-15c0-8.3-6.7-15-15-15h-17v-26.1H288.1z"/>
	<path class="st0" d="M413.3,175.7c-34.8,8.2-71.6,7.1-106.4-3.6c-7.1-2.2-13.7-3.7-20.5-5c9,8.2,14.6,20.1,14.6,33.2v37
		c18.5,5.6,32.1,22.8,32.1,43.2v9.8c35.1-5.1,67.6-22.1,91.9-48.1l82.4-88.3C507.7,153.7,515.4,152,413.3,175.7L413.3,175.7z"/>
</g>
</svg>
