<?xml version="1.0" encoding="utf-8"?>
<!-- Generator: Adobe Illustrator 28.3.0, SVG Export Plug-In . SVG Version: 6.00 Build 0)  -->
<svg version="1.1" id="Solid" xmlns="http://www.w3.org/2000/svg" xmlns:xlink="http://www.w3.org/1999/xlink" x="0px" y="0px"
	 viewBox="0 0 512 512" style="enable-background:new 0 0 512 512;" xml:space="preserve">
<style type="text/css">
	.st0{fill:#FFFFFF;}
</style>
<path class="st0" d="M256,4c-24,0-48,3.4-71,10.1c-4.2,1.2-6.7,5.7-5.4,9.9c0.3,0.9,0.7,1.8,1.3,2.5c13.5,18.1,20.8,40,20.7,62.6
	c0.7,48-41.9,116.9-64.2,152c-20.4,32.1-55.2,66.3-44.9,97.8c7.8,23.9,34.6,34.8,56.8,49.8c19.5,13.4,25.5,39.5,13.8,60.1
	c-6.5,11.7-10.6,22-11.1,31.3c-0.1,3.2,1.8,6.2,4.8,7.4c127.9,54.9,276.1-4.3,331-132.3s-4.3-276.1-132.3-331
	C324,10.9,290.2,4,256,4L256,4z M226.1,405.3c-2.6,2.1-6.3,1.7-8.4-0.9c0,0,0,0,0,0c-8.6-10.3-21.8-15.7-35.2-14.3
	c-3.3,0.4-6.3-1.9-6.7-5.2c-0.4-3.3,1.9-6.3,5.2-6.7c0,0,0.1,0,0.1,0c17.4-1.8,34.6,5.2,45.9,18.6
	C229,399.4,228.6,403.2,226.1,405.3L226.1,405.3z"/>
<path class="st0" d="M129.2,443.7c-2.1,0-3.8-1.6-4-3.6c-0.2-2.2-0.8-4.3-1.7-6.3c-1-2-0.1-4.4,1.8-5.4c2-1,4.4-0.1,5.4,1.8
	c0,0,0,0.1,0.1,0.1c1.3,2.8,2.2,5.9,2.5,9c0.2,2.2-1.4,4.1-3.6,4.3c0,0,0,0,0,0C129.4,443.7,129.3,443.7,129.2,443.7z M114.2,421
	c-0.9,0-1.8-0.3-2.6-0.9c-1.9-1.6-4-3.2-6.1-4.7c-1.8-1.3-2.2-3.8-0.9-5.6c1.3-1.8,3.8-2.2,5.6-0.9l0,0c2.3,1.7,4.5,3.3,6.5,5.1
	c1.7,1.4,1.9,3.9,0.5,5.6C116.5,420.4,115.4,421,114.2,421L114.2,421z M91.3,404.9c-0.8,0-1.5-0.2-2.2-0.7c-2.2-1.5-4.5-3-6.7-4.5
	c-1.8-1.2-2.3-3.7-1.1-5.6c1.2-1.8,3.7-2.3,5.6-1.1l0,0c2.2,1.5,4.4,3,6.6,4.4c1.8,1.2,2.3,3.7,1.1,5.5
	C93.9,404.2,92.7,404.9,91.3,404.9z M68.7,388.3c-1,0-1.9-0.3-2.6-1c-2.2-1.9-4.3-3.9-6.1-5.8c-1.6-1.6-1.6-4.1,0-5.7
	c1.6-1.6,4.1-1.6,5.7,0c0,0,0.1,0.1,0.1,0.1c1.7,1.7,3.5,3.5,5.5,5.3c1.7,1.5,1.8,4,0.4,5.6C70.9,387.8,69.8,388.3,68.7,388.3
	L68.7,388.3z M51.5,366.5c-1.5,0-2.8-0.8-3.5-2.1c-1.3-2.5-2.6-5-3.6-7.5c-0.9-2,0-4.4,2-5.3s4.4,0,5.3,2c1,2.3,2.1,4.6,3.4,6.9
	c1,1.9,0.3,4.4-1.7,5.4C52.8,366.4,52.1,366.5,51.5,366.5L51.5,366.5z M42.1,340.3c-1.9,0-3.6-1.4-3.9-3.3c-0.5-2.8-0.8-5.6-0.9-8.4
	c-0.1-2.2,1.6-4.1,3.8-4.2c2.2-0.1,4.1,1.6,4.2,3.8c0.1,2.5,0.4,5,0.8,7.5c0.4,2.2-1.1,4.2-3.3,4.6c0,0,0,0,0,0
	C42.6,340.3,42.3,340.3,42.1,340.3z M42.9,312.5c-0.3,0-0.6,0-0.8-0.1c-2.2-0.5-3.5-2.6-3.1-4.8c0,0,0,0,0,0
	c0.6-2.6,1.3-5.4,2.1-8.1c0.6-2.1,2.8-3.3,5-2.7s3.3,2.8,2.7,5c0,0,0,0.1,0,0.1c-0.8,2.5-1.4,5-1.9,7.4
	C46.4,311.2,44.8,312.5,42.9,312.5L42.9,312.5z M52.4,286.2c-2.2,0-4-1.8-4-4c0-0.6,0.1-1.2,0.4-1.8c1.2-2.4,2.5-4.8,3.8-7.2
	c1.1-1.9,3.6-2.6,5.5-1.5c1.9,1.1,2.5,3.5,1.5,5.4c-1.3,2.3-2.5,4.6-3.6,6.9C55.4,285.4,54,286.2,52.4,286.2z M66.7,262.2
	c-2.2,0-4-1.8-4-4c0-0.8,0.2-1.6,0.7-2.2c1.4-2.2,3-4.4,4.6-6.7c1.3-1.8,3.8-2.2,5.6-0.9c1.8,1.3,2.2,3.7,1,5.5
	c-1.6,2.2-3.1,4.4-4.5,6.6C69.3,261.5,68.1,262.2,66.7,262.2z M82.8,239.2c-2.2,0-4-1.8-4-4c0-0.8,0.3-1.6,0.7-2.3l4.6-6.5
	c1.3-1.8,3.8-2.2,5.6-0.9s2.2,3.8,0.9,5.6l0,0l-4.6,6.5C85.3,238.6,84.1,239.2,82.8,239.2z M98.9,216.3c-2.2,0-4-1.8-4-4
	c0-0.8,0.2-1.6,0.7-2.3c1.5-2.2,3-4.4,4.5-6.6c1.2-1.9,3.7-2.4,5.5-1.2s2.4,3.7,1.2,5.5c0,0-0.1,0.1-0.1,0.1c-1.5,2.2-3,4.5-4.5,6.7
	C101.5,215.6,100.3,216.3,98.9,216.3L98.9,216.3z M114.3,192.9c-2.2,0-4-1.8-4-4c0-0.7,0.2-1.5,0.6-2.1c1.4-2.2,2.8-4.5,4.1-6.8
	c1.1-1.9,3.6-2.5,5.5-1.4c1.9,1.1,2.5,3.6,1.4,5.5c-1.4,2.3-2.8,4.6-4.2,6.9C117,192.2,115.7,192.9,114.3,192.9L114.3,192.9z
	 M128.3,168.6c-2.2,0-4-1.8-4-4c0-0.6,0.2-1.3,0.5-1.9c1.2-2.3,2.4-4.7,3.6-7c1-2,3.4-2.7,5.4-1.7c1.9,1,2.7,3.3,1.8,5.2
	c-1.2,2.4-2.4,4.8-3.7,7.2C131.2,167.8,129.8,168.6,128.3,168.6L128.3,168.6z M140.2,143.2c-2.2,0-4-1.8-4-4c0-0.5,0.1-1,0.3-1.5
	c1-2.4,1.9-4.9,2.8-7.3c0.8-2.1,3.1-3.1,5.2-2.3c2,0.8,3.1,3,2.4,5c-0.9,2.6-1.9,5.1-2.9,7.6C143.3,142.3,141.8,143.3,140.2,143.2
	L140.2,143.2z M148.7,116.6c-2.2,0-4-1.8-4-4c0-0.3,0-0.6,0.1-0.9c0.6-2.5,1.1-5.1,1.6-7.6c0.4-2.2,2.5-3.6,4.6-3.2
	c2.2,0.4,3.6,2.5,3.2,4.6l0,0c-0.5,2.7-1,5.4-1.7,8C152.2,115.3,150.6,116.6,148.7,116.6L148.7,116.6z M152.4,88.9L152.4,88.9
	c-2.3-0.1-4.1-1.9-4-4.1c0-0.9,0-1.7,0-2.6c0-1.7,0-3.4-0.1-5.1c-0.1-2.2,1.6-4.1,3.8-4.2c0,0,0,0,0,0c2.2-0.1,4,1.6,4.2,3.8
	c0.1,1.8,0.1,3.7,0.1,5.5c0,0.9,0,1.9,0,2.8C156.3,87.2,154.6,88.9,152.4,88.9L152.4,88.9z"/>
</svg>
