<?xml version="1.0" encoding="utf-8"?>
<!-- Generator: Adobe Illustrator 25.0.1, SVG Export Plug-In . SVG Version: 6.00 Build 0)  -->
<svg version="1.1" id="Layer_1" xmlns="http://www.w3.org/2000/svg" xmlns:xlink="http://www.w3.org/1999/xlink" x="0px" y="0px"
	 viewBox="0 0 7757.6 7757.6" style="enable-background:new 0 0 7757.6 7757.6;" xml:space="preserve">
<style type="text/css">
	.st0{display:none;}
	.st1{display:inline;}
	.st2{clip-path:url(#SVGID_2_);fill:#FFFFFF;}
	.st3{clip-path:url(#SVGID_4_);}
	.st4{fill:#FFFFFF;}
	.st5{fill:#666666;}
</style>
<g>
	<g class="st0">
		<g class="st1">
			<defs>
				<rect id="SVGID_1_" width="7757.6" height="7757.6"/>
			</defs>
			<clipPath id="SVGID_2_">
				<use xlink:href="#SVGID_1_"  style="overflow:visible;"/>
			</clipPath>
			<path class="st2" d="M3453.2,5115.6c283.3,2.6,566.7,1.4,850.1-0.2c-73.1,52.1-142.3,124.9-235.1,137.6
				c-131.2,0.8-262.8,2.5-393.9-1.3C3588.6,5231.9,3522.2,5166.4,3453.2,5115.6L3453.2,5115.6L3453.2,5115.6z M3529.2,4961.1
				c54.7-31.2,108-79.6,175.3-73.9c65.7,8.3,130.7,27.4,197.7,21.1c68.1,0.1,135.8-35.8,203.4-14.3c70.6,27.4,131.5,74.5,197.6,111
				c-280.1-2.2-560.2-0.8-840.3-0.8C3479,4982.5,3507.9,4976.6,3529.2,4961.1 M5907.7,3112.4c46.5-34.6,94.2,15.4,114.1,55.5
				c48.6,92.2,57.4,199.1,57.7,301.7c-3.5,242.9-77.7,494.2-244.5,675.9c-53.2,55.2-116.8,104.2-191.4,125.5
				c81-319.5,131.9-646.6,155.4-975.3C5796.3,3219.9,5854.9,3159.5,5907.7,3112.4 M1743.7,3152.8c17.8-32.4,56.5-67.3,94.9-44.5
				c47.7,30.9,89.5,73.8,119.3,122c24.2,351.4,76.4,701.4,163.7,1042.9c-82.4-18.6-150.9-74.3-206.4-135.8
				c-148.9-173.8-221.8-403.2-232.2-629.5C1680.4,3387.8,1682.9,3260,1743.7,3152.8 M3467.4,4861.7
				c-106.4,68.5-221.3,122.5-331.2,184.3c0.2,10.1,13,12.6,19.5,18.4c129.1,71.8,248.2,159.6,368.3,245.2
				c50.4,35.6,110.1,60.3,172.5,60c126.5-0.3,253,1.1,379.5-1.2c100.2-3.4,178-73.1,255.8-127.9c94.6-70.5,196.6-130.8,296.1-193.2
				c-111.4-57.1-223.7-112.8-330.8-177.6c-63.9-37.3-125.8-84.5-201.4-93.7c-70.4-11.7-138.9,15.5-208.9,16.9
				c-76.1,3.3-149.9-28.4-226.1-17.6C3588.4,4782.5,3527.1,4824.2,3467.4,4861.7 M5260.1,3002.3c-37.9,14.2-64.9,46.8-97.8,69.2
				c-104.8,82.1-232.1,141.5-367.1,143.9c-153,8.9-298-48.9-447.6-69.8c-70.9-19.3-102.1,97.6-28.1,110.8
				c161.4,22,318.1,83.3,483.3,71.7c199.5,0.3,377.6-109.6,521.6-238.2C5352.4,3049,5308,2987,5260.1,3002.3 M2472.8,3003.3
				c-37.2,9.2-55.1,61.7-28.4,90.3c147.7,124.8,325.8,233.9,525.5,235.3c162.3,9.8,315.9-51.5,474.2-74.4
				c56.9-15.4,45.5-106.8-12.6-109.8c-88.1,3.9-173.1,32.5-259.1,50.6c-113.9,26.4-235.4,31.1-347.9-4
				c-102.9-33.7-193.6-95.7-277.6-162.6C2526.2,3012.4,2500.5,2993.6,2472.8,3003.3 M3859.2,2874.9c-25.9,9.5-36.7,38.4-34,64.2
				c0.6,464.8-1,929.6,0.6,1394.3c1.1,66.1,111.3,65.7,112.6-0.1c2.2-469.5-0.7-939.4,0.8-1409
				C3940,2884.7,3893.5,2860.5,3859.2,2874.9 M4790.7,2503.1c-106.9,14.4-212,48.1-304.4,104.2c-212.6,127.2-356.8,364-365.5,612.4
				c-0.4,85.8-2.3,171.7,0.6,257.4c5.2,57.3,99.3,61.5,109.1,4.6c4.7-89.7-1.8-179.8,3.2-269.6c15.3-202.3,131.7-393.5,304.4-499.9
				c139.5-88.6,311.4-117.5,473.9-95.1c151.8,22.6,302.3,64.8,456.7,63c58.7-13.9,45.9-110.3-14.2-110.6
				C5231.7,2558.6,5015.5,2470.7,4790.7,2503.1 M2730.4,2503.8c-132.6,18.8-263.1,52.6-397,63.2c-27.6,2.6-62.1,2-78.4,29.1
				c-23.9,34.9,3.7,90.7,47.6,86.6c140.9-5.4,278.6-38.8,417.1-62c161-26.2,332.1-9,477.5,68.1c214.5,110.1,363.3,341.7,363.9,584.1
				c1.4,381.2-0.1,762.5,1.1,1143.7c3.5,62,106.5,61.7,110.5,0.1c2-373.7,0.4-747.5,0.8-1121.2c1.4-75-6.4-150.3-26.8-222.5
				c-82.7-304.3-363.5-538.9-676.4-571.4C2890.8,2493.8,2810,2494.4,2730.4,2503.8 M3947.7,1287.8c363.2-2.2,746.4,25.6,1067.6,212
				c276.2,154.3,502.9,384.6,685.1,641c4.9,7.8,8.7,16.7,9,26.2c8.5,523.3,5.2,1049.2-72.8,1567.9
				c-75.8,484.4-211.4,965.6-453.5,1394.6c-163.8,290.1-382.2,557-666.1,736.4c-191.8,121.5-417.9,192.6-645.8,188.4
				c-243.4,1.6-481.2-85.8-680.5-222.4c-215.5-147.9-390.7-348.1-530.9-567.3c-271.1-424.5-422.6-913.7-510.5-1406.5
				c-56.8-303.1-80.8-611.1-91.2-918.9c-7.9-76,20.5-148.6,38.4-221.1c70.8-243.3,197.2-489.3,418.9-626.7
				c123.9-76.6,272-104.7,416.3-99.8c221.1-0.2,437.7,61.9,659.1,54.8c61.2-6.2,59.1-107.4-2.3-111.5c-230.4-0.4-456.4-60.9-687-56
				c-164.8-5-333,35.8-470.8,127.9c-175.4,115-294.9,296.4-376.2,486.3c-0.2-73.6,1.5-147,1.1-220.5
				c1.6-204.4,118.7-403.5,298.9-501.1c181.1-103.7,399.2-99.6,599.9-73.8c204.9,27.5,415.4,93.6,621.4,37.3
				c159.8-41.9,288.9-170.6,339.4-326.9C3931.1,1369.3,3933.5,1326.7,3947.7,1287.8 M3950.1,486.4c25.2-9.2,53.7-0.5,80.1-0.6
				c368.3,23,734,152.1,1020.6,387.4c322.3,263.3,534.8,646.9,622.1,1051.1c-231-284.6-530.1-521.4-878.1-643.9
				c-272.6-86.7-561-103.9-845-107.1C3950.5,944.3,3949.2,715.3,3950.1,486.4 M2784.9,823.1c300.2-223.1,676.4-334.8,1048.3-339.4
				c2.5,199.8,0.4,399.8,1.3,599.6c-0.1,93.3,6.1,189.6-25.4,279.2c-30.6,94.4-94.7,178.9-182.5,226.6
				c-93.5,52.9-204.7,60.7-309.5,49.1c-196.7-22.1-390.5-76.2-589.9-68.2c-220.7-9.5-447.5,70.6-599.5,233.5
				C2234.2,1418.3,2460.2,1060.6,2784.9,823.1 M2701.3,739.1c-474.4,353.5-739.3,942.3-759.3,1526.4c-2.1,259.9-3.2,520.1,5.9,779.9
				c-61.4-55.4-159.1-88.2-231.3-33c-114.2,88.8-139.1,245.3-146.3,381.1c-10.9,233.6,37.8,472.2,156.2,675.2
				c91.1,160.2,237.9,305.7,428.2,329.6c127.9,445.7,330.2,876.4,633.8,1230.1c8.7,11.4,20.8,22.9,19.8,38.6
				c-1.2,252.3-0.4,504.8-0.8,757.1c-0.8,84.9,5.5,171.2-15.1,254.6c-53.3,233.9-240.1,444.3-481.1,489.4
				c-135.5,22.2-273.6,5.5-410,12c-42.7,2.3-66.8,60.8-37.5,92.2c24.1,29,65.4,20.5,98.4,21.1c115.5-3.5,231.9,6.5,346.9-8.4
				c285.5-38.1,515.9-275.7,586.4-548.7c36.4-123.6,25.2-253.4,27.1-380.4c1-196.9-1.9-393.9,0.8-590.8
				c266.7,248.8,622.5,419.7,993.1,403.6c348.1-3,675.5-169.7,924.7-405.2c1.6,260.8,0,521.5,0.9,782.3
				c0.7,237.7,122.3,468.5,309.5,612.9c111.6,86.7,252,135.3,393.4,135.5c108.3,0.2,216.9,2,325.2-0.9c59.7-3,65.6-99.2,7.6-110.6
				c-135.9-7.3-273,6.8-408.6-8.1c-237.2-35.5-423-235.5-488.4-459.2c-35.4-116.6-22.4-239.5-25.1-359.4c1.4-236.2-3.2-473,2-708.8
				c317.2-354.5,517.1-797.2,652.8-1248.9c147.2-25,275.2-116.9,362.8-235.8c174.2-234.2,239.6-537.4,213.6-825.2
				c-14.4-119.5-52.1-250.8-154.7-324.3c-66.7-48.9-158.3-33.1-217.6,19.8c8.5-172.4,10.9-345.1,10.1-517.7
				c-1.4-158.6,6.7-318.2-16.5-475.7c-54.1-388.6-221.4-761.6-480.2-1057c-309.6-354.9-765.3-566.1-1231.6-606.7
				C3609.2,328.3,3095.6,440.5,2701.3,739.1 M0,0h7757.6v7757.6H0V0"/>
		</g>
	</g>
	<g>
		<g>
			<defs>
				<rect id="SVGID_3_" width="7757.6" height="7757.6"/>
			</defs>
			<clipPath id="SVGID_4_">
				<use xlink:href="#SVGID_3_"  style="overflow:visible;"/>
			</clipPath>
			<g class="st3">
				<g id="XMLID_1_">
					<g>
						<path class="st4" d="M6079.5,3469.6c0,1.9-0.1,3.8-0.1,5.7c-0.1,3.8-0.2,7.6-0.3,11.4c-6.7,237.6-81.2,481.4-244.1,658.8
							c-34.1,35.4-72.4,68.2-115.2,92.8c-4.2,2.4-8.4,4.7-12.6,7c-2.1,1.1-4.2,2.2-6.3,3.2c-7.6,3.8-15.2,7.3-23.1,10.5
							c-4.5,1.8-8.9,3.6-13.5,5.2c-6.8,2.5-13.6,4.7-20.6,6.7c80.9-319.5,131.8-646.6,155.4-975.3c-2.8-75.9,55.7-136.2,108.6-183.3
							c9.2-6.9,18.5-10.4,27.6-11.3c3.9-0.4,7.7-0.3,11.5,0.2c0.5,0.1,1.1,0.1,1.6,0.2c9.6,1.5,18.9,5.7,27.5,11.5h0
							c1,0.7,1.9,1.3,2.9,2c4.7,3.4,9.2,7.4,13.5,11.6c0.9,0.8,1.7,1.7,2.5,2.6c0.4,0.4,0.8,0.9,1.2,1.3c0.8,0.9,1.6,1.8,2.4,2.7
							c4.4,5,8.5,10.3,12.1,15.7c0.7,1,1.3,2,2,2.9c3.5,5.4,6.6,10.8,9.2,16.1c40.2,76.4,53.2,162.8,56.6,248.5
							c0.1,3.2,0.2,6.5,0.3,9.7c0.2,6.5,0.4,12.9,0.5,19.4C6079.4,3453.5,6079.5,3461.6,6079.5,3469.6z"/>
						<path class="st5" d="M6078.8,3426.1c0.2,6.5,0.4,12.9,0.5,19.4C6079.1,3439,6079,3432.6,6078.8,3426.1z"/>
						<path class="st5" d="M6078.4,3416.4c0.1,3.2,0.2,6.5,0.3,9.7C6078.7,3422.9,6078.6,3419.6,6078.4,3416.4z"/>
						<path class="st5" d="M6021.8,3167.9c40.2,76.4,53.2,162.8,56.6,248.5C6075,3330.7,6062,3244.2,6021.8,3167.9z"/>
						<path class="st5" d="M5799.1,3295.7c-23.6,328.7-74.5,655.8-155.4,975.3c0,0-0.1,0-0.1,0c81-319.5,131.9-646.6,155.4-975.3
							c-2.8-75.9,55.8-136.3,108.6-183.3c9.3-6.9,18.6-10.4,27.7-11.3c-9.1,0.9-18.4,4.5-27.6,11.3
							C5854.8,3159.5,5796.3,3219.8,5799.1,3295.7z"/>
						<path class="st4" d="M5709.4,2167c8.5,523.3,5.2,1049.2-72.8,1567.9c-10.7,68.1-22.5,136.2-35.7,204
							c-1.5,7.5-2.9,15.1-4.4,22.6c-0.7,3.8-1.5,7.5-2.2,11.3c-80.8,402.9-208.8,798.1-411.2,1156.6
							c-163.8,290-382.2,556.9-666.1,736.4c-191.8,121.5-417.8,192.6-645.8,188.4c-243.4,1.6-481.2-85.7-680.4-222.3
							c-215.5-148-390.7-348.2-530.9-567.4c-67.8-106.1-128.1-216.3-181.8-329.5c-20.5-43.2-40-86.9-58.6-131
							c-2.5-5.8-4.9-11.7-7.3-17.5c-0.5-1.1-0.9-2.2-1.4-3.4c-10.3-24.8-20.3-49.7-30-74.8c-1.4-3.7-2.9-7.4-4.3-11.1
							c-2.8-7.3-5.6-14.6-8.3-21.9c-4.2-11-8.3-22.1-12.3-33.2c-2.7-7.3-5.4-14.7-8-22c0,0,0-0.1,0-0.1c-2.6-7.4-5.3-14.7-7.8-22.1
							c-20.9-59.2-40.3-119-58.4-179.2c-3.3-11-6.6-22-9.8-33c-0.2-0.6-0.4-1.2-0.5-1.8c-12-41.1-23.4-82.3-34.2-123.8
							c-2-7.6-4-15.3-5.9-22.9c-32.1-125.5-58.9-252.3-81.6-379.4c-55-293.6-79.2-591.8-90.2-889.9c-0.4-9.6-0.7-19.2-1-28.9
							c0,0,0-0.1,0-0.1c-0.6-5.6-1-11.2-1.2-16.8c-0.2-6.4-0.2-12.8,0-19.2c2.1-63.1,24.6-124.1,39.6-185.1
							c70.8-243.3,197.2-489.3,418.9-626.7c123.9-76.6,272.1-104.7,416.3-99.8c221.1-0.2,437.7,61.9,659.1,54.8
							c28.7-2.9,43.5-26.7,44.7-51.5c0.1-2.4,0.1-4.9,0-7.4c-1.4-25.8-17.2-50.7-47-52.7c-230.3-0.5-456.3-60.9-687-56
							c-164.8-5-333,35.9-470.8,127.9c-128.8,84.4-227.4,204.7-302.9,337.9c-1.6,2.9-3.2,5.7-4.8,8.6
							c-25.4,45.5-48.1,92.4-68.4,139.8c0-4.1,0-8.2,0-12.2c0-57.8,1-115.6,1.2-173.3c0-11.6,0-23.2-0.1-34.9c0-1.6,0-3.3,0.1-4.9
							c0.1-3.2,0.1-6.3,0.2-9.5c0,0,0-0.1,0-0.1c6.9-199.3,122.6-391.3,298.6-486.6c181.1-103.7,399.2-99.5,599.9-73.8
							c204.9,27.5,415.4,93.6,621.4,37.3c159.9-41.9,288.9-170.6,339.4-326.9c15.8-38.7,18.2-81.3,32.4-120.2
							c363.2-2.2,746.4,25.6,1067.6,212c276.2,154.3,502.9,384.6,685.1,641c2.8,4.3,5.2,9,6.8,14
							C5708.5,2158.8,5709.3,2162.8,5709.4,2167z M5468.7,2680.2c57.7-13.7,46.3-107.1-11.2-110.5c-1-0.1-2-0.1-3-0.1
							c-1.5-0.1-2.9-0.2-4.4-0.2c-23.5-1.3-47-3.4-70.4-6.1c-3-0.4-5.9-0.7-8.9-1.1c-4.3-0.5-8.7-1.1-13-1.7c0,0-0.1,0-0.1,0
							c-2.9-0.4-5.8-0.8-8.7-1.2c-2.9-0.4-5.8-0.8-8.8-1.2c-6.9-1-13.8-2-20.6-3.1c-0.8-0.1-1.6-0.2-2.4-0.4
							c-8.4-1.3-16.8-2.7-25.1-4.1c0,0-0.1,0-0.1,0c-4.3-0.7-8.7-1.5-13-2.2c0,0-0.1,0-0.1,0c-4.3-0.8-8.6-1.5-13-2.3
							c-14.6-2.6-29.1-5.2-43.6-7.9c-2.6-0.5-5.2-1-7.8-1.4c-3.5-0.7-7.1-1.3-10.6-2c-2.3-0.4-4.7-0.9-7-1.3
							c-10.5-1.9-21-3.9-31.5-5.8c-4.2-0.8-8.4-1.5-12.6-2.3c-0.3,0-0.6-0.1-0.9-0.1c-4.1-0.8-8.3-1.5-12.4-2.2
							c-0.2,0-0.4-0.1-0.5-0.1c-115.2-20.7-230.7-36.8-348.5-19.8c-106.9,14.4-212,48.1-304.4,104.2
							c-212.6,127.2-356.8,364-365.5,612.4c-0.4,85.8-2.3,171.7,0.6,257.4c1.4,15.4,9.2,26.9,20.1,34.5c0.6,0.4,1.2,0.9,1.9,1.3
							c0.1,0,0.1,0.1,0.2,0.1c0.7,0.4,1.3,0.8,2,1.2c1,0.6,2.1,1.2,3.2,1.7c0.7,0.3,1.4,0.7,2.1,1c30.1,13.4,73.3,2.5,79.8-35.1
							c4.7-89.7-1.8-179.8,3.2-269.6c15.3-202.3,131.7-393.5,304.4-499.9c139.6-88.6,311.4-117.5,473.9-95.1
							c25.5,3.8,51,8.1,76.5,12.7c2.5,0.5,5,0.9,7.5,1.4c121.8,22.3,243.4,49.6,367.4,49c1.7,0,3.5,0,5.2,0
							C5468.6,2680.2,5468.7,2680.2,5468.7,2680.2z M5324.5,3089.9c24.4-35.6-6.4-87.5-46.4-89.9c-1.9-0.1-3.7-0.1-5.6,0
							c-4.1,0.2-8.2,1-12.4,2.3c-37.9,14.2-64.8,46.7-97.8,69.2c-14.7,11.5-29.8,22.6-45.4,33.2c-1.8,1.2-3.6,2.4-5.5,3.7
							c-3.4,2.3-6.8,4.5-10.2,6.7c-7,4.5-14.2,8.9-21.4,13.2c-32.4,19.3-66.2,36.1-101.3,49.7c0,0,0,0-0.1,0
							c-4.8,1.9-9.7,3.7-14.6,5.4c-2,0.7-4,1.4-6,2.1c-1.9,0.7-3.9,1.3-5.8,2c-6.9,2.3-13.9,4.5-20.9,6.6c-1.7,0.5-3.5,1-5.2,1.5
							c-7.3,2.1-14.6,4-22,5.8c-4,0.9-8,1.9-12,2.7c-1.2,0.3-2.5,0.5-3.7,0.8c-2.7,0.5-5.4,1.1-8,1.6c-0.5,0.1-1.1,0.2-1.6,0.3
							c-1.7,0.3-3.5,0.6-5.2,1c-2,0.4-4.1,0.7-6.2,1.1c-2.1,0.3-4.1,0.7-6.2,1c-1,0.1-2.1,0.3-3.1,0.5c-2,0.3-4.1,0.6-6.1,0.9
							c0,0-0.1,0-0.1,0c-3.1,0.4-6.2,0.8-9.2,1.1c-1.1,0.1-2.1,0.2-3.2,0.4c-9.4,1-18.8,1.8-28.2,2.2c-5.2,0.3-10.4,0.4-15.7,0.5
							c0,0-0.1,0-0.1,0c-139.1,8-271.7-39.1-407.1-63.3c-1-0.2-1.9-0.4-2.9-0.5c-3.2-0.6-6.4-1.1-9.5-1.6c-2.9-0.5-5.7-0.9-8.5-1.4
							c-6.5-1-13-2-19.4-2.9c-2.7-0.8-5.4-1.3-8-1.6c-0.7-0.1-1.4-0.2-2.1-0.2c-63.6-6.3-88.4,100.1-18,112.7
							c136.2,18.6,269,65.1,406.4,72.2c22,1.1,44.1,1.3,66.4,0.1c3.5-0.2,7.1-0.4,10.6-0.6c6.4,0,12.8-0.1,19.2-0.3
							c69.5-2.4,136.4-17.9,200-42.8c2.9-1.1,5.8-2.3,8.7-3.4c4.2-1.7,8.4-3.4,12.6-5.2c0,0,0,0,0,0c3.5-1.5,7.1-3.1,10.6-4.6
							c6.2-2.8,12.4-5.6,18.5-8.5C5164.6,3219.2,5249.2,3157.1,5324.5,3089.9z M4562.2,5088.2c21.9-13.6,43.8-27.1,65.5-40.8
							c-24.4-12.5-48.8-24.9-73.2-37.4c-7-3.6-13.9-7.1-20.9-10.7c-10.5-5.3-20.9-10.7-31.3-16.1c-10.4-5.4-20.8-10.8-31.2-16.2
							c0,0,0,0,0,0c-58.9-30.9-117.3-62.7-174.2-97.2c-63.9-37.3-125.8-84.5-201.4-93.7c-70.4-11.7-138.9,15.5-208.9,16.9
							c-76.1,3.3-149.9-28.4-226.1-17.7c-38.2,3.8-73.4,17.3-106.8,34.7c-8.3,4.3-16.4,8.8-24.5,13.5c-1.6,0.9-3.2,1.9-4.9,2.8
							c-12.7,7.5-25.1,15.3-37.5,23.1c-6.5,4.1-13,8.2-19.5,12.3c-106.4,68.5-221.3,122.5-331.2,184.3c0,0,0,0,0,0
							c0,0-0.1,0-0.1,0.1c0.2,10.1,13,12.6,19.5,18.4c129.1,71.8,248.2,159.6,368.3,245.2c50.4,35.6,110.1,60.3,172.5,60
							c126.5-0.3,253,1.2,379.5-1.2c32.9-1.1,63.4-9.4,92.2-21.9c0.7-0.3,1.4-0.6,2.1-0.9c2-0.9,4.1-1.8,6.1-2.8
							c1.4-0.6,2.7-1.3,4.1-2c4.7-2.3,9.4-4.6,14.1-7.1c2-1.1,4.1-2.2,6.1-3.3c1.2-0.7,2.4-1.4,3.6-2c8-4.5,15.8-9.2,23.5-14.2
							c2.6-1.6,5.1-3.3,7.7-5c0,0,0,0,0,0c2.5-1.7,5.1-3.4,7.6-5.1c30.4-20.5,59.5-43.1,88.7-63.6c3-2.2,5.9-4.4,8.9-6.6
							c65.4-48,134.1-91.4,202.9-134.2h0C4549.7,5095.9,4556,5092.1,4562.2,5088.2z M3938.4,4333.2c0.6-143.8,0.8-287.6,0.8-431.5
							c0-23.2,0-46.4,0-69.6c-0.1-302.6-1-605.3-0.1-907.8c0-1.4,0-2.7-0.1-4c-0.1-1.4-0.2-2.8-0.4-4.2c0,0,0-0.1,0-0.1
							c-5.2-34.5-47.5-54.4-79.4-41.2c-14.6,5.4-24.5,17-29.7,30.7c-0.4,1-0.7,1.9-1,2.9c-0.3,1-0.7,2.1-1,3.2
							c-2.5,8.9-3.3,18.4-2.3,27.6c0.6,464.8-1,929.6,0.6,1394.3c0.8,49.5,63.1,61.7,94.7,36.9c0.7-0.5,1.3-1,1.9-1.6
							c0.3-0.3,0.6-0.6,0.9-0.8c0.6-0.6,1.2-1.1,1.8-1.7c0.6-0.6,1.1-1.1,1.6-1.8C3933.7,4356.5,3938.1,4346.1,3938.4,4333.2z
							 M3672.9,4416.6c1.1-196,1.1-392,1-588c0-3.6,0-7.2,0-10.8c0-40.7-0.1-81.3-0.1-122c0-29.7-0.1-59.4-0.1-89.1
							c0-35.3-0.1-70.5-0.1-105.8c0-68.5,0-137,0.1-205.5c1.4-75-6.4-150.3-26.8-222.5c-18.7-68.9-47.6-134.3-84.8-194.6
							c-3.8-6.2-7.8-12.4-11.8-18.5c-6.7-10.2-13.6-20.2-20.8-30.1c-4.3-5.9-8.7-11.8-13.1-17.6c0,0,0,0,0,0
							c-4.4-5.8-9-11.6-13.6-17.2c0,0,0,0,0,0c-3.1-3.8-6.2-7.5-9.3-11.3c0,0,0,0,0,0c-130.6-154.9-320-261-522.8-282.2
							c-79.7-7.7-160.4-7.1-240,2.3c-132.6,18.8-263.1,52.6-397,63.2c-23.3,2.2-51.6,2.1-69.6,18.4c-1.3,1.2-2.6,2.4-3.7,3.8
							c-1.9,2.1-3.6,4.4-5.1,7c-23.9,34.9,3.7,90.7,47.6,86.6c140.9-5.4,278.6-38.8,417.1-62c161-26.2,332.1-9,477.5,68.1
							c214.5,110.1,363.3,341.7,363.9,584.1c1.4,381.2-0.1,762.5,1.1,1143.7c2.7,48.5,66.3,58.9,95.8,31.6c0.8-0.8,1.7-1.6,2.5-2.4
							C3667.5,4438.4,3672.1,4428.7,3672.9,4416.6z M3481.1,3209.1c0.4-4.2,0.4-8.6,0-12.8c-2.5-25.7-20-50.1-49.6-51.6
							c-88.1,3.9-173.1,32.5-259.1,50.6c-113.8,26.5-235.4,31.2-347.9-4c-103-33.7-193.6-95.7-277.6-162.6
							c-20.7-16.2-46.4-35.1-74.1-25.4c-23.8,5.9-39.7,29.5-41.1,53.2c-0.1,2.3-0.1,4.6,0,6.8c0.7,11.1,4.6,21.8,12.7,30.4
							c147.7,124.8,325.8,233.9,525.5,235.3c162.3,9.8,315.9-51.5,474.2-74.4C3467.2,3248.2,3479.1,3229.4,3481.1,3209.1z"/>
						<path class="st5" d="M5673,1924.3c-87.3-404.2-299.9-787.7-622.1-1051.1C4764.2,638,4398.6,508.9,4030.2,485.8
							c-26.4,0.2-54.9-8.6-80.1,0.6c0,0.1,0,0.1,0,0.2c0,0-0.1,0-0.1,0c-0.8,228.8,0.5,457.9-0.2,686.8
							c284,3.2,572.4,20.4,845,107.1c348,122.5,647.1,359.4,878.1,643.9c0-0.1,0-0.2-0.1-0.3C5672.9,1924.2,5673,1924.2,5673,1924.3
							z M3626.7,1589.3c87.7-47.9,151.8-132.3,182.4-226.7c7.1-20.2,12.3-40.8,16.1-61.6c0,0,0,0,0,0c0.4-2.1,0.7-4.2,1.1-6.2
							c0.5-3.1,1-6.3,1.5-9.4c0.3-2.1,0.6-4.2,0.9-6.3c0.1-1.1,0.3-2.1,0.4-3.2c7.8-59.6,5.7-120.8,5.5-180.8c0-3.9,0-7.8,0-11.8
							c-0.2-41.1-0.2-82.2-0.2-123.3c0-18.1,0-36.2,0-54.3c0-10,0-20,0-30c0.2-130.6,0.5-261.3-1.1-391.9c0,0-0.1,0-0.1,0
							c0-0.1,0-0.1,0-0.2C3461.2,488.2,3085,599.9,2784.8,823c-324.6,237.5-550.7,595.2-657.1,980.5c0.1-0.1,0.2-0.2,0.2-0.2
							c0,0.2-0.1,0.3-0.1,0.4c152-162.9,378.9-243,599.5-233.5c199.4-8,393.2,46.1,589.9,68.2
							C3422,1650,3533.2,1642.2,3626.7,1589.3z M2121.7,4273.2c-87.3-341.4-139.5-691.4-163.7-1042.9
							c-29.8-48.2-71.6-91.1-119.3-122c-7.5-4.5-15.1-6.7-22.5-7.2c-1.9-0.1-3.9-0.1-5.8,0c-28.1,1.5-53.3,27.3-66.7,51.7
							c-60.8,107.2-63.3,235-60.7,355.1c10.4,226.3,83.3,455.7,232.2,629.5C1970.7,4198.9,2039.2,4254.6,2121.7,4273.2
							c-0.1,0-0.1,0-0.1,0C2121.6,4273.2,2121.7,4273.2,2121.7,4273.2z M6187,3337.4c26,287.8-39.4,591-213.6,825.2
							c-87.6,118.9-215.6,210.8-362.8,235.8c-135.8,451.8-335.6,894.5-652.8,1248.9c-5.1,235.8-0.5,472.6-2,708.8
							c2.7,119.9-10.3,242.8,25.1,359.4c65.4,223.7,251.2,423.8,488.4,459.2c135.6,14.8,272.7,0.8,408.6,8.1
							c58,11.4,52,107.7-7.6,110.6c-108.3,2.9-216.8,1.1-325.1,0.9c-40.9-0.1-81.7-4.2-121.7-12.1c6.7-2.6,12.7-5.6,18-8.9
							c1.4-0.9,2.8-1.7,4.1-2.6c23.6-16.2,31.2-38.4,15-57.2c-19.6-26-79.9-37.1-133.5-34.7c-49.6-0.2-99.2-0.4-148.8-0.7
							c-9-6.2-17.8-12.7-26.4-19.5c-187.3-144.4-308.9-375.1-309.5-612.9c-0.9-260.8,0.7-521.5-0.9-782.3c-0.1,0.1-0.2,0.2-0.3,0.3
							c-249.2,235.4-576.4,401.9-924.4,404.9c-370.6,16.1-726.4-154.8-993.1-403.6c0,0.2,0,0.4,0,0.6c-0.1-0.1-0.2-0.2-0.3-0.3
							c-2.7,196.9,0.2,393.9-0.8,590.8c-2,127,9.3,256.8-27.1,380.4c-28.1,109-81.7,212.3-154.2,299.6c-3.4,4.1-6.9,8.3-10.5,12.4
							c-1.8,2.1-3.6,4.2-5.5,6.2c-1.8,2.1-3.7,4.1-5.5,6.2c-35.2,38.9-74.4,74.2-116.8,104.8c-60.3-0.2-120.7-0.4-181-0.6
							c-40,0.1-68.4,9.5-85.2,22.9c-0.8,0.6-1.6,1.3-2.3,1.9c-30.9,26.7-17.1,67.7,41.2,82.5c-21.8,5.4-43.9,9.7-66.6,12.7
							c-115,14.9-231.4,4.9-346.9,8.4c-33-0.7-74.3,7.9-98.4-21.1c-29.3-31.4-5.2-89.9,37.5-92.2c136.4-6.5,274.5,10.1,410-12
							c241-45.1,427.8-255.5,481.1-489.4c20.7-83.3,14.4-169.6,15.1-254.5c0.4-252.4-0.4-504.8,0.8-757.1
							c1-15.8-11.1-27.2-19.8-38.6c-303.6-353.7-505.8-784.5-633.8-1230.1c-190.3-23.9-337.1-169.5-428.2-329.6
							c-118.4-203-167.1-441.6-156.2-675.2c7.2-135.8,32.1-292.3,146.3-381.1c72.2-55.2,169.9-22.4,231.3,33
							c-9.1-259.8-8-520-5.9-779.9c20-584.1,284.9-1172.9,759.3-1526.4c394.3-298.6,907.9-410.8,1395.2-363.3
							c466.3,40.6,922,251.7,1231.6,606.7c258.8,295.5,426.1,668.4,480.2,1057.1c23.2,157.5,15.1,317.1,16.5,475.7
							c0.8,172.7-1.6,345.3-10.1,517.7c59.3-52.9,150.8-68.7,217.6-19.8C6134.9,3086.7,6172.6,3217.9,6187,3337.4z M6079.4,3475.3
							c0-1.9,0.1-3.8,0.1-5.7c0-8-0.1-16.1-0.2-24.1c-0.1-6.4-0.3-12.9-0.5-19.4c-0.1-3.2-0.2-6.5-0.3-9.7
							c-3.4-85.7-16.4-172.2-56.6-248.5c-2.6-5.3-5.7-10.7-9.2-16.1c-0.6-1-1.3-2-2-2.9c-3.7-5.4-7.7-10.7-12.1-15.7
							c-0.8-0.9-1.6-1.8-2.4-2.7c-0.4-0.4-0.8-0.9-1.2-1.3c-0.8-0.9-1.7-1.8-2.5-2.6c-4.3-4.3-8.8-8.2-13.5-11.6
							c-0.9-0.7-1.9-1.4-2.9-2h0c-8.7-5.8-17.9-10-27.5-11.5c-0.5-0.1-1.1-0.2-1.6-0.2c-3.8-0.5-7.6-0.6-11.5-0.2
							c-9.1,0.9-18.4,4.5-27.7,11.3c-52.8,47-111.4,107.4-108.6,183.3c-23.5,328.7-74.4,655.8-155.4,975.3c0,0,0.1,0,0.1,0
							c0,0,0,0,0,0c7-2,13.8-4.2,20.6-6.7c4.5-1.6,9-3.4,13.5-5.2c7.8-3.2,15.5-6.8,23.1-10.5c2.1-1.1,4.2-2.1,6.3-3.2
							c4.3-2.2,8.5-4.6,12.6-7c42.8-24.6,81.2-57.4,115.3-92.8c162.8-177.3,237.5-421.2,244-658.8
							C6079.2,3482.9,6079.3,3479.1,6079.4,3475.3z M5636.6,3734.9c78-518.7,81.3-1044.6,72.8-1567.9c-0.1-4.2-0.9-8.2-2.2-12.1
							c-1.6-5-4-9.7-6.8-14.1c-182.2-256.4-408.9-486.7-685.1-641c-321.1-186.4-704.4-214.2-1067.6-212
							c-14.2,38.9-16.6,81.5-32.4,120.2c-50.4,156.3-179.5,285-339.4,326.9c-206,56.3-416.4-9.8-621.4-37.3
							c-200.8-25.8-418.8-29.9-599.9,73.8c-176,95.4-291.9,287.4-298.6,486.7c0,0,0,0.1,0,0.1c-0.1,3.1-0.2,6.3-0.2,9.5
							c0,1.6-0.1,3.3-0.1,4.9c0.1,11.6,0.1,23.2,0.1,34.9c-0.2,57.8-1.2,115.5-1.2,173.3c0,4.1,0,8.2,0,12.2c0,0,0,0.1,0,0.1
							c20.3-47.5,43-94.4,68.4-139.9c1.6-2.9,3.2-5.8,4.8-8.6c75.5-133.1,174.2-253.3,302.9-337.8c137.8-92.1,306-132.9,470.8-127.9
							c230.6-4.9,456.6,55.5,687,56c29.8,2,45.6,26.8,47,52.6c0.1,2.4,0.1,4.9,0,7.4c-1.3,24.8-16.1,48.5-44.7,51.4
							c-221.4,7.1-438-54.9-659.1-54.8c-144.2-4.9-292.4,23.2-416.3,99.8c-221.7,137.4-348.1,383.4-418.9,626.7
							c-15.1,61-37.6,122.1-39.6,185.2c-0.2,6.4-0.2,12.8,0,19.2c0.2,5.6,0.6,11.2,1.2,16.9c0.3,9.6,0.7,19.2,1,28.9
							c10.9,298.2,35.2,596.4,90.2,890c22.7,127,49.5,253.8,81.6,379.3c1.9,7.6,3.9,15.3,5.9,22.9c10.8,41.4,22.2,82.7,34.2,123.8
							c0.2,0.6,0.3,1.2,0.5,1.8c3.2,11,6.5,22,9.8,33c18.1,60.2,37.6,119.9,58.4,179.2c2.6,7.4,5.2,14.7,7.8,22.1c0,0,0,0.1,0,0.1
							c2.6,7.3,5.3,14.7,8,22c4.1,11.1,8.2,22.1,12.3,33.2c2.8,7.3,5.5,14.6,8.3,21.9c1.4,3.7,2.9,7.4,4.3,11.1
							c9.7,25,19.7,50,30,74.8c0.5,1.1,0.9,2.2,1.4,3.4c2.4,5.8,4.9,11.7,7.3,17.5c18.6,44.1,38.1,87.7,58.6,131
							c53.7,113.3,114,223.5,181.8,329.6c140.2,219.3,315.4,419.4,530.9,567.4c199.2,136.5,437,223.9,680.4,222.3
							c227.9,4.2,454-66.9,645.8-188.4c283.9-179.4,502.3-446.3,666.1-736.4c202.4-358.6,330.4-753.7,411.2-1156.7
							c0.8-3.8,1.5-7.5,2.2-11.3c1.5-7.5,3-15.1,4.4-22.6C5614.1,3871.1,5625.9,3803,5636.6,3734.9z"/>
						<path class="st5" d="M5596.5,3961.5c1.5-7.5,3-15.1,4.4-22.6C5599.5,3946.5,5598,3954,5596.5,3961.5z"/>
						<path class="st5" d="M5457.5,2569.7c57.5,3.4,68.9,96.8,11.2,110.5c0,0-0.1,0-0.1,0
							C5526.3,2666.5,5514.9,2573.2,5457.5,2569.7z"/>
						<path class="st4" d="M5050.8,873.3c322.2,263.2,534.8,646.7,622,1050.8c-231-284.4-530-521.2-877.9-643.8
							c-272.6-86.7-561-103.9-845-107.1c0.6-228.8-0.6-457.8,0.2-686.6c25.2-9.1,53.6-0.5,80-0.6
							C4398.6,508.9,4764.2,638,5050.8,873.3z"/>
						<path class="st5" d="M5457.5,2569.7c57.4,3.5,68.8,96.8,11.1,110.5c-1.7,0-3.5,0-5.2,0c-124,0.6-245.6-26.8-367.4-49
							c-2.5-0.4-5-0.9-7.5-1.4c-25.5-4.6-51-9-76.6-12.8c-162.5-22.4-334.4,6.5-473.9,95.1c-172.7,106.4-289.1,297.6-304.4,499.9
							c-5,89.7,1.5,179.9-3.2,269.6c-6.5,37.5-49.6,48.5-79.7,35.2c-0.7-0.3-1.4-0.6-2.1-1c-1.1-0.5-2.2-1.1-3.2-1.7
							c-0.7-0.4-1.4-0.8-2-1.2c0,0-0.1-0.1-0.2-0.1c-0.6-0.4-1.3-0.8-1.9-1.3c-10.8-7.6-18.6-19.1-20-34.4
							c-2.9-85.7-1-171.7-0.6-257.4c8.6-248.4,152.8-485.2,365.5-612.4c92.4-56.1,197.5-89.8,304.4-104.2
							c117.8-17,233.2-1,348.4,19.7c0.2,0,0.4,0.1,0.5,0.1c4.1,0.8,8.2,1.5,12.4,2.2c0.3,0.1,0.6,0.1,0.9,0.1
							c4.2,0.8,8.4,1.5,12.6,2.3c10.5,1.9,21,3.9,31.5,5.8c2.3,0.4,4.7,0.9,7,1.3c3.5,0.6,7.1,1.3,10.6,2c2.6,0.5,5.2,1,7.8,1.4
							c14.5,2.7,29.1,5.3,43.6,7.9c4.3,0.8,8.6,1.5,13,2.3c0,0,0.1,0,0.1,0c4.3,0.8,8.7,1.5,13,2.2c0,0,0.1,0,0.1,0
							c8.4,1.4,16.7,2.8,25.1,4.1c0.8,0.1,1.6,0.2,2.4,0.4c6.9,1.1,13.7,2.1,20.6,3.1c2.9,0.4,5.8,0.8,8.8,1.2
							c2.9,0.4,5.8,0.8,8.7,1.2c0,0,0.1,0,0.1,0c4.4,0.6,8.7,1.1,13,1.7c3,0.4,5.9,0.7,8.9,1.1c23.4,2.7,46.9,4.8,70.4,6.1
							c1.5,0.1,2.9,0.2,4.4,0.2C5455.5,2569.6,5456.5,2569.6,5457.5,2569.7z"/>
						<path class="st5" d="M5423.4,7282.2c6.7-2.6,12.8-5.6,18.1-8.9c-5.3,3.3-11.4,6.3-18,8.9
							C5423.5,7282.2,5423.4,7282.2,5423.4,7282.2z"/>
						<path class="st5" d="M5423.3,7282.2c-87.8-17.3-171.8-52.8-245.1-103.9c49.6,0.2,99.1,0.4,148.7,0.7
							c53.7-2.5,114,8.6,133.6,34.6c16.1,18.8,8.6,40.9-14.9,57.1c-1.3,0.9-2.6,1.8-4.1,2.6c-5.4,3.3-11.4,6.3-18.1,8.9
							c0,0,0.1,0,0.1,0C5423.4,7282.2,5423.4,7282.3,5423.3,7282.2c-0.1,0.1-0.1,0.1-0.2,0.1
							C5423.2,7282.2,5423.2,7282.2,5423.3,7282.2z"/>
						<path class="st5" d="M5379.7,2563.3c23.4,2.7,46.9,4.8,70.4,6.1C5426.5,2568.1,5403.1,2566,5379.7,2563.3z"/>
						<path class="st5" d="M5357.8,2560.5c4.4,0.6,8.7,1.1,13,1.7C5366.4,2561.7,5362.1,2561.1,5357.8,2560.5z"/>
						<path class="st5" d="M5349,2559.4c2.9,0.4,5.8,0.8,8.7,1.2C5354.8,2560.1,5351.9,2559.8,5349,2559.4z"/>
						<path class="st5" d="M5278.1,3000c40,2.4,70.7,54.3,46.3,89.9c-75.3,67.2-159.9,129.3-251.9,173.3c-6.1,2.9-12.3,5.8-18.5,8.5
							c-3.5,1.6-7.1,3.1-10.6,4.6c0,0,0,0,0,0c-4.2,1.8-8.4,3.5-12.6,5.2c-2.9,1.2-5.8,2.3-8.7,3.4c-63.6,24.8-130.4,40.4-200,42.8
							c-6.4,0.2-12.8,0.3-19.2,0.3c0,0-0.1,0-0.1,0c-3.5,0.2-7,0.5-10.5,0.6c-22.3,1.2-44.4,1-66.4-0.1
							c-137.4-7.2-270.1-53.7-406.3-72.2c-70.4-12.5-45.6-118.8,17.9-112.7c0.7,0.1,1.4,0.2,2.1,0.2c2.6,0.4,5.2,0.9,7.9,1.6
							c6.5,0.9,13,1.9,19.5,2.9c2.9,0.5,5.7,0.9,8.5,1.4c3.2,0.5,6.4,1.1,9.5,1.6c1,0.2,1.9,0.3,2.9,0.5
							c135.4,24.3,268,71.4,407.1,63.3c5.2-0.1,10.5-0.3,15.7-0.5c9.5-0.5,18.9-1.2,28.2-2.2c1.1-0.1,2.1-0.2,3.2-0.4
							c3.1-0.4,6.2-0.7,9.2-1.1c0,0,0.1,0,0.1,0c2-0.3,4.1-0.6,6.1-0.9c1-0.1,2.1-0.3,3.1-0.5c2.1-0.3,4.1-0.6,6.2-1
							c2.1-0.3,4.1-0.7,6.2-1.1c1.8-0.3,3.5-0.6,5.2-1c0.6-0.1,1.1-0.2,1.6-0.3c2.7-0.5,5.4-1,8-1.6c1.2-0.3,2.5-0.5,3.7-0.8
							c4-0.9,8-1.8,12-2.7c7.4-1.8,14.7-3.7,22-5.8c1.8-0.5,3.5-1,5.2-1.5c7-2.1,14-4.2,20.9-6.6c2-0.7,3.9-1.3,5.8-2
							c2-0.7,4-1.4,6-2.1c4.9-1.8,9.8-3.6,14.6-5.4c0,0,0,0,0.1,0c35-13.6,68.9-30.4,101.3-49.7c7.2-4.3,14.3-8.7,21.4-13.2
							c3.4-2.2,6.8-4.4,10.2-6.7c1.8-1.2,3.6-2.5,5.5-3.7c15.6-10.6,30.8-21.6,45.5-33.2c32.9-22.4,59.9-55,97.8-69.2
							c4.1-1.3,8.2-2.1,12.2-2.3C5274.3,2999.9,5276.2,2999.9,5278.1,3000z"/>
						<path class="st5" d="M5319.6,2555.1c6.9,1.1,13.7,2.1,20.6,3.1C5333.3,2557.1,5326.5,2556.1,5319.6,2555.1z"/>
						<path class="st5" d="M5292.1,2550.6c8.4,1.4,16.7,2.8,25.1,4.1C5308.9,2553.4,5300.5,2552,5292.1,2550.6z"/>
						<path class="st5" d="M5423.1,7282.3c-87.6-17.3-171.7-52.8-245-104c0,0,0.1,0,0.1,0c73.3,51.1,157.3,86.6,245.1,103.9
							C5423.2,7282.2,5423.2,7282.2,5423.1,7282.3z"/>
						<path class="st5" d="M5279,2548.4c4.3,0.7,8.7,1.5,13,2.2C5287.7,2549.9,5283.3,2549.2,5279,2548.4z"/>
						<path class="st5" d="M5265.9,2546.1c4.3,0.8,8.6,1.5,13,2.3C5274.6,2547.7,5270.2,2546.9,5265.9,2546.1z"/>
						<path class="st5" d="M5214.5,2536.8c2.6,0.5,5.2,1,7.8,1.4C5219.7,2537.8,5217.1,2537.3,5214.5,2536.8z"/>
						<path class="st5" d="M5196.9,2533.5c2.3,0.4,4.7,0.9,7,1.3C5201.6,2534.4,5199.2,2534,5196.9,2533.5z"/>
						<path class="st5" d="M5260.2,3002.3c-37.9,14.2-64.9,46.8-97.8,69.2c-14.7,11.6-29.9,22.6-45.5,33.2
							c15.6-10.6,30.7-21.6,45.4-33.2c33-22.5,59.9-55,97.8-69.2c4.2-1.3,8.3-2.1,12.4-2.3C5268.4,3000.2,5264.3,3001,5260.2,3002.3
							z"/>
						<path class="st5" d="M5111.4,3108.4c-3.4,2.3-6.8,4.5-10.2,6.7C5104.6,3112.9,5108,3110.6,5111.4,3108.4z"/>
						<path class="st5" d="M5053.9,3271.7c-3.5,1.6-7.1,3.1-10.6,4.6C5046.9,3274.8,5050.4,3273.3,5053.9,3271.7z"/>
						<path class="st5" d="M5043.3,3276.4c-4.2,1.8-8.4,3.5-12.6,5.2C5034.9,3279.9,5039.1,3278.1,5043.3,3276.4z"/>
						<path class="st5" d="M4903.9,3201.4c-4,0.9-8,1.9-12,2.7C4895.9,3203.2,4899.9,3202.3,4903.9,3201.4z"/>
						<path class="st5" d="M4888.2,3204.9c-2.7,0.6-5.4,1.1-8,1.6C4882.9,3206,4885.5,3205.4,4888.2,3204.9z"/>
						<path class="st5" d="M4873.3,3207.7c1.8-0.3,3.5-0.6,5.2-1C4876.8,3207.1,4875.1,3207.4,4873.3,3207.7z"/>
						<path class="st5" d="M4861,3209.8c2.1-0.3,4.1-0.7,6.2-1C4865.1,3209.1,4863,3209.5,4861,3209.8z"/>
						<path class="st5" d="M4857.9,3210.2c-2,0.3-4.1,0.6-6.1,0.9C4853.8,3210.8,4855.8,3210.5,4857.9,3210.2z"/>
						<path class="st5" d="M4851.7,3211.1c-3.1,0.4-6.2,0.8-9.2,1.1C4845.5,3211.9,4848.6,3211.5,4851.7,3211.1z"/>
						<path class="st5" d="M4822.1,3327.8c69.5-2.4,136.4-17.9,200-42.8C4958.4,3309.9,4891.6,3325.4,4822.1,3327.8z"/>
						<path class="st5" d="M4811,3214.9c9.5-0.5,18.9-1.2,28.2-2.2C4829.8,3213.6,4820.4,3214.4,4811,3214.9z"/>
						<path class="st5" d="M4388.1,3152.1c135.4,24.2,267.9,71.3,407.1,63.3c0,0,0.1,0,0.1,0
							C4656.1,3223.5,4523.6,3176.4,4388.1,3152.1z"/>
						<path class="st5" d="M4562.2,5088.2c-6.2,3.9-12.5,7.8-18.8,11.6C4549.7,5095.9,4556,5092.1,4562.2,5088.2z"/>
						<path class="st5" d="M4543.5,5099.8c-68.8,42.8-137.5,86.1-202.9,134.2C4406,5186,4474.6,5142.6,4543.5,5099.8z"/>
						<path class="st5" d="M4385.2,3151.6c-3.2-0.6-6.4-1.1-9.5-1.6C4378.9,3150.5,4382,3151,4385.2,3151.6z"/>
						<path class="st4" d="M4303.2,5005c-15.4-0.1-30.8-0.2-46.2-0.3c-15.4-0.1-30.8-0.2-46.2-0.3c-61.6-0.3-123.2-0.5-184.9-0.6
							c-15.4,0-30.8,0-46.2,0c-172.2-0.1-344.5,0.4-516.7,0.3c16.1-21.6,44.9-27.5,66.2-42.9c54.7-31.2,108-79.6,175.3-73.9
							c65.7,8.3,130.7,27.4,197.7,21.1c40.1,0,80.1-12.4,120-18.3c0.8-0.1,1.7-0.2,2.5-0.4c3-0.4,6.1-0.8,9.1-1.1
							c2-0.2,3.9-0.4,5.9-0.6c1.5-0.1,3-0.2,4.5-0.4c1.6-0.1,3.2-0.2,4.9-0.3c1.6-0.1,3.2-0.1,4.9-0.2c11.5-0.3,23,0.4,34.5,2.5
							c2.8,0.5,5.5,1.1,8.3,1.8c2.9,0.7,5.8,1.5,8.8,2.5c3.3,1.3,6.6,2.6,9.9,4c38.1,16,73.6,37.4,108.8,59.3
							c10.1,6.3,20.1,12.6,30.2,18.9c6,3.7,12.1,7.4,18.1,11.1c2,1.2,4.1,2.5,6.1,3.7c6.1,3.6,12.2,7.2,18.4,10.6
							C4299.1,5002.7,4301.1,5003.9,4303.2,5005z"/>
						<path class="st5" d="M4297,5001.5c-6.2-3.5-12.3-7-18.4-10.6C4284.7,4994.5,4290.9,4998.1,4297,5001.5z"/>
						<path class="st5" d="M4319.6,3256.4c136.1,18.6,268.9,65.1,406.3,72.2c-137.4-7.1-270.2-53.7-406.4-72.2
							c-70.4-12.6-45.6-119,18-112.7C4274,3137.6,4249.2,3243.9,4319.6,3256.4z"/>
						<path class="st5" d="M4272.5,4987.2c-6.1-3.6-12.1-7.4-18.1-11.1C4260.4,4979.9,4266.4,4983.6,4272.5,4987.2z"/>
						<path class="st5" d="M4257,5004.7c-15.4-0.1-30.8-0.2-46.2-0.3C4226.2,5004.5,4241.6,5004.6,4257,5004.7z"/>
						<path class="st5" d="M4235.4,5309.3c2.5-1.7,5.1-3.4,7.6-5.1C4240.5,5306,4238,5307.6,4235.4,5309.3z"/>
						<path class="st5" d="M4227.8,5314.3c2.6-1.6,5.1-3.3,7.7-5C4232.9,5311,4230.3,5312.6,4227.8,5314.3z"/>
						<path class="st4" d="M4303.2,5115.5c-73.1,52.2-142.3,124.9-235,137.5c-131.2,0.8-262.8,2.5-393.9-1.3
							c-85.5-19.8-152-85.2-221-136C3736.6,5118.3,4019.9,5117,4303.2,5115.5z"/>
						<path class="st5" d="M4200.6,5330.5c1.2-0.7,2.4-1.4,3.6-2C4203,5329.1,4201.8,5329.8,4200.6,5330.5z"/>
						<path class="st5" d="M4180.4,5341c4.7-2.3,9.4-4.7,14.1-7.1C4189.8,5336.3,4185.1,5338.7,4180.4,5341z"/>
						<path class="st5" d="M4230.5,3481.8c-6.5,37.6-49.6,48.4-79.8,35.1c30.1,13.3,73.2,2.3,79.7-35.2
							c4.7-89.7-1.8-179.9,3.2-269.6c15.3-202.3,131.7-393.5,304.4-499.9c139.5-88.6,311.4-117.5,473.9-95.1
							c25.6,3.8,51.1,8.2,76.6,12.8c-25.5-4.6-51-8.9-76.5-12.7c-162.5-22.4-334.3,6.5-473.9,95.1
							c-172.7,106.4-289.1,297.6-304.4,499.9C4228.7,3302,4235.2,3392.1,4230.5,3481.8z"/>
						<path class="st5" d="M4170.2,5345.7c2-0.9,4.1-1.8,6.1-2.8C4174.3,5343.9,4172.2,5344.8,4170.2,5345.7z"/>
						<path class="st5" d="M4150.7,3516.9c-0.7-0.3-1.4-0.6-2.1-1C4149.3,3516.2,4150,3516.6,4150.7,3516.9z"/>
						<path class="st5" d="M4025.9,5003.8c-15.4,0-30.8,0-46.2,0C3995.1,5003.8,4010.5,5003.8,4025.9,5003.8z"/>
						<path class="st5" d="M3979.7,5003.8c-172.3-0.1-344.5,0.4-516.8,0.4c0,0,0.1-0.1,0.1-0.1
							C3635.2,5004.2,3807.4,5003.7,3979.7,5003.8z"/>
						<path class="st5" d="M3949.9,1173.2c284,3.2,572.4,20.4,845,107.1c347.9,122.6,647,359.4,877.9,643.8c0,0.1,0,0.2,0.1,0.3
							c-231-284.5-530.1-521.4-878.1-643.9c-272.6-86.7-561-103.9-845-107.1c0.7-228.9-0.6-458,0.2-686.8c0,0,0.1,0,0.1,0
							C3949.3,715.4,3950.5,944.4,3949.9,1173.2z"/>
						<path class="st5" d="M3939.1,2924.3c-0.9,302.5-0.1,605.2,0.1,907.8C3939,3529.5,3938.1,3226.9,3939.1,2924.3z"/>
						<path class="st5" d="M3922.3,4368.7c0.3-0.3,0.6-0.6,0.9-0.8C3922.9,4368.2,3922.6,4368.5,3922.3,4368.7z"/>
						<path class="st5" d="M2602.9,7165.9c804.6,2.9,1609.4,7.8,2414.2,11.6C4212.4,7173.8,3407.5,7168.9,2602.9,7165.9z"/>
						<path class="st5" d="M3859.2,2874.9c31.8-13.3,74.1,6.5,79.4,41.1c0,0,0,0.1,0,0.1c0.2,1.4,0.3,2.8,0.4,4.2
							c0.1,1.3,0.1,2.7,0.1,4c-1,302.6-0.1,605.2,0.1,907.8c0,23.2,0,46.4,0,69.6c0,143.9-0.2,287.7-0.9,431.6
							c-0.2,12.9-4.7,23.2-11.6,31.1c-0.5,0.6-1.1,1.2-1.6,1.8c-0.6,0.6-1.2,1.2-1.8,1.7c-0.3,0.3-0.6,0.6-0.9,0.8
							c-0.6,0.5-1.3,1.1-1.9,1.6c-31.6,24.7-93.7,12.5-94.6-37c-1.6-464.7,0-929.5-0.6-1394.3c-0.9-9.1-0.2-18.6,2.2-27.5
							c0.3-1.1,0.6-2.1,1-3.2c0.3-1,0.7-1.9,1-2.9C3834.8,2891.8,3844.6,2880.2,3859.2,2874.9z"/>
						<path class="st5" d="M3834.5,1095.1c0.2,60.1,2.3,121.2-5.5,180.8C3836.8,1216.2,3834.7,1155.1,3834.5,1095.1z"/>
						<path class="st4" d="M3834.5,1095.1c0.1,60.1,2.2,121.2-5.5,180.8c-0.1,1-0.3,2.1-0.4,3.2c-0.3,2.1-0.6,4.2-0.9,6.3
							c-0.5,3.1-1,6.3-1.5,9.4c-0.4,2.1-0.7,4.2-1.1,6.2c0,0,0,0,0,0c-3.8,20.8-9,41.3-16.1,61.5c-30.6,94.4-94.7,178.9-182.5,226.6
							c-93.5,52.9-204.7,60.7-309.5,49.1c-196.7-22.1-390.5-76.2-589.9-68.2c-220.6-9.5-447.3,70.5-599.3,233.3
							c106.5-385.1,332.5-742.7,657-980.1c300.2-223.1,676.3-334.8,1048.2-339.4c1.7,130.6,1.4,261.3,1.2,391.9c0,10,0,20,0,30
							c0,18.1,0,36.2,0,54.3c0,41.1,0.1,82.2,0.2,123.3C3834.5,1087.2,3834.5,1091.1,3834.5,1095.1z"/>
						<path class="st5" d="M3834.3,905.7c0,18.1,0,36.2,0,54.3C3834.3,941.9,3834.3,923.8,3834.3,905.7z"/>
						<path class="st5" d="M3828.6,1279.1c-0.3,2.1-0.6,4.2-0.9,6.3C3828.1,1283.2,3828.3,1281.1,3828.6,1279.1z"/>
						<path class="st5" d="M3828.4,2908.4c-0.3,1-0.7,2.1-1,3.2C3827.7,2910.5,3828.1,2909.4,3828.4,2908.4z"/>
						<path class="st5" d="M3920.4,4370.3c-31.6,24.8-93.8,12.6-94.7-36.9c-1.6-464.7,0-929.5-0.6-1394.3
							c-0.9-9.1-0.2-18.7,2.3-27.6c-2.5,8.9-3.2,18.4-2.2,27.5c0.6,464.8-1,929.6,0.6,1394.3
							C3826.6,4382.8,3888.7,4395,3920.4,4370.3z"/>
						<path class="st5" d="M3660.5,4775.4c76.3-10.8,150,21,226.1,17.7c70-1.4,138.5-28.6,208.9-16.9
							c75.5,9.2,137.5,56.4,201.4,93.7c57,34.4,115.3,66.2,174.3,97.1c0,0,0,0,0,0c10.4,5.4,20.8,10.9,31.2,16.2
							c10.4,5.4,20.9,10.8,31.3,16.1c7,3.6,13.9,7.1,20.9,10.7c24.4,12.5,48.8,24.9,73.2,37.4c-21.8,13.6-43.6,27.2-65.5,40.8
							c-6.2,3.9-12.5,7.8-18.8,11.6h0c-68.8,42.8-137.5,86.1-202.9,134.2c-3,2.2-5.9,4.4-8.9,6.6c-29.1,20.5-58.3,43.2-88.7,63.6
							c-2.5,1.7-5.1,3.4-7.6,5.1c0,0,0,0,0,0c-2.5,1.7-5.1,3.3-7.7,5c-7.8,4.9-15.6,9.7-23.5,14.2c-1.2,0.7-2.4,1.4-3.6,2
							c-2,1.1-4.1,2.2-6.1,3.3c-4.7,2.5-9.3,4.9-14.1,7.1c-1.4,0.7-2.7,1.3-4.1,2c-2,0.9-4.1,1.9-6.1,2.8c-0.7,0.3-1.4,0.6-2.1,0.9
							c-28.8,12.5-59.3,20.7-92.1,21.8c-126.5,2.3-253,0.9-379.5,1.2c-62.4,0.3-122.1-24.4-172.5-60
							c-120.1-85.6-239.2-173.4-368.3-245.2c-6.5-5.8-19.3-8.3-19.5-18.4c109.9-61.8,224.7-115.8,331.1-184.2
							c6.5-4.1,13.1-8.3,19.6-12.4c12.4-7.8,24.8-15.6,37.5-23.1c1.6-1,3.2-1.9,4.9-2.8c8.1-4.7,16.2-9.2,24.5-13.5
							C3587.2,4792.6,3622.4,4779.2,3660.5,4775.4z M4303.2,5115.5c0,0,0.1-0.1,0.1-0.1c-283.3,1.5-566.7,2.8-850.1,0.2
							c0.1,0,0.1,0.1,0.1,0.1c-0.1,0-0.1,0-0.1,0c69,50.8,135.4,116.2,221.1,136.1c131.1,3.8,262.7,2.1,393.9,1.3
							c92.8-12.7,162-85.5,235.1-137.6C4303.2,5115.5,4303.2,5115.5,4303.2,5115.5z M4257,5004.7c15.4,0.1,30.8,0.2,46.2,0.3
							c-2.1-1.1-4.1-2.3-6.2-3.5c-6.2-3.5-12.3-7-18.4-10.6c-2-1.2-4.1-2.4-6.1-3.7c-6.1-3.6-12.1-7.4-18.1-11.1
							c-10.1-6.2-20.2-12.6-30.2-18.9c-35.2-21.9-70.6-43.4-108.8-59.3c-3.3-1.4-6.6-2.7-9.9-4c-2.9-0.9-5.8-1.7-8.8-2.5
							c-2.8-0.7-5.5-1.3-8.3-1.8c-11.5-2.1-23-2.8-34.5-2.5c-1.6,0-3.2,0.1-4.9,0.2c-1.6,0.1-3.2,0.2-4.9,0.3
							c-1.5,0.1-3,0.2-4.5,0.4c-2,0.2-3.9,0.4-5.9,0.6c-3,0.3-6.1,0.7-9.1,1.1c-0.8,0.1-1.7,0.2-2.5,0.4
							c-39.9,5.8-79.9,18.2-120.1,18.2c-67,6.3-132-12.8-197.7-21.1c-67.3-5.7-120.6,42.6-175.3,73.9c-21.3,15.4-50.1,21.4-66.3,43
							c0.1,0,0.1,0,0.2,0c0,0-0.1,0.1-0.1,0.1c172.3,0,344.5-0.5,516.8-0.4c15.4,0,30.8,0,46.2,0c61.6,0.1,123.2,0.2,184.9,0.6
							C4226.2,5004.5,4241.6,5004.6,4257,5004.7z"/>
						<path class="st5" d="M3673.9,3828.6c0.1,196,0,392-1.1,588.1c-0.8,12-5.4,21.7-12.2,29.1c-0.8,0.9-1.6,1.7-2.5,2.4
							c-29.6,27.1-93,16.7-95.7-31.7c-1.3-381.2,0.3-762.5-1.1-1143.7c-0.7-242.4-149.5-474-363.9-584.1
							c-145.4-77.1-316.5-94.3-477.5-68.1c-138.6,23.2-276.2,56.6-417.1,62c-43.9,4.1-71.6-51.7-47.6-86.6c1.5-2.5,3.2-4.8,5-6.9
							c1.2-1.4,2.4-2.6,3.7-3.8c18-16.2,46.2-16.1,69.5-18.3c133.9-10.6,264.4-44.4,397-63.2c79.6-9.4,160.3-10,240-2.3
							c202.9,21.1,392.3,127.1,522.9,282.1c0,0,0,0,0,0c3.1,3.7,6.2,7.5,9.3,11.3c0,0,0,0,0,0c4.6,5.7,9.1,11.4,13.6,17.2
							c0,0,0,0,0,0c4.5,5.8,8.8,11.7,13.1,17.6c7.2,9.9,14.1,19.9,20.8,30.1c4,6.1,7.9,12.3,11.8,18.5
							c37.1,60.2,66,125.6,84.8,194.6c20.4,72.2,28.2,147.5,26.8,222.5c-0.1,68.5-0.1,137-0.1,205.5c0,35.3,0,70.5,0.1,105.8
							c0,29.7,0.1,59.4,0.1,89.1c0,40.7,0.1,81.3,0.1,122C3673.9,3821.4,3673.9,3825,3673.9,3828.6z"/>
						<path class="st5" d="M3673.8,3695.8c0,40.7,0.1,81.3,0.1,122C3673.8,3777.2,3673.8,3736.5,3673.8,3695.8z"/>
						<path class="st5" d="M3673.6,3500.9c0,35.3,0,70.5,0.1,105.8C3673.7,3571.4,3673.7,3536.1,3673.6,3500.9z"/>
						<path class="st5" d="M3672.8,4416.7c1.1-196,1.2-392.1,1.1-588.1c0.1,196,0.1,392-1,588c-0.8,12.1-5.4,21.8-12.3,29.2
							C3667.4,4438.4,3672,4428.7,3672.8,4416.7z"/>
						<path class="st5" d="M3550.3,2859.8c4,6.1,7.9,12.3,11.8,18.5C3558.3,2872.1,3554.3,2865.9,3550.3,2859.8z"/>
						<path class="st5" d="M3453.3,5115.7c68.9,50.8,135.4,116.2,221,136c131.1,3.8,262.7,2.1,393.9,1.3
							c92.6-12.6,161.9-85.3,235-137.5c0,0,0.1,0,0.1,0c-73.1,52.1-142.3,124.9-235.1,137.6c-131.2,0.8-262.8,2.5-393.9-1.3
							c-85.7-19.9-152.1-85.3-221.1-136.1C3453.2,5115.7,3453.3,5115.7,3453.3,5115.7z"/>
						<path class="st5" d="M3529.3,4823.5c-1.6,0.9-3.2,1.9-4.9,2.8C3526,4825.3,3527.6,4824.4,3529.3,4823.5z"/>
						<path class="st5" d="M3516.4,2812.1c4.5,5.8,8.9,11.7,13.1,17.6C3525.2,2823.8,3520.9,2817.9,3516.4,2812.1z"/>
						<path class="st5" d="M3502.8,2794.8c4.6,5.7,9.2,11.4,13.6,17.2C3511.9,2806.3,3507.4,2800.5,3502.8,2794.8z"/>
						<path class="st5" d="M3493.4,2783.6c3.2,3.7,6.3,7.5,9.3,11.3C3499.7,2791,3496.6,2787.3,3493.4,2783.6z"/>
						<path class="st5" d="M3481.1,3196.2c0.4,4.3,0.4,8.6,0,12.8c-2,20.3-13.9,39.1-37,45.3c-158.3,22.9-311.9,84.2-474.2,74.4
							c-199.7-1.4-377.7-110.5-525.5-235.3c-8-8.6-12-19.3-12.7-30.3c-0.1-2.3-0.1-4.6,0-6.8c1.4-23.7,17.3-47.2,41.1-53.1
							c27.7-9.7,53.4,9.2,74.1,25.4c84,66.9,174.7,128.9,277.6,162.6c112.5,35.1,234,30.4,347.9,4c86-18.1,171-46.7,259.1-50.6
							C3461.1,3146.2,3478.5,3170.6,3481.1,3196.2z"/>
						<path class="st5" d="M3523.9,5309.7c-120.1-85.6-239.2-173.4-368.3-245.2c-6.5-5.8-19.3-8.3-19.5-18.4c0,0,0.1,0,0.1-0.1
							c0.2,10.1,13,12.6,19.5,18.4c129.1,71.8,248.2,159.6,368.3,245.2c50.4,35.6,110.1,60.3,172.5,60c126.5-0.3,253,1.1,379.5-1.2
							c32.9-1.1,63.3-9.3,92.1-21.8c-28.9,12.5-59.4,20.8-92.2,21.9c-126.5,2.4-253,0.9-379.5,1.2
							C3634,5370,3574.3,5345.3,3523.9,5309.7z"/>
						<path class="st5" d="M2895.8,6736.2c-28.2,109.1-81.9,212.6-154.5,299.9c72.4-87.3,126.1-190.6,154.2-299.6
							c36.4-123.6,25.1-253.4,27.1-380.4c1-196.9-1.9-393.9,0.8-590.8c0.1,0.1,0.2,0.2,0.3,0.3c-2.7,196.7,0.2,393.5-0.8,590.2
							C2921,6482.8,2932.2,6612.6,2895.8,6736.2z"/>
						<path class="st5" d="M2659.9,5264.6c-67.8-106.2-128.1-216.4-181.8-329.6c53.7,113.2,114,223.4,181.8,329.5
							c140.2,219.2,315.4,419.4,530.9,567.4c199.2,136.6,437,223.9,680.4,222.3c228,4.2,454-66.9,645.8-188.4
							c283.9-179.5,502.3-446.4,666.1-736.4c202.4-358.5,330.3-753.7,411.2-1156.6c-80.8,403-208.8,798.1-411.2,1156.7
							c-163.8,290.1-382.2,557-666.1,736.4c-191.8,121.5-417.9,192.6-645.8,188.4c-243.4,1.6-481.2-85.8-680.4-222.3
							C2975.3,5684,2800.1,5483.9,2659.9,5264.6z"/>
						<path class="st4" d="M2602.8,7165.9c42.5-30.6,81.7-66,117.1-105c1.9-2.1,3.7-4.1,5.5-6.2c1.8-2.1,3.7-4.1,5.5-6.2
							c3.5-4.1,7-8.2,10.5-12.4c72.6-87.3,126.3-190.8,154.5-299.9c36.4-123.6,25.2-253.4,27.1-380.4c1-196.7-1.9-393.5,0.8-590.2
							c266.7,248.7,622.3,419.4,992.8,403.3c348.1-3,675.5-169.7,924.7-405.2c1.6,260.8,0,521.5,0.9,782.3
							c0.7,237.6,122.3,468.4,309.6,612.8c8.6,6.7,17.5,13.2,26.4,19.5c-53.6-0.2-107.3-0.5-161-0.8
							C4212.3,7173.7,3407.5,7168.8,2602.8,7165.9C2602.9,7165.9,2602.8,7165.9,2602.8,7165.9z"/>
						<path class="st5" d="M2472.8,3003.2c27.7-9.7,53.4,9.2,74.1,25.4c84,66.9,174.6,128.9,277.6,162.6
							c112.5,35.2,234.1,30.5,347.9,4c86-18.1,171-46.7,259.1-50.6c29.6,1.5,47,26,49.6,51.6c-2.6-25.6-20-50-49.6-51.5
							c-88.1,3.9-173.1,32.5-259.1,50.6c-113.9,26.4-235.4,31.1-347.9-4c-102.9-33.7-193.6-95.7-277.6-162.6
							c-20.7-16.2-46.4-35.1-74.1-25.4c-23.7,5.9-39.6,29.4-41.1,53.1C2433.1,3032.7,2449,3009.1,2472.8,3003.2z"/>
						<path class="st5" d="M2376.2,7272.4c82.1-20.5,158.5-57.4,226.7-106.5c804.6,3,1609.5,7.9,2414.2,11.6
							c53.6,0.3,107.3,0.5,161,0.8c73.4,51.2,157.4,86.7,245,104c-18,7-40.4,11.1-65.9,10.7c-978.5-6.2-1957.5-8.2-2935.8-15.2
							C2404.2,7277.6,2389.1,7275.6,2376.2,7272.4z"/>
						<path class="st5" d="M2602.8,7165.8c-68.1,49.1-144.6,86-226.7,106.5c-0.1,0-0.2,0-0.2-0.1c0.2-0.1,0.4-0.1,0.5-0.1
							c-58.3-14.6-72.3-55.5-41.8-82.3c0.8-0.7,1.5-1.3,2.3-1.9c16.8-13.2,45.1-22.5,84.9-22.6
							C2482.1,7165.4,2542.5,7165.6,2602.8,7165.8z"/>
						<path class="st5" d="M2784.9,823.2c-324.5,237.4-550.5,594.9-657,980.1c-0.1,0.1-0.1,0.2-0.2,0.2
							c106.4-385.3,332.5-743,657.1-980.5c300.2-223.1,676.4-334.8,1048.3-339.4c0,0.1,0,0.1,0,0.2
							C3461.2,488.4,3085.1,600.1,2784.9,823.2z"/>
						<path class="st5" d="M2334.6,7189.8c-30.6,26.8-16.6,67.7,41.8,82.3c-0.2,0-0.4,0.1-0.5,0.1
							C2317.5,7257.5,2303.7,7216.5,2334.6,7189.8z"/>
						<path class="st5" d="M2264,2585.3c18-16.3,46.3-16.2,69.6-18.4c133.9-10.6,264.4-44.4,397-63.2c79.6-9.4,160.3-10,240-2.3
							c202.8,21.1,392.2,127.2,522.8,282.2c-130.6-154.9-320.1-261-522.9-282.1c-79.7-7.7-160.4-7.1-240,2.3
							c-132.6,18.8-263.1,52.6-397,63.2C2310.2,2569.2,2282,2569.1,2264,2585.3z"/>
						<path class="st5" d="M2281.4,4418.9c-3.3-11-6.6-22-9.8-33C2274.8,4396.9,2278.1,4407.9,2281.4,4418.9z"/>
						<path class="st5" d="M2271.1,4384c-12-41.1-23.4-82.3-34.2-123.8C2247.7,4301.7,2259.1,4343,2271.1,4384z"/>
						<path class="st5" d="M2430.8,2006.8c-128.8,84.4-227.4,204.7-302.9,337.8c75.5-133.1,174.1-253.4,302.9-337.9
							c137.8-92,306-132.9,470.8-127.9c230.7-4.9,456.7,55.5,687,56c29.8,2,45.7,26.9,47,52.7c-1.4-25.8-17.2-50.6-47-52.6
							c-230.4-0.5-456.4-60.9-687-56C2736.8,1873.9,2568.6,1914.7,2430.8,2006.8z"/>
						<path class="st5" d="M2149.4,3858.1c-55-293.6-79.3-591.9-90.2-890c11,298.1,35.2,596.3,90.2,889.9
							c22.7,127.1,49.6,253.9,81.6,379.4C2198.9,4111.9,2172.1,3985.1,2149.4,3858.1z"/>
						<path class="st5" d="M2054.6,2493c20.3-47.4,43-94.4,68.4-139.8c-25.4,45.5-48.1,92.5-68.4,139.9
							C2054.6,2493.1,2054.6,2493,2054.6,2493z"/>
						<path class="st5" d="M2058.2,2939.1C2058.2,2939.1,2058.2,2939.2,2058.2,2939.1c-0.6-5.5-1-11.2-1.2-16.8
							C2057.2,2927.9,2057.6,2933.5,2058.2,2939.1z"/>
						<path class="st4" d="M1957.9,3230.3c24.2,351.4,76.4,701.4,163.7,1042.9c-82.5-18.7-150.8-74.3-206.3-135.8
							c-148.9-173.7-221.8-403.1-232.2-629.5c-2.6-120.1-0.1-247.9,60.7-355.1c13.4-24.4,38.6-50.2,66.6-51.7c1.9-0.1,3.8-0.1,5.8,0
							c7.4,0.5,14.9,2.8,22.4,7.2C1886.4,3139.2,1928.1,3182.1,1957.9,3230.3z"/>
						<path class="st5" d="M1683,3507.9c-2.6-120.1-0.1-247.9,60.7-355.1c13.4-24.4,38.7-50.2,66.7-51.7
							c-28,1.6-53.2,27.4-66.6,51.7C1683,3260,1680.5,3387.8,1683,3507.9c10.5,226.4,83.4,455.8,232.3,629.5
							c55.5,61.5,123.8,117.1,206.3,135.8c0,0,0,0,0,0c-82.4-18.6-150.9-74.3-206.4-135.8C1766.3,3963.6,1693.4,3734.2,1683,3507.9z
							"/>
					</g>
					<g>
					</g>
				</g>
			</g>
		</g>
	</g>
</g>
</svg>
