<?xml version="1.0" encoding="utf-8"?>
<!-- Generator: Adobe Illustrator 28.3.0, SVG Export Plug-In . SVG Version: 6.00 Build 0)  -->
<svg version="1.1" id="a" xmlns="http://www.w3.org/2000/svg" xmlns:xlink="http://www.w3.org/1999/xlink" x="0px" y="0px"
	 viewBox="0 0 512 512" style="enable-background:new 0 0 512 512;" xml:space="preserve">
<style type="text/css">
	.st0{fill:#FFFFFF;}
</style>
<path class="st0" d="M335.9,496h-61.2c0-4.4-3.6-8-8-8s-8,3.6-8,8h-61.2c2.6-10.9,5-25.9,4.5-43c20.6,14.5,42.9,24,63.2,24
	c21,0,44.5-10,66.1-25.1C330.8,469.5,333.2,484.9,335.9,496L335.9,496z"/>
<path class="st0" d="M441.8,274.7c-6.5,23.6-16.8,38.6-20.8,41.3c-1.4,1-2.5,1.5-3.2,1.6c5.9-22.4,10.5-48.7,10.5-76.4
	c0-2.3-0.1-4.6-0.2-6.8c4.2-1.8,10.2-3.3,13.9-0.8C447.9,237.6,447.8,252.9,441.8,274.7z"/>
<path class="st0" d="M115.6,317.6C115.6,317.6,115.6,317.6,115.6,317.6c-5.4,0.8-10.5-1.2-11.9-4.5c-1.6-3.6-4-6.2-7.1-9.4
	c-5.1-5.3-12.7-13.4-24.4-33.8c-8.9-15.5-7.2-26.7-4.2-33.4c3.6-8.2,10.6-13,15.9-14.1c10-2.1,17.8,2.4,21.8,5.4
	c-0.4,4.5-0.6,9-0.6,13.5C105.1,268.9,109.7,295.2,115.6,317.6L115.6,317.6z"/>
<path class="st0" d="M409.2,217.6c-11.4-24.6-57-38.6-131.7-54.4c-0.9-0.2-1.9-0.4-2.8-0.6v2.4c0,4.4-3.6,8-8,8s-8-3.6-8-8v-7
	c-32.1-11.6-42.6-30.7-46-43c-13.9,5.8-41,19-59,39.2c-28.3,31.6-32.6,68.2-32.6,87.1c0,62.3,24.6,117.5,32.2,132.9
	c22.8,46.5,72.2,82,105.4,86.3v-14.2c0-4.4,3.6-8,8-8s8,3.6,8,8v13.8c16.4-2.7,35.8-12.1,54.7-26.7c21.8-16.8,40.8-39,50.7-59.3
	c7.5-15.4,32.2-70.6,32.2-132.9C412.3,233.2,411.3,225.3,409.2,217.6L409.2,217.6z M258.7,198.1c0-4.4,3.6-8,8-8s8,3.6,8,8v16.6
	c0,4.4-3.6,8-8,8s-8-3.6-8-8V198.1z M258.7,247.7c0-4.4,3.6-8,8-8s8,3.6,8,8v16.6c0,4.4-3.6,8-8,8s-8-3.6-8-8V247.7z M238.4,310.6
	c3.3-3,8.3-2.7,11.3,0.6c3,3.4,6.6,5.8,10.4,7.1c-0.8-1.3-1.3-2.8-1.3-4.4v-16.5c0-4.4,3.6-8,8-8s8,3.6,8,8v16.5
	c0,1.5-0.4,2.9-1.1,4.1c3.7-1.4,7.2-4,10.1-7.4c2.9-3.4,7.9-3.7,11.3-0.9c3.4,2.9,3.7,7.9,0.9,11.3c-7.8,9.1-18.5,14.3-29.4,14.3
	c-10.5,0-20.9-4.9-28.7-13.6C234.8,318.6,235.1,313.5,238.4,310.6L238.4,310.6z M187.4,253.7c-16.9,0-30.6-13.7-30.6-30.5
	c-2.2,1.4-3.4,2.4-3.5,2.5c-1.5,1.4-3.4,2.1-5.4,2.1c-2.2,0-4.3-0.9-5.9-2.6c-3-3.2-2.8-8.3,0.5-11.3c0.6-0.6,16.3-14.7,44.9-14.7
	s44.3,14.1,44.9,14.7c3.2,3,3.5,8.1,0.5,11.3s-8.1,3.5-11.3,0.5c-0.1-0.1-1.3-1.1-3.4-2.5C217.9,240,204.2,253.7,187.4,253.7z
	 M318.1,381.5c-2.6,3-23.2,26.6-43.4,32.1c-0.2,4.2-3.7,7.6-8,7.6s-7.8-3.4-8-7.6c-20.1-5.5-40.8-29.1-43.4-32.1
	c-1.6-1.9-2.3-4.4-1.7-6.9c0.5-2.4,2.1-4.5,4.4-5.6c2.9-1.3,24.8-11.5,40.7-14.6V347c0-4.4,3.6-8,8-8s8,3.6,8,8v7.4
	c15.9,3.1,37.8,13.3,40.7,14.6c2.3,1.1,3.9,3.1,4.4,5.6C320.3,377,319.7,379.6,318.1,381.5L318.1,381.5z M391.5,225.2
	c-3,3.2-8,3.5-11.3,0.5c-0.2-0.1-1.4-1.2-3.5-2.5c-0.1,16.8-13.8,30.5-30.6,30.5s-30.6-13.7-30.6-30.5c-2.2,1.4-3.4,2.4-3.5,2.5
	c-1.5,1.4-3.5,2.1-5.4,2.1c-2.2,0-4.3-0.9-5.9-2.6c-3-3.2-2.8-8.3,0.5-11.3c0.6-0.6,16.3-14.7,44.9-14.7s44.3,14.1,44.9,14.7
	C394.3,216.9,394.5,221.9,391.5,225.2z"/>
<path class="st0" d="M274.7,396.7L274.7,396.7c0-4.5-3.6-8-8-8s-8,3.6-8,8v0c-7.7-3.5-16.6-10.7-23.7-17.7c9.1-3.8,19.7-7.6,27-9
	c1.3,1,2.9,1.5,4.7,1.5c1.8,0,3.4-0.6,4.7-1.5c7.3,1.4,17.9,5.2,27,9C291.3,386,282.4,393.3,274.7,396.7L274.7,396.7z"/>
<path class="st0" d="M360.7,223.1c0,8.1-6.6,14.6-14.6,14.6s-14.6-6.6-14.6-14.6c0-2.3,0.5-4.6,1.6-6.6c3.8-0.8,8.2-1.2,13-1.2
	s9.2,0.5,13,1.3C360.2,218.5,360.7,220.7,360.7,223.1L360.7,223.1z"/>
<path class="st0" d="M202,223.1c0,8.1-6.6,14.6-14.6,14.6s-14.6-6.6-14.6-14.6c0-2.3,0.6-4.6,1.6-6.6c3.8-0.8,8.2-1.2,13.1-1.2
	s9.2,0.5,13.1,1.2C201.4,218.5,202,220.7,202,223.1z"/>
<path class="st0" d="M419.1,111.2c-17-35.5-42.9-61.7-76.9-78c-26.9-12.8-52.6-16.2-67.4-17c-0.1,4.3-3.6,7.8-8,7.8s-7.9-3.5-8-7.8
	c-14.9,0.8-40.6,4.2-67.4,17c-34,16.2-59.9,42.5-76.9,78c-15.2,31.8-17.3,77.9-17.5,95.3c4.3,0.9,8.2,2.3,11.4,4
	c5.2-25.1,16.6-48.2,33.5-67.1c27.9-31.2,72.9-46.5,74.8-47.1c2.5-0.8,5.3-0.5,7.4,1.2s3.3,4.1,3.1,6.8c0,1.1,0,24.2,34.8,37.8
	c1.3-1,3-1.6,4.8-1.6c3.6,0,6.6,2.4,7.6,5.6c2.1,0.5,4.2,1.1,6.4,1.5c33.5,7.1,68,15,93.9,25.3c26.7,10.6,42.4,22.9,49.4,38.8
	c0.2,0.4,0.3,0.7,0.4,1.1c0.5,1.8,1,3.7,1.4,5.5c3.2-1,6.9-1.8,10.7-1.9l0.1-2.9C436.7,211.5,437.9,150.4,419.1,111.2L419.1,111.2z
	 M274.7,115.3c0,4.4-3.6,8-8,8s-8-3.6-8-8V98.8c0-4.4,3.6-8,8-8s8,3.6,8,8V115.3z M274.7,65.7c0,4.4-3.6,8-8,8s-8-3.6-8-8V49.1
	c0-4.4,3.6-8,8-8s8,3.6,8,8V65.7z"/>
<path class="st0" d="M97.2,356.4c-1.5-1.7-3.7-2.6-5.9-2.6s-4.4,0.9-5.9,2.6l-18.6,20.3c-3,3.3-2.8,8.3,0.5,11.3
	c3.3,3,8.3,2.8,11.3-0.5l4.7-5.2v24.2c0,4.4,3.6,8,8,8s8-3.6,8-8v-24.2l4.7,5.2c1.6,1.7,3.7,2.6,5.9,2.6c1.9,0,3.9-0.7,5.4-2.1
	c3.3-3,3.5-8,0.5-11.3L97.2,356.4L97.2,356.4z"/>
<path class="st0" d="M467.5,376.7l-18.6-20.3c-1.5-1.7-3.7-2.6-5.9-2.6s-4.4,0.9-5.9,2.6l-18.6,20.3c-3,3.3-2.8,8.3,0.5,11.3
	c3.3,3,8.3,2.8,11.3-0.5l4.7-5.2v24.2c0,4.4,3.6,8,8,8s8-3.6,8-8v-24.2l4.7,5.2c1.6,1.7,3.7,2.6,5.9,2.6c1.9,0,3.9-0.7,5.4-2.1
	C470.2,385,470.4,380,467.5,376.7L467.5,376.7z"/>
</svg>
