<?xml version="1.0" encoding="UTF-8"?>
<svg id="Layer_2" data-name="Layer 2" xmlns="http://www.w3.org/2000/svg" viewBox="0 0 119.28 101.76">
  <defs>
    <style>
      .cls-1 {
        fill: #fff;
        stroke-width: 0px;
      }
    </style>
  </defs>
  <g id="Layer_1-2" data-name="Layer 1">
    <g>
      <g>
        <path class="cls-1" d="M8.75,3.34C17.83-1.93,28.85.23,38.66,1.81c-1.26,4.91-1.68,9.99-3.18,14.84-.75.09-2.24.27-2.98.36-.06-4.54-1.14-10.04-5.81-12.03-4.55-1.59-10.49-1.33-13.96,2.42-3.43,3.76-2.42,9.92.98,13.37,6.44,6.67,16.38,8.75,22.29,16.07,6.2,7.4,4.59,20.47-4.35,25.03-7.53,4-16.72,3.89-24.65,1.16-3.11-1.15-6.51-3.33-6.99-6.91-.18-3.48,1.25-6.78,2.31-10.02,1.07-.05,2.15-.1,3.24-.14.41,3.29.61,6.86,2.6,9.65,3.83,5.64,12.2,6.77,17.95,3.61,3.58-1.83,5.06-6.42,3.96-10.16-1.02-4.47-4.88-7.42-8.5-9.81-6.05-3.98-13.17-6.91-17.47-13.01C-.99,19.08.96,7.79,8.75,3.34Z"/>
        <path class="cls-1" d="M57.75,1.6c9.65.03,19.3-.11,28.94.07,10.5.47,22.17,3.74,28.26,12.99,6.64,10.67,5.39,25.46-2.09,35.4-3.61,4.78-8.77,8.24-14.32,10.39-12.76,4.96-26.7,2.36-40.02,3.41,0-.96,0-1.91.03-2.87,2.9-.81,6.52-2.37,6.34-5.99.15-14.02,0-28.05.07-42.08-.09-2.07.22-4.33-.83-6.21-1.6-1.78-4.18-1.86-6.32-2.51-.02-.65-.04-1.95-.06-2.6ZM75.34,5.78c-1.17,17.8.34,35.74-.79,53.56,4.04-.01,8.1.08,12.14-.33,6.91-.91,13.92-4.32,17.52-10.52,4.01-6.49,4.23-14.42,3.47-21.79-1.04-7.35-4.97-14.77-11.84-18.18-6.29-3.34-13.63-2.7-20.5-2.74Z"/>
      </g>
      <path class="cls-1" d="M101.64,75.5c-4.79,4.94-10.33,9.07-16.52,12.09-8.72,4.32-18.49,6.6-28.29,6.6-14.64,0-28.56-5.08-39.22-14.29-1.59-1.36-3.1-2.83-4.53-4.37l-4.71,3.84c-.76.62-.84,1.78-.15,2.48,1.23,1.25,2.5,2.45,3.83,3.58,12.2,10.54,28.09,16.34,44.75,16.34,11.09,0,22.17-2.59,32.04-7.48,6.46-3.15,12.38-7.38,17.6-12.47.72-.7.65-1.88-.13-2.51l-4.68-3.81Z"/>
    </g>
  </g>
</svg>