<?xml version="1.0" encoding="utf-8"?>
<!-- Generator: Adobe Illustrator 28.3.0, SVG Export Plug-In . SVG Version: 6.00 Build 0)  -->
<svg version="1.1" id="Layer_1" xmlns="http://www.w3.org/2000/svg" xmlns:xlink="http://www.w3.org/1999/xlink" x="0px" y="0px"
	 viewBox="0 0 151 40" style="enable-background:new 0 0 151 40;" xml:space="preserve">
<style type="text/css">
	.st0{fill:#FFFFFF;}
</style>
<g>
	<g>
		<path class="st0" d="M3.73,14.13c1.53-0.82,3.39-0.48,5.05-0.24c-0.21,0.76-0.28,1.55-0.54,2.3c-0.13,0.01-0.38,0.04-0.5,0.06
			c-0.01-0.71-0.19-1.56-0.98-1.87c-0.77-0.25-1.77-0.21-2.36,0.38c-0.58,0.58-0.41,1.54,0.17,2.08c1.09,1.04,2.76,1.36,3.76,2.5
			c1.05,1.15,0.78,3.18-0.73,3.89c-1.27,0.62-2.82,0.6-4.16,0.18c-0.52-0.18-1.1-0.52-1.18-1.07c-0.03-0.54,0.21-1.05,0.39-1.56
			c0.18-0.01,0.36-0.02,0.55-0.02c0.07,0.51,0.1,1.07,0.44,1.5c0.65,0.88,2.06,1.05,3.03,0.56c0.6-0.28,0.85-1,0.67-1.58
			c-0.17-0.69-0.82-1.15-1.43-1.52c-1.02-0.62-2.22-1.07-2.95-2.02C2.08,16.57,2.41,14.82,3.73,14.13z"/>
		<path class="st0" d="M12.4,13.7c0.46,0.05,0.93,0.08,1.4,0.08c2.33,0,4.67,0,7,0c0.45,0,0.89-0.04,1.34-0.08
			c-0.13,0.84-0.33,1.68-0.47,2.52c-0.15,0-0.44,0.01-0.58,0.01c-0.04-0.56,0.02-1.32-0.63-1.62c-0.7-0.26-1.48-0.15-2.22-0.17
			c-0.23-0.04-0.5,0.1-0.43,0.34c-0.05,2.71,0.08,5.42-0.07,8.12c0.51,0.05,1.01,0.09,1.52,0.14c-0.01,0.14-0.01,0.28-0.02,0.42
			c-1.41,0.03-2.83,0.06-4.24,0.1c0-0.11,0.01-0.34,0.01-0.45c0.5-0.14,1.09-0.39,1.08-0.95c0.03-2.57,0-5.15,0.01-7.72
			c-0.77,0.03-1.57-0.1-2.32,0.12c-0.75,0.27-1,1.05-1.32,1.66c-0.14,0-0.41,0-0.55,0C12.07,15.38,12.2,14.54,12.4,13.7z"/>
		<path class="st0" d="M24.62,13.78c1.14-0.01,2.27,0.01,3.41-0.07c-0.35,0.56-0.52,1.2-0.52,1.84c-0.01,1.52-0.01,3.04,0.01,4.57
			c0.02,0.81,0.33,1.64,1.02,2.17c1.34,1.05,3.66,0.8,4.61-0.6c0.58-0.79,0.48-1.78,0.48-2.68c-0.02-1.37,0.04-2.74-0.03-4.11
			c-0.03-0.57-0.74-0.61-1.2-0.7c0-0.11,0-0.32,0-0.43c1.09,0.01,2.17-0.03,3.26,0.03c-0.39,0.47-1.11,0.77-1.13,1.44
			c-0.05,1.68,0.02,3.37-0.03,5.05c-0.05,1.11-0.69,2.21-1.75,2.78c-1.43,0.77-3.26,0.81-4.78,0.24c-1.08-0.41-1.92-1.33-2.08-2.4
			c-0.21-2.04,0.01-4.1-0.12-6.14C25.7,14.12,24.52,14.49,24.62,13.78z"/>
		<path class="st0" d="M117.15,13.86c1.6,0.16,3.22,0.04,4.82,0.08c1.6-0.03,3.21,0.07,4.81-0.08c-0.13,0.84-0.33,1.66-0.48,2.5
			c-0.19,0-0.38,0-0.56,0c-0.02-0.55,0.01-1.24-0.56-1.57c-0.82-0.33-1.74-0.14-2.61-0.2c-0.02,0.08-0.05,0.24-0.07,0.32
			c-0.09,2.68,0.07,5.37-0.09,8.05c0.52,0.04,1.04,0.09,1.56,0.14c-0.02,0.14-0.04,0.27-0.06,0.41c-1.4,0.03-2.8,0.07-4.2,0.1
			c0-0.11,0-0.33,0-0.44c0.48-0.15,1.09-0.39,1.07-0.94c0.03-2.55,0-5.09,0.01-7.64c-0.7,0.02-1.41-0.06-2.1,0.07
			c-0.86,0.19-1.16,1.03-1.48,1.69c-0.14,0-0.42,0.01-0.56,0.01C116.84,15.53,116.96,14.69,117.15,13.86z"/>
		<g>
			<path class="st0" d="M132.3,13.99c0.26-0.05,0.53-0.1,0.79-0.14c1.17,2.8,2.35,5.61,3.53,8.41c0.16,0.45,0.52,0.8,1.02,0.92
				c-0.01,0.09-0.03,0.28-0.04,0.38c-1.11,0.01-2.22,0.03-3.33,0.05c0-0.12,0-0.35,0-0.47c0.21-0.07,0.42-0.12,0.61-0.23
				c0.12-0.18,0-0.39-0.05-0.57c-0.25-0.65-0.53-1.29-0.78-1.94c-1.16,0.01-2.32-0.02-3.48,0.01c-0.23-0.02-0.31,0.22-0.38,0.36
				c-0.3,0.73-0.6,1.45-0.9,2.17c0.44,0.07,0.88,0.12,1.33,0.18c-0.02,0.11-0.06,0.32-0.08,0.43c-0.99,0-1.98,0-2.96,0
				c0-0.13,0.01-0.26,0.01-0.39c0.41-0.13,0.88-0.28,1.02-0.7C129.86,19.64,131.09,16.82,132.3,13.99z M132.27,15.8
				c-0.54,1.3-1.08,2.6-1.62,3.91c1.05,0.01,2.1,0.01,3.15,0C133.28,18.41,132.74,17.11,132.27,15.8z"/>
		</g>
		<path class="st0" d="M140.58,13.94c1.13-0.01,2.26,0.01,3.39-0.07c-0.28,0.47-0.48,0.98-0.5,1.52c-0.09,2.5,0.07,5.01-0.09,7.51
			c1.02-0.03,2.06,0.05,3.08-0.05c0.99-0.21,1.32-1.22,1.72-1.96c0.14-0.01,0.43-0.02,0.57-0.02c-0.19,0.9-0.43,1.78-0.64,2.68
			c-2.47,0.01-4.94-0.03-7.41,0.05c0-0.11,0.01-0.34,0.01-0.45c0.49-0.11,1.08-0.37,1.04-0.92c0.02-2.18,0-4.36,0.01-6.54
			c-0.01-0.3,0.02-0.62-0.08-0.91C141.46,14.3,140.48,14.61,140.58,13.94z"/>
		<g>
			<path class="st0" d="M38.76,13.78c1.69,0.01,3.38-0.02,5.08,0.02c1.75,0.09,3.68,0.6,4.71,2.01c1.16,1.69,0.94,4.05-0.37,5.62
				c-1.18,1.38-3.13,2.02-4.99,2.07c-1.42,0.03-2.84,0.01-4.26,0.06c0-0.11,0.01-0.34,0.01-0.46c0.3-0.11,0.66-0.17,0.88-0.41
				c0.26-0.28,0.2-0.67,0.22-1.01c-0.02-2.24,0.02-4.49-0.02-6.73c-0.01-0.6-0.77-0.67-1.25-0.77
				C38.77,14.08,38.76,13.88,38.76,13.78z M41.75,14.57c-0.08,2.76,0.08,5.53-0.08,8.28c1.13-0.01,2.31,0.06,3.37-0.38
				c1.32-0.47,2.17-1.72,2.28-2.99c0.2-1.5-0.08-3.24-1.42-4.25c-1.1-0.85-2.62-0.84-3.98-0.78C41.89,14.48,41.8,14.54,41.75,14.57z
				"/>
		</g>
		<path class="st0" d="M52.62,14.18c0-0.13,0-0.27,0-0.4c1.11,0,2.22,0.02,3.33-0.07c-0.27,0.52-0.5,1.08-0.51,1.67
			c-0.05,2.51,0.04,5.02-0.04,7.53c0.47,0.04,0.93,0.09,1.4,0.14c-0.02,0.14-0.03,0.28-0.04,0.42c-1.37,0.03-2.73,0.06-4.1,0.1
			c0-0.15,0-0.3,0.01-0.45c0.47-0.15,1.11-0.39,1.06-0.95c0.01-2.42,0.01-4.83,0-7.25C53.78,14.36,53.05,14.29,52.62,14.18z"/>
		<g>
			<path class="st0" d="M79.11,13.94c1.63,0,3.26-0.02,4.89,0.01c1.77,0.07,3.74,0.58,4.77,2.02c1.12,1.66,0.91,3.95-0.35,5.5
				c-0.61,0.74-1.48,1.28-2.42,1.61c-2.15,0.77-4.51,0.37-6.76,0.53c0-0.15,0-0.3,0.01-0.45c0.49-0.13,1.1-0.37,1.07-0.93
				c0.03-2.18,0-4.36,0.01-6.54c-0.02-0.32,0.04-0.67-0.14-0.96c-0.27-0.28-0.71-0.29-1.07-0.39
				C79.12,14.24,79.11,14.04,79.11,13.94z M82.08,14.59c-0.2,2.76,0.06,5.55-0.13,8.32c0.68,0,1.37,0.01,2.05-0.05
				c1.17-0.14,2.35-0.67,2.96-1.63c0.68-1.01,0.71-2.24,0.59-3.38c-0.18-1.14-0.84-2.29-2-2.82C84.48,14.49,83.24,14.59,82.08,14.59
				z"/>
		</g>
		<path class="st0" d="M103.13,13.95c0.75-0.01,1.51-0.03,2.26-0.07c0.5,0.71,1.16,1.3,1.76,1.94c1.68,1.75,3.42,3.46,5.06,5.24
			c0.01-1.74,0-3.47,0.01-5.21c0.01-0.37-0.04-0.74-0.1-1.11c-0.35-0.23-0.77-0.33-1.19-0.37c0-0.11,0-0.32,0-0.43
			c1.07,0.02,2.14-0.04,3.2,0.03c-0.33,0.34-0.83,0.56-1.01,1.01c-0.13,0.28-0.15,0.58-0.15,0.88c0.01,2.59,0,5.19,0,7.78
			c-0.12,0-0.37,0-0.49,0.01c-1.97-2.02-3.89-4.07-5.85-6.1c-0.49-0.51-0.99-1.02-1.42-1.58c-0.04,2.34,0.09,4.69-0.07,7.03
			c0.46,0.03,0.93,0.06,1.39,0.1c-0.02,0.14-0.04,0.27-0.06,0.41c-1.04,0.03-2.09,0.06-3.13,0.1c0-0.15,0-0.3,0-0.45
			c0.48-0.14,1.15-0.35,1.1-0.93c-0.01-2.29,0.03-4.59-0.02-6.88c-0.02-0.62-0.68-0.87-1.21-1.05
			C103.2,14.22,103.16,14.04,103.13,13.95z"/>
		<g>
			<path class="st0" d="M65.45,13.67c1.1-0.1,2.24-0.08,3.29,0.3c1.38,0.46,2.5,1.52,2.92,2.82c0.87,2.43-0.52,5.34-3.06,6.4
				c-1.93,0.82-4.39,0.68-6.07-0.56c-2.03-1.48-2.46-4.32-1.23-6.36C62.1,14.83,63.72,13.87,65.45,13.67z M65.02,14.42
				c-0.89,0.3-1.59,0.96-1.98,1.74c-0.8,1.54-0.66,3.41,0.17,4.91c0.48,0.87,1.31,1.63,2.36,1.88c1.22,0.34,2.58-0.17,3.33-1.09
				c1.04-1.23,1.28-2.91,0.96-4.41c-0.27-1.13-0.93-2.25-2.06-2.82C66.96,14.19,65.92,14.14,65.02,14.42z"/>
		</g>
		<path class="st0" d="M99.64,21.15c-0.37,0.63-0.64,1.51-1.48,1.7c-1.04,0.11-2.1,0.03-3.15,0.06c0.13-1.29,0.03-2.58,0.07-3.88
			c0.83-0.1,1.67-0.05,2.51-0.05v-0.65c-0.84,0.01-1.68,0-2.52,0.01c0.04-1.22-0.07-2.45,0.05-3.66c0.91-0.17,1.93-0.12,2.87,0
			c0.84,0.14,0.87,1.05,0.84,1.67c0.19,0,0.38,0,0.58,0.01c0.13-0.83,0.33-1.65,0.47-2.47c-2.58,0.12-5.16,0.02-7.74,0.05
			c0,0.13,0,0.27,0,0.4c0.32,0.08,0.67,0.11,0.96,0.27c0.34,0.21,0.28,0.62,0.3,0.94c-0.02,2.26,0.02,4.51-0.02,6.77
			c-0.03,0.52-0.61,0.71-1.06,0.84c-0.01,0.15-0.01,0.3-0.01,0.45c2.44-0.07,4.88-0.04,7.32-0.05c0.21-0.79,0.37-1.59,0.59-2.39
			C100.02,21.17,99.83,21.16,99.64,21.15z"/>
		<path class="st0" d="M71.33,23.52c-0.57,0.54-1.23,0.99-1.97,1.32c-1.04,0.47-2.2,0.72-3.37,0.72c-1.74,0-3.4-0.56-4.67-1.57
			c-0.19-0.15-0.37-0.31-0.54-0.48l-0.56,0.42c-0.09,0.07-0.1,0.19-0.02,0.27c0.15,0.14,0.3,0.27,0.46,0.39
			c1.45,1.15,3.34,1.79,5.33,1.79c1.32,0,2.64-0.28,3.82-0.82c0.77-0.35,1.47-0.81,2.1-1.37c0.09-0.08,0.08-0.21-0.02-0.27
			L71.33,23.52z"/>
	</g>
</g>
</svg>
