<?xml version="1.0" encoding="UTF-8"?>
<svg id="Layer_2" data-name="Layer 2" xmlns="http://www.w3.org/2000/svg" viewBox="0 0 273.2 139.15">
  <defs>
    <style>
      .cls-1 {
        fill: #fff;
        stroke: #fff;
        stroke-miterlimit: 10;
      }
    </style>
  </defs>
  <g id="Layer_1-2" data-name="Layer 1">
    <g>
      <g>
        <path class="cls-1" d="M9.62,134.69h-5.44v3.83h-1.34v-8.77h1.34v3.76h5.44v-3.76h1.34v8.77h-1.34v-3.83Z"/>
        <path class="cls-1" d="M17.65,129.75h1.56l3.48,8.77h-1.37l-.77-1.93h-4.37l-.8,1.93h-1.37l3.64-8.77ZM16.54,135.57h3.66l-1.78-4.47-1.88,4.47Z"/>
        <path class="cls-1" d="M27.16,131.89v6.63h-1.34v-8.77h1.19l5.57,6.65v-6.65h1.34v8.77h-1.17l-5.58-6.63Z"/>
        <path class="cls-1" d="M38.05,129.75h3.57c2.59.01,4.53,1.55,4.53,4.4s-1.93,4.37-4.53,4.37h-3.57v-8.77ZM39.39,130.92v6.42h2.18c1.87,0,3.2-1.13,3.2-3.2s-1.33-3.21-3.2-3.22h-2.18Z"/>
        <path class="cls-1" d="M57.97,131.88l-3.31,4h-.26l-3.31-4v6.64h-1.34v-8.77h1.22l3.56,4.29,3.57-4.29h1.21v8.77h-1.34v-6.64Z"/>
        <path class="cls-1" d="M66.01,129.75h1.56l3.48,8.77h-1.37l-.77-1.93h-4.37l-.8,1.93h-1.37l3.64-8.77ZM64.9,135.57h3.66l-1.78-4.47-1.88,4.47Z"/>
        <path class="cls-1" d="M74.18,129.75h3.57c2.59.01,4.53,1.55,4.53,4.4s-1.93,4.37-4.53,4.37h-3.57v-8.77ZM75.53,130.92v6.42h2.18c1.87,0,3.2-1.13,3.2-3.2s-1.33-3.21-3.2-3.22h-2.18Z"/>
        <path class="cls-1" d="M85.88,138.52v-8.77h6.81v1.19h-5.52v2.46h4.58v1.19h-4.58v2.75h5.52v1.19h-6.81Z"/>
        <path class="cls-1" d="M108.81,134.24c-.32.89-.8,1.82-1.47,2.58l1.64,1.51v.19h-1.77l-.85-.81c-.79.58-1.77.94-2.91.94-1.87,0-3.02-.93-3.02-2.48,0-1.21.85-1.86,1.95-2.31-.62-.61-1.06-1.17-1.06-2.05,0-1.2.97-2.19,2.71-2.19,1.59,0,2.75.92,2.75,2.17,0,1.37-.89,1.99-1.96,2.36l-.27.1,1.91,1.75c.57-.66,1.02-1.51,1.31-2.45l1.04.68ZM105.48,136.87l-2.24-2.15c-.79.3-1.47.66-1.47,1.38,0,.84.71,1.39,1.81,1.39.68,0,1.33-.22,1.91-.62ZM103.65,133.43l.66-.23c.77-.28,1.15-.62,1.15-1.26s-.58-1.15-1.43-1.15c-.95,0-1.41.49-1.41,1.11s.55,1.1,1.03,1.53Z"/>
        <path class="cls-1" d="M116.78,129.75h3.57c2.59.01,4.53,1.55,4.53,4.4s-1.93,4.37-4.53,4.37h-3.57v-8.77ZM118.12,130.92v6.42h2.18c1.87,0,3.2-1.13,3.2-3.2s-1.33-3.21-3.2-3.22h-2.18Z"/>
        <path class="cls-1" d="M128.47,129.75h1.34v8.77h-1.34v-8.77Z"/>
        <path class="cls-1" d="M141.75,137.49c-.81.63-2.35,1.16-3.69,1.16-2.59,0-4.67-1.68-4.67-4.5s2.08-4.53,4.67-4.53c1.42,0,2.48.48,3.35,1.21l-.64,1.03c-.72-.63-1.56-.99-2.68-.99-1.86,0-3.31,1.2-3.31,3.27s1.46,3.25,3.37,3.25c.86,0,1.7-.26,2.27-.62v-2h-2.72v-1.17h4.06v3.88Z"/>
        <path class="cls-1" d="M145.44,129.75h1.34v8.77h-1.34v-8.77Z"/>
        <path class="cls-1" d="M154.42,130.94v7.58h-1.34v-7.58h-3.15v-1.19h7.48v1.19h-2.99Z"/>
        <path class="cls-1" d="M162.41,129.75h1.56l3.48,8.77h-1.37l-.77-1.93h-4.37l-.8,1.93h-1.37l3.64-8.77ZM161.3,135.57h3.66l-1.78-4.47-1.88,4.47Z"/>
        <path class="cls-1" d="M170.58,138.52v-8.77h1.34v7.59h4.8v1.17h-6.14Z"/>
        <path class="cls-1" d="M184.08,129.75h3.57c2.59.01,4.53,1.55,4.53,4.4s-1.93,4.37-4.53,4.37h-3.57v-8.77ZM185.42,130.92v6.42h2.18c1.87,0,3.2-1.13,3.2-3.2s-1.33-3.21-3.2-3.22h-2.18Z"/>
        <path class="cls-1" d="M195.77,138.52v-8.77h6.81v1.19h-5.52v2.46h4.58v1.19h-4.58v2.75h5.52v1.19h-6.81Z"/>
        <path class="cls-1" d="M207.49,131.89v6.63h-1.34v-8.77h1.19l5.57,6.65v-6.65h1.34v8.77h-1.17l-5.58-6.63Z"/>
        <path class="cls-1" d="M221.87,130.94v7.58h-1.34v-7.58h-3.15v-1.19h7.48v1.19h-2.99Z"/>
        <path class="cls-1" d="M228.01,129.75h1.34v8.77h-1.34v-8.77Z"/>
        <path class="cls-1" d="M233.3,136.6c.59.37,1.64.81,2.79.81,1.28,0,2.15-.49,2.15-1.35,0-.62-.45-.97-1.52-1.22l-1.57-.39c-1.47-.35-2.19-1.13-2.19-2.28,0-1.38,1.07-2.53,3.39-2.53,1.22,0,2.41.35,3.07.7l-.39,1.24c-.62-.37-1.75-.7-2.73-.7-1.37,0-1.95.52-1.95,1.17,0,.61.41.9,1.21,1.12l1.7.44c1.55.41,2.37,1.11,2.37,2.35,0,1.62-1.5,2.69-3.57,2.69-1.26,0-2.53-.44-3.08-.76l.32-1.29Z"/>
        <path class="cls-1" d="M246.63,130.94v7.58h-1.34v-7.58h-3.15v-1.19h7.48v1.19h-2.99Z"/>
        <path class="cls-1" d="M252.77,129.75h3.82c1.95,0,3.29.86,3.29,2.81,0,1.51-1.1,2.53-2.5,2.71l3.07,3.03v.22h-1.55l-3.19-3.22h-1.6v3.22h-1.34v-8.77ZM254.11,130.92v3.3h2.62c.98,0,1.75-.59,1.75-1.64,0-1.12-.77-1.66-1.75-1.66h-2.62Z"/>
        <path class="cls-1" d="M265.67,134.93l-3.55-5.08v-.1h1.5l2.72,3.95,2.72-3.95h1.5v.1l-3.55,5.07v3.6h-1.34v-3.58Z"/>
      </g>
      <path class="cls-1" d="M6.75,2.7C12.72-.77,19.98.65,26.43,1.69c-.83,3.23-1.1,6.58-2.09,9.76-.49.06-1.47.18-1.96.24-.04-2.99-.75-6.61-3.82-7.91-3-1.04-6.9-.87-9.18,1.59-2.26,2.48-1.59,6.53.65,8.8,4.24,4.39,10.78,5.76,14.67,10.58,4.08,4.87,3.02,13.47-2.86,16.47-4.95,2.63-11,2.56-16.22.77-2.04-.76-4.29-2.19-4.6-4.55-.12-2.29.83-4.46,1.52-6.6.71-.03,1.42-.07,2.13-.09.27,2.16.4,4.51,1.71,6.35,2.52,3.71,8.03,4.45,11.81,2.38,2.36-1.2,3.33-4.23,2.6-6.68-.67-2.94-3.21-4.89-5.59-6.46-3.98-2.62-8.67-4.55-11.49-8.56C.34,13.05,1.62,5.63,6.75,2.7Z"/>
      <path class="cls-1" d="M40.54.9c1.81.19,3.62.35,5.44.33,9.1-.01,18.2,0,27.29,0,1.74.01,3.48-.16,5.21-.35-.52,3.57-1.27,7.11-1.84,10.68-.57,0-1.7.03-2.26.03-.17-2.38.07-5.58-2.47-6.86-2.74-1.12-5.78-.63-8.66-.71-.91-.17-1.94.43-1.67,1.44-.18,11.47.31,22.96-.26,34.42,1.98.19,3.95.37,5.93.59-.03.59-.05,1.19-.08,1.78-5.51.13-11.02.27-16.53.41,0-.48.02-1.44.02-1.91,1.93-.57,4.25-1.67,4.23-4.02.1-10.91,0-21.82.04-32.72-3.01.13-6.12-.41-9.04.51-2.92,1.16-3.91,4.44-5.14,7.04h-2.14c.66-3.55,1.17-7.13,1.93-10.67Z"/>
      <path class="cls-1" d="M88.2,1.25c4.43-.05,8.86.03,13.28-.3-1.37,2.38-2.04,5.08-2.03,7.81-.02,6.45-.05,12.9.02,19.35.07,3.43,1.29,6.96,3.98,9.2,5.21,4.46,14.28,3.37,17.95-2.54,2.24-3.34,1.88-7.53,1.89-11.36-.08-5.8.15-11.61-.11-17.4-.11-2.4-2.9-2.6-4.69-2.97v-1.82c4.23.04,8.47-.13,12.71.11-1.53,2-4.32,3.26-4.42,6.11-.18,7.13.07,14.26-.11,21.4-.21,4.71-2.68,9.36-6.81,11.76-5.58,3.27-12.7,3.43-18.63,1-4.21-1.72-7.47-5.64-8.12-10.18-.81-8.64.05-17.36-.46-26.02-.25-2.74-4.86-1.16-4.45-4.17Z"/>
      <path class="cls-1" d="M148.78,65.52c6.24.66,12.53.18,18.8.33,6.24-.13,12.51.32,18.74-.33-.49,3.55-1.28,7.04-1.86,10.57-.74,0-1.47,0-2.19,0-.07-2.31.02-5.26-2.2-6.66-3.19-1.41-6.79-.61-10.16-.83-.07.34-.19,1.02-.26,1.36-.36,11.36.29,22.77-.34,34.12,2.02.18,4.05.38,6.07.59-.09.58-.16,1.16-.23,1.74-5.47.13-10.93.28-16.38.41v-1.85c1.89-.62,4.24-1.63,4.18-4,.11-10.78.01-21.58.05-32.36-2.73.09-5.51-.26-8.2.28-3.34.8-4.54,4.38-5.75,7.17-.55,0-1.65.03-2.2.03.74-3.51,1.2-7.07,1.93-10.57Z"/>
      <path class="cls-1" d="M207.85,66.07c1.02-.22,2.05-.42,3.09-.59,4.57,11.88,9.15,23.77,13.77,35.63.61,1.89,2.03,3.41,3.99,3.88-.03.4-.11,1.2-.14,1.61-4.33.03-8.66.11-12.99.22,0-.49.01-1.48.01-1.97.81-.28,1.65-.51,2.4-.96.49-.76,0-1.65-.19-2.41-.99-2.76-2.08-5.48-3.05-8.24-4.52.04-9.04-.07-13.55.04-.89-.1-1.19.93-1.49,1.55-1.17,3.07-2.33,6.15-3.52,9.21,1.72.28,3.45.52,5.17.77-.07.45-.22,1.36-.3,1.81-3.85,0-7.7,0-11.55,0,0-.56.02-1.11.05-1.67,1.59-.54,3.41-1.19,3.99-2.96,4.78-11.96,9.58-23.92,14.31-35.91ZM207.72,73.73c-2.12,5.51-4.22,11.03-6.31,16.55,4.09.03,8.19.05,12.29-.02-2.07-5.48-4.15-10.97-5.98-16.53Z"/>
      <path class="cls-1" d="M240.09,65.88c4.4-.05,8.81.03,13.21-.3-1.1,1.99-1.86,4.17-1.95,6.45-.34,10.6.28,21.23-.34,31.82,3.99-.11,8.02.23,12-.2,3.85-.88,5.15-5.16,6.7-8.28.56-.03,1.67-.08,2.23-.1-.74,3.8-1.69,7.56-2.49,11.35-9.62.05-19.25-.13-28.87.21l.03-1.89c1.9-.49,4.2-1.58,4.05-3.91.09-9.24-.01-18.48.04-27.72-.04-1.28.09-2.61-.31-3.85-.86-2.05-4.68-.74-4.3-3.57Z"/>
      <path class="cls-1" d="M143.31,1.23c6.59.03,13.18-.1,19.78.07,6.83.37,14.35,2.56,18.36,8.53,4.52,7.17,3.65,17.14-1.43,23.81-4.59,5.86-12.2,8.54-19.45,8.76-5.52.13-11.06.06-16.59.27,0-.49.03-1.44.03-1.93,1.18-.47,2.56-.73,3.43-1.74,1.03-1.18.79-2.84.84-4.29-.07-9.5.09-19.01-.08-28.51-.02-2.53-2.99-2.84-4.86-3.27,0-.43-.02-1.27-.02-1.7ZM154.97,4.59c-.29,11.69.3,23.41-.31,35.08,4.41-.05,9.01.27,13.12-1.63,5.14-2,8.45-7.27,8.91-12.66.79-6.35-.31-13.73-5.54-18.01-4.29-3.58-10.21-3.57-15.49-3.29-.17.13-.51.39-.68.51Z"/>
      <path class="cls-1" d="M197.3,2.91c0-.57,0-1.12,0-1.69,4.33,0,8.67.07,12.99-.29-1.07,2.22-1.96,4.57-2,7.07-.18,10.63.15,21.27-.17,31.9,1.82.18,3.64.37,5.46.59-.06.59-.12,1.17-.17,1.76-5.32.13-10.66.27-15.98.41,0-.63.01-1.26.03-1.89,1.84-.64,4.32-1.66,4.13-4.02.02-10.24.03-20.47,0-30.7.25-2.39-2.6-2.66-4.27-3.15Z"/>
      <path class="cls-1" d="M.52,65.86c6.35.02,12.7-.07,19.04.05,6.91.31,14.59,2.46,18.59,8.55,4.37,7.02,3.55,16.75-1.38,23.29-2.38,3.15-5.77,5.42-9.42,6.84-8.4,3.26-17.57,1.55-26.33,2.24,0-.63,0-1.26.02-1.89,1.91-.53,4.29-1.56,4.17-3.94.1-9.22,0-18.46.05-27.69-.06-1.36.14-2.85-.55-4.09-1.05-1.17-2.75-1.22-4.16-1.65-.01-.43-.03-1.28-.04-1.71ZM12.09,68.61c-.77,11.71.22,23.52-.52,35.24,2.66,0,5.33.05,7.99-.22,4.55-.6,9.16-2.84,11.53-6.92,2.64-4.27,2.78-9.49,2.28-14.34-.68-4.84-3.27-9.72-7.79-11.96-4.14-2.2-8.97-1.78-13.49-1.8Z"/>
      <path class="cls-1" d="M94.15,65.89c2.94-.03,5.88-.14,8.82-.3,1.97,2.99,4.52,5.51,6.86,8.2,6.56,7.41,13.32,14.65,19.71,22.22.03-7.36-.01-14.72.02-22.08.02-1.57-.15-3.13-.38-4.68-1.37-.97-2.99-1.38-4.63-1.58v-1.82c4.17.07,8.34-.16,12.49.14-1.3,1.44-3.25,2.37-3.94,4.28-.49,1.18-.57,2.47-.57,3.72.02,10.98,0,21.97.01,32.95-.48,0-1.44.02-1.91.03-7.67-8.55-15.16-17.25-22.79-25.83-1.9-2.18-3.87-4.3-5.53-6.68-.17,9.93.35,19.88-.28,29.79,1.81.13,3.61.26,5.42.41-.09.58-.16,1.16-.24,1.74-4.07.14-8.13.26-12.19.41,0-.63,0-1.26,0-1.89,1.88-.57,4.47-1.48,4.28-3.92-.03-9.71.13-19.43-.09-29.13-.07-2.63-2.64-3.67-4.71-4.45-.09-.39-.26-1.16-.36-1.55Z"/>
      <path class="cls-1" d="M247.3.75c4.29-.43,8.75-.36,12.81,1.27,5.36,1.94,9.75,6.45,11.37,11.94,3.39,10.31-2.01,22.64-11.91,27.11-7.51,3.47-17.1,2.9-23.65-2.38-7.9-6.26-9.6-18.32-4.81-26.96,3.13-6.07,9.46-10.13,16.19-10.98ZM245.63,3.96c-3.45,1.26-6.19,4.07-7.73,7.37-3.1,6.52-2.58,14.44.68,20.81,1.89,3.69,5.1,6.91,9.2,7.98,4.75,1.44,10.05-.73,12.98-4.61,4.05-5.22,4.98-12.31,3.73-18.68-1.04-4.77-3.61-9.55-8.02-11.97-3.26-1.87-7.31-2.09-10.84-.91Z"/>
      <path class="cls-1" d="M80.54,96.43c-1.43,2.65-2.48,6.39-5.78,7.19-4.07.49-8.19.11-12.28.25.51-5.46.12-10.95.28-16.42,3.24-.44,6.52-.19,9.79-.23v-2.75c-3.28.05-6.55.01-9.82.03.14-5.16-.28-10.39.2-15.5,3.55-.73,7.54-.5,11.19-.01,3.26.6,3.38,4.45,3.26,7.09.74.01,1.49.02,2.25.03.5-3.51,1.29-6.97,1.82-10.47-10.05.5-20.12.11-30.17.23,0,.56,0,1.13,0,1.68,1.24.35,2.6.47,3.72,1.16,1.33.88,1.09,2.63,1.16,3.99-.07,9.56.09,19.13-.07,28.69-.11,2.18-2.38,3.01-4.14,3.55-.02.63-.03,1.26-.05,1.89,9.51-.31,19.02-.16,28.52-.2.81-3.36,1.46-6.76,2.3-10.11-.74-.03-1.47-.05-2.2-.08Z"/>
      <path class="cls-1" d="M270.24,42.48c-2.22,2.29-4.79,4.21-7.67,5.61-4.04,2.01-8.58,3.06-13.13,3.06-6.79,0-13.25-2.36-18.2-6.63-.74-.63-1.44-1.31-2.1-2.03l-2.19,1.78c-.35.29-.39.82-.07,1.15.57.58,1.16,1.14,1.78,1.66,5.66,4.89,13.03,7.58,20.77,7.58,5.15,0,10.29-1.2,14.87-3.47,3-1.46,5.75-3.42,8.17-5.79.33-.32.3-.87-.06-1.16l-2.17-1.77Z"/>
    </g>
  </g>
</svg>